<svg width="75" height="28" viewBox="0 0 75 28" fill="none" xmlns="http://www.w3.org/2000/svg">
    <rect width="75" height="28" rx="8" fill="#53618B"/>
    <path fill-rule="evenodd" clip-rule="evenodd" d="M11.3598 6.30551C13.0963 5.89816 14.9036 5.89816 16.6402 6.30551C19.1481 6.89378 21.1063 8.85193 21.6945 11.3598C22.1018 13.0963 22.1018 14.9036 21.6945 16.6402C21.1063 19.1481 19.1481 21.1063 16.6402 21.6945C14.9036 22.1018 13.0963 22.1018 11.3598 21.6945C8.85193 21.1063 6.89378 19.1481 6.30551 16.6402C5.89816 14.9036 5.89816 13.0963 6.30551 11.3598C6.89378 8.85192 8.85192 6.89378 11.3598 6.30551ZM14.5333 11.8727C14.5333 11.5781 14.2946 11.3393 14 11.3393C13.7054 11.3393 13.4666 11.5781 13.4666 11.8727V13.4666H11.8727C11.5781 13.4666 11.3393 13.7054 11.3393 14C11.3393 14.2946 11.5781 14.5333 11.8727 14.5333H13.4666V16.1273C13.4666 16.4218 13.7054 16.6606 14 16.6606C14.2946 16.6606 14.5333 16.4218 14.5333 16.1273V14.5333H16.1273C16.4218 14.5333 16.6606 14.2946 16.6606 14C16.6606 13.7054 16.4218 13.4666 16.1273 13.4666H14.5333V11.8727Z" fill="white"/>
    <path d="M31.72 15.34L30.595 12.425C30.5617 12.3383 30.5267 12.2383 30.49 12.125C30.4533 12.0083 30.4183 11.885 30.385 11.755C30.315 12.025 30.2433 12.25 30.17 12.43L29.045 15.34H31.72ZM33.74 18H32.99C32.9033 18 32.8333 17.9783 32.78 17.935C32.7267 17.8917 32.6867 17.8367 32.66 17.77L31.99 16.04H28.775L28.105 17.77C28.085 17.83 28.0467 17.8833 27.99 17.93C27.9333 17.9767 27.8633 18 27.78 18H27.03L29.895 10.835H30.875L33.74 18ZM37.6652 14.14C37.4985 13.9167 37.3185 13.7617 37.1252 13.675C36.9318 13.585 36.7152 13.54 36.4752 13.54C36.0052 13.54 35.6435 13.7083 35.3902 14.045C35.1368 14.3817 35.0102 14.8617 35.0102 15.485C35.0102 15.815 35.0385 16.0983 35.0952 16.335C35.1518 16.5683 35.2352 16.7617 35.3452 16.915C35.4552 17.065 35.5902 17.175 35.7502 17.245C35.9102 17.315 36.0918 17.35 36.2952 17.35C36.5885 17.35 36.8435 17.2833 37.0602 17.15C37.2802 17.0167 37.4818 16.8283 37.6652 16.585V14.14ZM38.5552 10.635V18H38.0252C37.8985 18 37.8185 17.9383 37.7852 17.815L37.7052 17.2C37.4885 17.46 37.2418 17.67 36.9652 17.83C36.6885 17.99 36.3685 18.07 36.0052 18.07C35.7152 18.07 35.4518 18.015 35.2152 17.905C34.9785 17.7917 34.7768 17.6267 34.6102 17.41C34.4435 17.1933 34.3152 16.9233 34.2252 16.6C34.1352 16.2767 34.0902 15.905 34.0902 15.485C34.0902 15.1117 34.1402 14.765 34.2402 14.445C34.3402 14.1217 34.4835 13.8417 34.6702 13.605C34.8568 13.3683 35.0852 13.1833 35.3552 13.05C35.6285 12.9133 35.9352 12.845 36.2752 12.845C36.5852 12.845 36.8502 12.8983 37.0702 13.005C37.2935 13.1083 37.4918 13.2533 37.6652 13.44V10.635H38.5552ZM43.2609 14.14C43.0942 13.9167 42.9142 13.7617 42.7209 13.675C42.5275 13.585 42.3109 13.54 42.0709 13.54C41.6009 13.54 41.2392 13.7083 40.9859 14.045C40.7325 14.3817 40.6059 14.8617 40.6059 15.485C40.6059 15.815 40.6342 16.0983 40.6909 16.335C40.7475 16.5683 40.8309 16.7617 40.9409 16.915C41.0509 17.065 41.1859 17.175 41.3459 17.245C41.5059 17.315 41.6875 17.35 41.8909 17.35C42.1842 17.35 42.4392 17.2833 42.6559 17.15C42.8759 17.0167 43.0775 16.8283 43.2609 16.585V14.14ZM44.1509 10.635V18H43.6209C43.4942 18 43.4142 17.9383 43.3809 17.815L43.3009 17.2C43.0842 17.46 42.8375 17.67 42.5609 17.83C42.2842 17.99 41.9642 18.07 41.6009 18.07C41.3109 18.07 41.0475 18.015 40.8109 17.905C40.5742 17.7917 40.3725 17.6267 40.2059 17.41C40.0392 17.1933 39.9109 16.9233 39.8209 16.6C39.7309 16.2767 39.6859 15.905 39.6859 15.485C39.6859 15.1117 39.7359 14.765 39.8359 14.445C39.9359 14.1217 40.0792 13.8417 40.2659 13.605C40.4525 13.3683 40.6809 13.1833 40.9509 13.05C41.2242 12.9133 41.5309 12.845 41.8709 12.845C42.1809 12.845 42.4459 12.8983 42.6659 13.005C42.8892 13.1083 43.0875 13.2533 43.2609 13.44V10.635H44.1509ZM49.0552 12.935V18H48.1652V12.935H49.0552ZM49.2452 11.345C49.2452 11.4317 49.2268 11.5133 49.1902 11.59C49.1568 11.6633 49.1102 11.73 49.0502 11.79C48.9935 11.8467 48.9252 11.8917 48.8452 11.925C48.7685 11.9583 48.6868 11.975 48.6002 11.975C48.5135 11.975 48.4318 11.9583 48.3552 11.925C48.2818 11.8917 48.2168 11.8467 48.1602 11.79C48.1035 11.73 48.0585 11.6633 48.0252 11.59C47.9918 11.5133 47.9752 11.4317 47.9752 11.345C47.9752 11.2583 47.9918 11.1767 48.0252 11.1C48.0585 11.02 48.1035 10.9517 48.1602 10.895C48.2168 10.835 48.2818 10.7883 48.3552 10.755C48.4318 10.7217 48.5135 10.705 48.6002 10.705C48.6868 10.705 48.7685 10.7217 48.8452 10.755C48.9252 10.7883 48.9935 10.835 49.0502 10.895C49.1102 10.9517 49.1568 11.02 49.1902 11.1C49.2268 11.1767 49.2452 11.2583 49.2452 11.345ZM52.0725 18.08C51.6725 18.08 51.3642 17.9683 51.1475 17.745C50.9342 17.5217 50.8275 17.2 50.8275 16.78V13.68H50.2175C50.1642 13.68 50.1192 13.665 50.0825 13.635C50.0458 13.6017 50.0275 13.5517 50.0275 13.485V13.13L50.8575 13.025L51.0625 11.46C51.0725 11.41 51.0942 11.37 51.1275 11.34C51.1642 11.3067 51.2108 11.29 51.2675 11.29H51.7175V13.035H53.1825V13.68H51.7175V16.72C51.7175 16.9333 51.7692 17.0917 51.8725 17.195C51.9758 17.2983 52.1092 17.35 52.2725 17.35C52.3658 17.35 52.4458 17.3383 52.5125 17.315C52.5825 17.2883 52.6425 17.26 52.6925 17.23C52.7425 17.2 52.7842 17.1733 52.8175 17.15C52.8542 17.1233 52.8858 17.11 52.9125 17.11C52.9592 17.11 53.0008 17.1383 53.0375 17.195L53.2975 17.62C53.1442 17.7633 52.9592 17.8767 52.7425 17.96C52.5258 18.04 52.3025 18.08 52.0725 18.08ZM57.4622 14.915C57.4622 14.7083 57.4322 14.52 57.3722 14.35C57.3155 14.1767 57.2305 14.0283 57.1172 13.905C57.0072 13.7783 56.8722 13.6817 56.7122 13.615C56.5522 13.545 56.3705 13.51 56.1672 13.51C55.7405 13.51 55.4022 13.635 55.1522 13.885C54.9055 14.1317 54.7522 14.475 54.6922 14.915H57.4622ZM58.1822 17.29C58.0722 17.4233 57.9405 17.54 57.7872 17.64C57.6339 17.7367 57.4689 17.8167 57.2922 17.88C57.1189 17.9433 56.9389 17.99 56.7522 18.02C56.5655 18.0533 56.3805 18.07 56.1972 18.07C55.8472 18.07 55.5239 18.0117 55.2272 17.895C54.9339 17.775 54.6789 17.6017 54.4622 17.375C54.2489 17.145 54.0822 16.8617 53.9622 16.525C53.8422 16.1883 53.7822 15.8017 53.7822 15.365C53.7822 15.0117 53.8355 14.6817 53.9422 14.375C54.0522 14.0683 54.2089 13.8033 54.4122 13.58C54.6155 13.3533 54.8639 13.1767 55.1572 13.05C55.4505 12.92 55.7805 12.855 56.1472 12.855C56.4505 12.855 56.7305 12.9067 56.9872 13.01C57.2472 13.11 57.4705 13.2567 57.6572 13.45C57.8472 13.64 57.9955 13.8767 58.1022 14.16C58.2089 14.44 58.2622 14.76 58.2622 15.12C58.2622 15.26 58.2472 15.3533 58.2172 15.4C58.1872 15.4467 58.1305 15.47 58.0472 15.47H54.6622C54.6722 15.79 54.7155 16.0683 54.7922 16.305C54.8722 16.5417 54.9822 16.74 55.1222 16.9C55.2622 17.0567 55.4289 17.175 55.6222 17.255C55.8155 17.3317 56.0322 17.37 56.2722 17.37C56.4955 17.37 56.6872 17.345 56.8472 17.295C57.0105 17.2417 57.1505 17.185 57.2672 17.125C57.3839 17.065 57.4805 17.01 57.5572 16.96C57.6372 16.9067 57.7055 16.88 57.7622 16.88C57.8355 16.88 57.8922 16.9083 57.9322 16.965L58.1822 17.29ZM59.3554 18V12.935H59.8904C60.0171 12.935 60.0954 12.9967 60.1254 13.12L60.1904 13.64C60.3771 13.41 60.5871 13.2217 60.8204 13.075C61.0537 12.9283 61.3237 12.855 61.6304 12.855C61.9704 12.855 62.2454 12.95 62.4554 13.14C62.6687 13.33 62.8221 13.5867 62.9154 13.91C62.9887 13.7267 63.0821 13.5683 63.1954 13.435C63.3121 13.3017 63.4421 13.1917 63.5854 13.105C63.7287 13.0183 63.8804 12.955 64.0404 12.915C64.2037 12.875 64.3687 12.855 64.5354 12.855C64.8021 12.855 65.0387 12.8983 65.2454 12.985C65.4554 13.0683 65.6321 13.1917 65.7754 13.355C65.9221 13.5183 66.0337 13.72 66.1104 13.96C66.1871 14.1967 66.2254 14.4683 66.2254 14.775V18H65.3304V14.775C65.3304 14.3783 65.2437 14.0783 65.0704 13.875C64.8971 13.6683 64.6471 13.565 64.3204 13.565C64.1737 13.565 64.0337 13.5917 63.9004 13.645C63.7704 13.695 63.6554 13.77 63.5554 13.87C63.4554 13.97 63.3754 14.0967 63.3154 14.25C63.2587 14.4 63.2304 14.575 63.2304 14.775V18H62.3354V14.775C62.3354 14.3683 62.2537 14.065 62.0904 13.865C61.9271 13.665 61.6887 13.565 61.3754 13.565C61.1554 13.565 60.9521 13.625 60.7654 13.745C60.5787 13.8617 60.4071 14.0217 60.2504 14.225V18H59.3554Z" fill="white"/>
</svg>
