<svg width="186" height="128" viewBox="0 0 186 128" fill="none" xmlns="http://www.w3.org/2000/svg">
    <path d="M40.362 68.44L49.818 54.472C50.922 52.84 51.498 50.968 51.498 49.096C51.498 46.216 50.106 43.336 47.514 41.464C45.93 40.36 44.106 39.784 42.33 39.784C39.546 39.784 36.618 41.224 34.842 43.816L27.162 55L19.434 43.816C17.658 41.176 14.778 39.784 11.946 39.784C10.122 39.784 8.298 40.36 6.714 41.464C4.17 43.336 2.826 46.168 2.826 49.096C2.826 51.016 3.354 52.888 4.41 54.472L13.914 68.44L4.41 82.408C3.354 83.992 2.826 85.864 2.826 87.736C2.826 90.664 4.122 93.592 6.714 95.416C8.25 96.52 10.122 97.048 11.946 97.048C14.778 97.048 17.658 95.56 19.434 93.016L27.162 81.784L34.842 93.016C36.666 95.56 39.546 97.048 42.33 97.048C44.154 97.048 45.978 96.472 47.514 95.416C50.106 93.544 51.498 90.664 51.498 87.736C51.498 85.912 50.922 84.04 49.818 82.408L40.362 68.44ZM2.73 58.744L1.626 53.224C1.146 51.928 0.906 50.536 0.906 49.096C0.906 45.544 2.49 42.184 5.562 39.928C7.53 38.536 9.69 37.864 11.946 37.864C15.45 37.864 18.858 39.544 20.97 42.712C22.986 45.736 25.098 48.616 27.162 51.64C29.178 48.664 31.29 45.688 33.306 42.712C35.466 39.64 38.97 37.864 42.33 37.864C44.49 37.864 46.65 38.536 48.618 39.928C51.594 42.088 53.274 45.352 53.418 48.616L54.522 54.184C54.666 54.856 54.714 55.576 54.714 56.296C54.714 58.552 54.042 60.76 52.746 62.68L45.738 73L51.402 81.304C52.65 83.176 53.322 85.24 53.418 87.352L54.522 92.776C54.666 93.496 54.714 94.216 54.714 94.936C54.714 98.44 53.034 101.848 49.962 104.056C48.09 105.352 45.882 106.024 43.77 106.024C40.41 106.024 36.906 104.344 34.794 101.272L28.602 92.2C26.49 95.224 24.378 98.2 22.314 101.224C20.202 104.248 16.794 106.024 13.386 106.024C11.226 106.024 8.97 105.4 7.098 104.056C4.698 102.376 3.258 99.88 2.73 97.192L1.674 91.912C1.194 90.616 0.906 89.176 0.906 87.736C0.906 85.432 1.53 83.176 2.826 81.304L9.978 70.888L4.362 62.68C3.546 61.48 3.018 60.136 2.73 58.744Z" fill="#00D8FA"/>
    <path d="M59.2947 83.672L58.7667 81.008C58.5267 80.336 58.3827 79.664 58.3827 78.872C58.3827 77.024 59.3187 75.176 60.8787 74.096C60.4947 73.352 60.2307 72.56 60.0627 71.72L59.5587 69.272C59.2467 68.336 59.1027 67.328 59.1027 66.32C59.1027 60.728 64.5747 55.784 70.5267 55.784C72.8547 55.784 74.9667 56.36 76.7667 57.392C78.7347 58.52 81.5427 60.968 81.6147 63.944L82.1667 66.704C82.2387 67.016 82.2627 67.352 82.2627 67.664C82.2627 69.08 81.7107 70.448 80.7987 71.48C81.7587 72.872 82.2867 74.408 82.4307 76.088L82.9107 78.512C83.0307 79.136 83.1027 79.784 83.1027 80.456C83.1027 86.888 77.2227 91.136 71.0547 91.136C63.9027 91.136 60.2307 85.952 59.8707 85.304C59.6067 84.776 59.4147 84.248 59.2947 83.672ZM77.6787 69.608C77.2467 69.296 76.7907 69.056 76.3347 68.816C78.8307 68.696 80.6547 66.44 80.6547 64.064C80.6547 61.496 78.1107 59.24 76.3107 58.232C74.6067 57.248 72.6627 56.744 70.5267 56.744C65.0787 56.744 60.0627 61.256 60.0627 66.32C60.0627 69.92 62.2227 72.32 64.9827 74.336C64.5987 74.24 64.2387 74.168 63.8547 74.168C61.1427 74.168 59.3427 76.52 59.3427 78.872C59.3427 79.76 59.5827 80.504 59.9427 81.2C60.3027 81.872 63.6627 86.648 70.3347 86.648C76.0467 86.648 81.4947 82.76 81.4947 76.856C81.4947 73.976 80.2467 71.456 77.6787 69.608ZM69.3747 77.216C67.9107 76.88 67.2147 75.92 66.8547 75.344C67.7427 75.776 68.6787 76.184 69.5187 76.52C70.1907 76.808 71.9907 77.192 72.3987 77.264C72.1107 77.36 71.6547 77.432 71.1507 77.432C70.5987 77.432 69.9507 77.36 69.3747 77.216ZM72.8067 67.304L72.1587 67.064C71.1747 66.704 69.9267 66.344 69.5907 66.248C69.7347 66.032 70.0947 65.816 70.4307 65.816C71.6547 65.816 72.4947 66.848 72.8067 67.304ZM89.3524 86.024L88.8244 83.432C88.5604 82.784 88.4404 82.064 88.4404 81.32V71.24H87.1684C84.5764 71.24 82.3924 69.32 81.8884 66.776L81.3604 64.184C81.1204 63.536 80.9764 62.816 80.9764 62.072C80.9764 58.976 83.4484 56.456 86.4484 56.456H101.448C104.424 56.456 106.872 58.904 106.944 61.928L107.472 64.568C107.544 64.928 107.592 65.288 107.592 65.672C107.592 68.744 105.144 71.24 102.168 71.24H100.104V84.92C100.104 87.992 97.6564 90.488 94.6804 90.488C92.0404 90.488 89.8564 88.568 89.3524 86.024ZM101.448 57.416H86.4484C83.9764 57.416 81.9364 59.504 81.9364 62.072C81.9364 64.664 83.9764 66.752 86.4484 66.752H89.4004V81.32C89.4004 83.912 91.4404 86 93.9604 86C96.4564 86 98.4964 83.912 98.4964 81.32V66.752H101.448C103.944 66.752 105.984 64.664 105.984 62.072C105.984 59.504 103.944 57.416 101.448 57.416ZM120.091 66.344C122.107 66.344 123.811 68.816 123.811 71.696C123.811 74.792 122.011 77.072 120.091 77.072C117.979 77.072 116.347 74.528 116.347 71.696C116.347 68.6 118.147 66.344 120.091 66.344ZM120.091 86.456C127.699 86.456 133.027 79.28 133.027 71.696C133.027 63.704 127.195 56.936 120.091 56.936C112.339 56.936 107.155 64.184 107.155 71.696C107.155 79.688 112.867 86.456 120.091 86.456ZM107.323 78.728L106.891 76.616L106.867 76.544C106.435 75.008 106.195 73.376 106.195 71.696C106.195 63.68 111.763 55.976 120.091 55.976C127.171 55.976 133.075 62.168 133.891 69.872L134.299 71.936C134.515 73.016 134.635 74.144 134.635 75.296C134.635 83.336 128.947 90.944 120.811 90.944C114.139 90.944 108.691 85.616 107.323 78.728ZM120.811 70.832C119.467 70.832 118.219 72.368 117.979 74.576C118.483 75.512 119.227 76.112 120.091 76.112C121.411 76.112 122.659 74.48 122.827 72.2C122.299 71.36 121.579 70.832 120.811 70.832ZM147.841 86.288C152.089 86.288 155.833 83.96 158.329 80.216C158.809 79.496 159.073 78.56 159.073 77.672C159.073 75.296 157.249 73.016 154.537 73.016C153.097 73.016 151.585 73.712 150.697 75.104C150.001 76.232 148.945 76.928 147.841 76.928C145.753 76.928 144.001 74.504 144.001 71.624C144.001 68.504 145.873 66.296 147.841 66.296C148.873 66.296 149.833 66.872 150.529 67.856C151.417 69.08 152.761 69.728 154.153 69.728C156.793 69.728 158.713 67.424 158.713 65C158.713 64.016 158.401 63.08 157.777 62.216C155.329 58.856 151.729 56.936 147.841 56.936C140.185 56.936 134.905 64.184 134.905 71.624C134.905 80.168 141.121 86.288 147.841 86.288ZM135.097 78.896L134.617 76.496C134.209 74.984 133.945 73.352 133.945 71.624C133.945 63.68 139.609 55.976 147.841 55.976C152.041 55.976 155.929 58.016 158.545 61.64C159.265 62.624 159.625 63.656 159.673 64.784L160.225 67.496C160.297 67.856 160.321 68.216 160.321 68.576C160.321 70.424 159.385 72.152 157.897 73.232C159.217 74.288 160.009 75.92 160.033 77.6V77.672L160.585 80.336C160.657 80.696 160.705 81.08 160.705 81.44C160.705 82.52 160.393 83.648 159.817 84.488C157.177 88.472 153.169 90.944 148.585 90.944C142.369 90.944 136.537 86.096 135.097 78.896ZM148.561 70.76C147.193 70.76 145.897 72.224 145.633 74.408C146.161 75.368 146.977 75.968 147.841 75.968C148.585 75.968 149.353 75.44 149.881 74.6C150.313 73.928 150.841 73.4 151.465 72.992C151.129 72.68 150.793 72.344 150.529 71.96C150.001 71.192 149.305 70.76 148.561 70.76ZM165.527 56.456C168.431 56.456 170.855 58.832 170.999 61.784L175.679 57.776C176.711 56.912 177.959 56.456 179.207 56.456C180.743 56.456 182.279 57.176 183.383 58.496C184.223 59.528 184.655 60.728 184.703 61.952L185.255 64.616C185.327 64.976 185.351 65.336 185.351 65.696C185.351 67.304 184.655 68.888 183.383 69.968L180.215 72.704L184.127 77.888C184.871 78.896 185.279 80.048 185.303 81.2L185.327 81.344L185.855 83.864C185.927 84.224 185.951 84.56 185.951 84.92C185.951 86.552 185.255 88.256 183.887 89.336C182.927 90.104 181.655 90.512 180.527 90.512C178.895 90.512 177.287 89.768 176.207 88.304C174.239 85.664 173.687 85.064 171.671 82.376V84.92C171.671 87.968 169.223 90.488 166.247 90.488C163.631 90.488 161.471 88.544 160.967 86.024L160.919 85.784L160.439 83.408C160.175 82.76 160.055 82.064 160.055 81.32V62.096C160.055 59 162.503 56.456 165.527 56.456ZM170.063 63.848V62.096C170.063 59.528 168.023 57.416 165.527 57.416C163.031 57.416 161.015 59.528 161.015 62.096V81.32C161.015 83.888 163.031 86 165.527 86C168.023 86 170.063 83.888 170.063 81.32V76.136L176.231 84.224C177.119 85.4 178.463 86.024 179.807 86.024C180.743 86.024 181.823 85.664 182.615 85.04C183.743 84.152 184.343 82.712 184.343 81.32C184.343 80.312 184.007 79.304 183.383 78.464C181.247 75.68 179.135 72.896 177.023 70.088L182.063 65.72C183.167 64.784 183.743 63.464 183.743 62.096C183.743 61.04 183.383 59.984 182.663 59.096C181.751 58.016 180.479 57.416 179.207 57.416C178.175 57.416 177.143 57.776 176.303 58.496L170.063 63.848Z" fill="white"/>
    <path d="M11.335 122.21L11.33 123H6.915V115.835H11.33V116.625H7.885V119.005H10.675V119.765H7.885V122.21H11.335ZM12.5916 123V118.695L12.0316 118.63C11.9616 118.613 11.9033 118.588 11.8566 118.555C11.8133 118.518 11.7916 118.467 11.7916 118.4V118.035H12.5916V117.62C12.5916 117.33 12.6316 117.073 12.7116 116.85C12.795 116.623 12.9116 116.433 13.0616 116.28C13.215 116.123 13.3983 116.005 13.6116 115.925C13.825 115.845 14.065 115.805 14.3316 115.805C14.5583 115.805 14.7666 115.838 14.9566 115.905L14.9366 116.355C14.93 116.435 14.885 116.478 14.8016 116.485C14.7216 116.492 14.6133 116.495 14.4766 116.495C14.3233 116.495 14.1833 116.515 14.0566 116.555C13.9333 116.592 13.8266 116.655 13.7366 116.745C13.6466 116.835 13.5766 116.955 13.5266 117.105C13.48 117.252 13.4566 117.433 13.4566 117.65V118.035H15.7416V117.49C15.7416 117.2 15.7816 116.943 15.8616 116.72C15.945 116.493 16.0616 116.303 16.2116 116.15C16.365 115.993 16.5483 115.875 16.7616 115.795C16.975 115.715 17.215 115.675 17.4816 115.675C17.705 115.675 17.9133 115.708 18.1066 115.775L18.0866 116.22C18.08 116.3 18.035 116.343 17.9516 116.35C17.8716 116.357 17.7633 116.36 17.6266 116.36C17.4733 116.36 17.3333 116.38 17.2066 116.42C17.0833 116.46 16.9766 116.525 16.8866 116.615C16.7966 116.705 16.7266 116.823 16.6766 116.97C16.63 117.117 16.6066 117.298 16.6066 117.515V118.035H18.0666V118.68H16.6366V123H15.7416V118.68H13.4866V123H12.5916ZM20.881 117.855C21.251 117.855 21.5843 117.917 21.881 118.04C22.1777 118.163 22.431 118.338 22.641 118.565C22.851 118.792 23.011 119.067 23.121 119.39C23.2343 119.71 23.291 120.068 23.291 120.465C23.291 120.865 23.2343 121.225 23.121 121.545C23.011 121.865 22.851 122.138 22.641 122.365C22.431 122.592 22.1777 122.767 21.881 122.89C21.5843 123.01 21.251 123.07 20.881 123.07C20.5077 123.07 20.171 123.01 19.871 122.89C19.5743 122.767 19.321 122.592 19.111 122.365C18.901 122.138 18.7393 121.865 18.626 121.545C18.516 121.225 18.461 120.865 18.461 120.465C18.461 120.068 18.516 119.71 18.626 119.39C18.7393 119.067 18.901 118.792 19.111 118.565C19.321 118.338 19.5743 118.163 19.871 118.04C20.171 117.917 20.5077 117.855 20.881 117.855ZM20.881 122.375C21.381 122.375 21.7543 122.208 22.001 121.875C22.2477 121.538 22.371 121.07 22.371 120.47C22.371 119.867 22.2477 119.397 22.001 119.06C21.7543 118.723 21.381 118.555 20.881 118.555C20.6277 118.555 20.406 118.598 20.216 118.685C20.0293 118.772 19.8727 118.897 19.746 119.06C19.6227 119.223 19.5293 119.425 19.466 119.665C19.406 119.902 19.376 120.17 19.376 120.47C19.376 121.07 19.4993 121.538 19.746 121.875C19.996 122.208 20.3743 122.375 20.881 122.375ZM25.2648 118.95C25.4248 118.603 25.6215 118.333 25.8548 118.14C26.0882 117.943 26.3732 117.845 26.7098 117.845C26.8165 117.845 26.9182 117.857 27.0148 117.88C27.1148 117.903 27.2032 117.94 27.2798 117.99L27.2148 118.655C27.1948 118.738 27.1448 118.78 27.0648 118.78C27.0182 118.78 26.9498 118.77 26.8598 118.75C26.7698 118.73 26.6682 118.72 26.5548 118.72C26.3948 118.72 26.2515 118.743 26.1248 118.79C26.0015 118.837 25.8898 118.907 25.7898 119C25.6932 119.09 25.6048 119.203 25.5248 119.34C25.4482 119.473 25.3782 119.627 25.3148 119.8V123H24.4198V117.935H24.9298C25.0265 117.935 25.0932 117.953 25.1298 117.99C25.1665 118.027 25.1915 118.09 25.2048 118.18L25.2648 118.95ZM29.6174 123.08C29.2174 123.08 28.9091 122.968 28.6924 122.745C28.4791 122.522 28.3724 122.2 28.3724 121.78V118.68H27.7624C27.7091 118.68 27.6641 118.665 27.6274 118.635C27.5908 118.602 27.5724 118.552 27.5724 118.485V118.13L28.4024 118.025L28.6074 116.46C28.6174 116.41 28.6391 116.37 28.6724 116.34C28.7091 116.307 28.7558 116.29 28.8124 116.29H29.2624V118.035H30.7274V118.68H29.2624V121.72C29.2624 121.933 29.3141 122.092 29.4174 122.195C29.5208 122.298 29.6541 122.35 29.8174 122.35C29.9108 122.35 29.9908 122.338 30.0574 122.315C30.1274 122.288 30.1874 122.26 30.2374 122.23C30.2874 122.2 30.3291 122.173 30.3624 122.15C30.3991 122.123 30.4308 122.11 30.4574 122.11C30.5041 122.11 30.5458 122.138 30.5824 122.195L30.8424 122.62C30.6891 122.763 30.5041 122.877 30.2874 122.96C30.0708 123.04 29.8474 123.08 29.6174 123.08ZM32.5664 115.635V123H31.6764V115.635H32.5664ZM37.3997 119.915C37.3997 119.708 37.3697 119.52 37.3097 119.35C37.253 119.177 37.168 119.028 37.0547 118.905C36.9447 118.778 36.8097 118.682 36.6497 118.615C36.4897 118.545 36.308 118.51 36.1047 118.51C35.678 118.51 35.3397 118.635 35.0897 118.885C34.843 119.132 34.6897 119.475 34.6297 119.915H37.3997ZM38.1197 122.29C38.0097 122.423 37.878 122.54 37.7247 122.64C37.5714 122.737 37.4064 122.817 37.2297 122.88C37.0564 122.943 36.8764 122.99 36.6897 123.02C36.503 123.053 36.318 123.07 36.1347 123.07C35.7847 123.07 35.4614 123.012 35.1647 122.895C34.8714 122.775 34.6164 122.602 34.3997 122.375C34.1864 122.145 34.0197 121.862 33.8997 121.525C33.7797 121.188 33.7197 120.802 33.7197 120.365C33.7197 120.012 33.773 119.682 33.8797 119.375C33.9897 119.068 34.1464 118.803 34.3497 118.58C34.553 118.353 34.8014 118.177 35.0947 118.05C35.388 117.92 35.718 117.855 36.0847 117.855C36.388 117.855 36.668 117.907 36.9247 118.01C37.1847 118.11 37.408 118.257 37.5947 118.45C37.7847 118.64 37.933 118.877 38.0397 119.16C38.1464 119.44 38.1997 119.76 38.1997 120.12C38.1997 120.26 38.1847 120.353 38.1547 120.4C38.1247 120.447 38.068 120.47 37.9847 120.47H34.5997C34.6097 120.79 34.653 121.068 34.7297 121.305C34.8097 121.542 34.9197 121.74 35.0597 121.9C35.1997 122.057 35.3664 122.175 35.5597 122.255C35.753 122.332 35.9697 122.37 36.2097 122.37C36.433 122.37 36.6247 122.345 36.7847 122.295C36.948 122.242 37.088 122.185 37.2047 122.125C37.3214 122.065 37.418 122.01 37.4947 121.96C37.5747 121.907 37.643 121.88 37.6997 121.88C37.773 121.88 37.8297 121.908 37.8697 121.965L38.1197 122.29ZM42.2429 118.77C42.2029 118.843 42.1412 118.88 42.0579 118.88C42.0079 118.88 41.9512 118.862 41.8879 118.825C41.8246 118.788 41.7462 118.748 41.6529 118.705C41.5629 118.658 41.4546 118.617 41.3279 118.58C41.2012 118.54 41.0512 118.52 40.8779 118.52C40.7279 118.52 40.5929 118.54 40.4729 118.58C40.3529 118.617 40.2496 118.668 40.1629 118.735C40.0796 118.802 40.0146 118.88 39.9679 118.97C39.9246 119.057 39.9029 119.152 39.9029 119.255C39.9029 119.385 39.9396 119.493 40.0129 119.58C40.0896 119.667 40.1896 119.742 40.3129 119.805C40.4362 119.868 40.5762 119.925 40.7329 119.975C40.8896 120.022 41.0496 120.073 41.2129 120.13C41.3796 120.183 41.5412 120.243 41.6979 120.31C41.8546 120.377 41.9946 120.46 42.1179 120.56C42.2412 120.66 42.3396 120.783 42.4129 120.93C42.4896 121.073 42.5279 121.247 42.5279 121.45C42.5279 121.683 42.4862 121.9 42.4029 122.1C42.3196 122.297 42.1962 122.468 42.0329 122.615C41.8696 122.758 41.6696 122.872 41.4329 122.955C41.1962 123.038 40.9229 123.08 40.6129 123.08C40.2596 123.08 39.9396 123.023 39.6529 122.91C39.3662 122.793 39.1229 122.645 38.9229 122.465L39.1329 122.125C39.1596 122.082 39.1912 122.048 39.2279 122.025C39.2646 122.002 39.3112 121.99 39.3679 121.99C39.4279 121.99 39.4912 122.013 39.5579 122.06C39.6246 122.107 39.7046 122.158 39.7979 122.215C39.8946 122.272 40.0112 122.323 40.1479 122.37C40.2846 122.417 40.4546 122.44 40.6579 122.44C40.8312 122.44 40.9829 122.418 41.1129 122.375C41.2429 122.328 41.3512 122.267 41.4379 122.19C41.5246 122.113 41.5879 122.025 41.6279 121.925C41.6712 121.825 41.6929 121.718 41.6929 121.605C41.6929 121.465 41.6546 121.35 41.5779 121.26C41.5046 121.167 41.4062 121.088 41.2829 121.025C41.1596 120.958 41.0179 120.902 40.8579 120.855C40.7012 120.805 40.5396 120.753 40.3729 120.7C40.2096 120.647 40.0479 120.587 39.8879 120.52C39.7312 120.45 39.5912 120.363 39.4679 120.26C39.3446 120.157 39.2446 120.03 39.1679 119.88C39.0946 119.727 39.0579 119.542 39.0579 119.325C39.0579 119.132 39.0979 118.947 39.1779 118.77C39.2579 118.59 39.3746 118.433 39.5279 118.3C39.6812 118.163 39.8696 118.055 40.0929 117.975C40.3162 117.895 40.5712 117.855 40.8579 117.855C41.1912 117.855 41.4896 117.908 41.7529 118.015C42.0196 118.118 42.2496 118.262 42.4429 118.445L42.2429 118.77ZM46.5691 118.77C46.5291 118.843 46.4674 118.88 46.3841 118.88C46.3341 118.88 46.2774 118.862 46.2141 118.825C46.1507 118.788 46.0724 118.748 45.9791 118.705C45.8891 118.658 45.7807 118.617 45.6541 118.58C45.5274 118.54 45.3774 118.52 45.2041 118.52C45.0541 118.52 44.9191 118.54 44.7991 118.58C44.6791 118.617 44.5757 118.668 44.4891 118.735C44.4057 118.802 44.3407 118.88 44.2941 118.97C44.2507 119.057 44.2291 119.152 44.2291 119.255C44.2291 119.385 44.2657 119.493 44.3391 119.58C44.4157 119.667 44.5157 119.742 44.6391 119.805C44.7624 119.868 44.9024 119.925 45.0591 119.975C45.2157 120.022 45.3757 120.073 45.5391 120.13C45.7057 120.183 45.8674 120.243 46.0241 120.31C46.1807 120.377 46.3207 120.46 46.4441 120.56C46.5674 120.66 46.6657 120.783 46.7391 120.93C46.8157 121.073 46.8541 121.247 46.8541 121.45C46.8541 121.683 46.8124 121.9 46.7291 122.1C46.6457 122.297 46.5224 122.468 46.3591 122.615C46.1957 122.758 45.9957 122.872 45.7591 122.955C45.5224 123.038 45.2491 123.08 44.9391 123.08C44.5857 123.08 44.2657 123.023 43.9791 122.91C43.6924 122.793 43.4491 122.645 43.2491 122.465L43.4591 122.125C43.4857 122.082 43.5174 122.048 43.5541 122.025C43.5907 122.002 43.6374 121.99 43.6941 121.99C43.7541 121.99 43.8174 122.013 43.8841 122.06C43.9507 122.107 44.0307 122.158 44.1241 122.215C44.2207 122.272 44.3374 122.323 44.4741 122.37C44.6107 122.417 44.7807 122.44 44.9841 122.44C45.1574 122.44 45.3091 122.418 45.4391 122.375C45.5691 122.328 45.6774 122.267 45.7641 122.19C45.8507 122.113 45.9141 122.025 45.9541 121.925C45.9974 121.825 46.0191 121.718 46.0191 121.605C46.0191 121.465 45.9807 121.35 45.9041 121.26C45.8307 121.167 45.7324 121.088 45.6091 121.025C45.4857 120.958 45.3441 120.902 45.1841 120.855C45.0274 120.805 44.8657 120.753 44.6991 120.7C44.5357 120.647 44.3741 120.587 44.2141 120.52C44.0574 120.45 43.9174 120.363 43.7941 120.26C43.6707 120.157 43.5707 120.03 43.4941 119.88C43.4207 119.727 43.3841 119.542 43.3841 119.325C43.3841 119.132 43.4241 118.947 43.5041 118.77C43.5841 118.59 43.7007 118.433 43.8541 118.3C44.0074 118.163 44.1957 118.055 44.4191 117.975C44.6424 117.895 44.8974 117.855 45.1841 117.855C45.5174 117.855 45.8157 117.908 46.0791 118.015C46.3457 118.118 46.5757 118.262 46.7691 118.445L46.5691 118.77ZM53.4538 118.77C53.4138 118.843 53.3522 118.88 53.2688 118.88C53.2188 118.88 53.1622 118.862 53.0988 118.825C53.0355 118.788 52.9572 118.748 52.8638 118.705C52.7738 118.658 52.6655 118.617 52.5388 118.58C52.4122 118.54 52.2622 118.52 52.0888 118.52C51.9388 118.52 51.8038 118.54 51.6838 118.58C51.5638 118.617 51.4605 118.668 51.3738 118.735C51.2905 118.802 51.2255 118.88 51.1788 118.97C51.1355 119.057 51.1138 119.152 51.1138 119.255C51.1138 119.385 51.1505 119.493 51.2238 119.58C51.3005 119.667 51.4005 119.742 51.5238 119.805C51.6472 119.868 51.7872 119.925 51.9438 119.975C52.1005 120.022 52.2605 120.073 52.4238 120.13C52.5905 120.183 52.7522 120.243 52.9088 120.31C53.0655 120.377 53.2055 120.46 53.3288 120.56C53.4522 120.66 53.5505 120.783 53.6238 120.93C53.7005 121.073 53.7388 121.247 53.7388 121.45C53.7388 121.683 53.6972 121.9 53.6138 122.1C53.5305 122.297 53.4072 122.468 53.2438 122.615C53.0805 122.758 52.8805 122.872 52.6438 122.955C52.4072 123.038 52.1338 123.08 51.8238 123.08C51.4705 123.08 51.1505 123.023 50.8638 122.91C50.5772 122.793 50.3338 122.645 50.1338 122.465L50.3438 122.125C50.3705 122.082 50.4022 122.048 50.4388 122.025C50.4755 122.002 50.5222 121.99 50.5788 121.99C50.6388 121.99 50.7022 122.013 50.7688 122.06C50.8355 122.107 50.9155 122.158 51.0088 122.215C51.1055 122.272 51.2222 122.323 51.3588 122.37C51.4955 122.417 51.6655 122.44 51.8688 122.44C52.0422 122.44 52.1938 122.418 52.3238 122.375C52.4538 122.328 52.5622 122.267 52.6488 122.19C52.7355 122.113 52.7988 122.025 52.8388 121.925C52.8822 121.825 52.9038 121.718 52.9038 121.605C52.9038 121.465 52.8655 121.35 52.7888 121.26C52.7155 121.167 52.6172 121.088 52.4938 121.025C52.3705 120.958 52.2288 120.902 52.0688 120.855C51.9122 120.805 51.7505 120.753 51.5838 120.7C51.4205 120.647 51.2588 120.587 51.0988 120.52C50.9422 120.45 50.8022 120.363 50.6788 120.26C50.5555 120.157 50.4555 120.03 50.3788 119.88C50.3055 119.727 50.2688 119.542 50.2688 119.325C50.2688 119.132 50.3088 118.947 50.3888 118.77C50.4688 118.59 50.5855 118.433 50.7388 118.3C50.8922 118.163 51.0805 118.055 51.3038 117.975C51.5272 117.895 51.7822 117.855 52.0688 117.855C52.4022 117.855 52.7005 117.908 52.9638 118.015C53.2305 118.118 53.4605 118.262 53.6538 118.445L53.4538 118.77ZM56.385 123.08C55.985 123.08 55.6767 122.968 55.46 122.745C55.2467 122.522 55.14 122.2 55.14 121.78V118.68H54.53C54.4767 118.68 54.4317 118.665 54.395 118.635C54.3583 118.602 54.34 118.552 54.34 118.485V118.13L55.17 118.025L55.375 116.46C55.385 116.41 55.4067 116.37 55.44 116.34C55.4767 116.307 55.5233 116.29 55.58 116.29H56.03V118.035H57.495V118.68H56.03V121.72C56.03 121.933 56.0817 122.092 56.185 122.195C56.2883 122.298 56.4217 122.35 56.585 122.35C56.6783 122.35 56.7583 122.338 56.825 122.315C56.895 122.288 56.955 122.26 57.005 122.23C57.055 122.2 57.0967 122.173 57.13 122.15C57.1667 122.123 57.1983 122.11 57.225 122.11C57.2717 122.11 57.3133 122.138 57.35 122.195L57.61 122.62C57.4567 122.763 57.2717 122.877 57.055 122.96C56.8383 123.04 56.615 123.08 56.385 123.08ZM60.5197 117.855C60.8897 117.855 61.223 117.917 61.5197 118.04C61.8164 118.163 62.0697 118.338 62.2797 118.565C62.4897 118.792 62.6497 119.067 62.7597 119.39C62.873 119.71 62.9297 120.068 62.9297 120.465C62.9297 120.865 62.873 121.225 62.7597 121.545C62.6497 121.865 62.4897 122.138 62.2797 122.365C62.0697 122.592 61.8164 122.767 61.5197 122.89C61.223 123.01 60.8897 123.07 60.5197 123.07C60.1464 123.07 59.8097 123.01 59.5097 122.89C59.213 122.767 58.9597 122.592 58.7497 122.365C58.5397 122.138 58.378 121.865 58.2647 121.545C58.1547 121.225 58.0997 120.865 58.0997 120.465C58.0997 120.068 58.1547 119.71 58.2647 119.39C58.378 119.067 58.5397 118.792 58.7497 118.565C58.9597 118.338 59.213 118.163 59.5097 118.04C59.8097 117.917 60.1464 117.855 60.5197 117.855ZM60.5197 122.375C61.0197 122.375 61.393 122.208 61.6397 121.875C61.8864 121.538 62.0097 121.07 62.0097 120.47C62.0097 119.867 61.8864 119.397 61.6397 119.06C61.393 118.723 61.0197 118.555 60.5197 118.555C60.2664 118.555 60.0447 118.598 59.8547 118.685C59.668 118.772 59.5114 118.897 59.3847 119.06C59.2614 119.223 59.168 119.425 59.1047 119.665C59.0447 119.902 59.0147 120.17 59.0147 120.47C59.0147 121.07 59.138 121.538 59.3847 121.875C59.6347 122.208 60.013 122.375 60.5197 122.375ZM67.5835 118.835C67.5568 118.872 67.5302 118.9 67.5035 118.92C67.4768 118.94 67.4402 118.95 67.3935 118.95C67.3435 118.95 67.2885 118.93 67.2285 118.89C67.1685 118.847 67.0935 118.8 67.0035 118.75C66.9168 118.7 66.8085 118.655 66.6785 118.615C66.5518 118.572 66.3952 118.55 66.2085 118.55C65.9585 118.55 65.7385 118.595 65.5485 118.685C65.3585 118.772 65.1985 118.898 65.0685 119.065C64.9418 119.232 64.8452 119.433 64.7785 119.67C64.7152 119.907 64.6835 120.172 64.6835 120.465C64.6835 120.772 64.7185 121.045 64.7885 121.285C64.8585 121.522 64.9568 121.722 65.0835 121.885C65.2135 122.045 65.3685 122.168 65.5485 122.255C65.7318 122.338 65.9368 122.38 66.1635 122.38C66.3802 122.38 66.5585 122.355 66.6985 122.305C66.8385 122.252 66.9535 122.193 67.0435 122.13C67.1368 122.067 67.2135 122.01 67.2735 121.96C67.3368 121.907 67.3985 121.88 67.4585 121.88C67.5318 121.88 67.5885 121.908 67.6285 121.965L67.8785 122.29C67.7685 122.427 67.6435 122.543 67.5035 122.64C67.3635 122.737 67.2118 122.818 67.0485 122.885C66.8885 122.948 66.7202 122.995 66.5435 123.025C66.3668 123.055 66.1868 123.07 66.0035 123.07C65.6868 123.07 65.3918 123.012 65.1185 122.895C64.8485 122.778 64.6135 122.61 64.4135 122.39C64.2135 122.167 64.0568 121.893 63.9435 121.57C63.8302 121.247 63.7735 120.878 63.7735 120.465C63.7735 120.088 63.8252 119.74 63.9285 119.42C64.0352 119.1 64.1885 118.825 64.3885 118.595C64.5918 118.362 64.8402 118.18 65.1335 118.05C65.4302 117.92 65.7702 117.855 66.1535 117.855C66.5102 117.855 66.8235 117.913 67.0935 118.03C67.3668 118.143 67.6085 118.305 67.8185 118.515L67.5835 118.835ZM69.7289 115.635V119.97H69.9589C70.0256 119.97 70.0806 119.962 70.1239 119.945C70.1706 119.925 70.2189 119.887 70.2689 119.83L71.8689 118.115C71.9156 118.058 71.9639 118.015 72.0139 117.985C72.0672 117.952 72.1372 117.935 72.2239 117.935H73.0289L71.1639 119.92C71.0739 120.033 70.9772 120.122 70.8739 120.185C70.9339 120.225 70.9872 120.272 71.0339 120.325C71.0839 120.375 71.1306 120.433 71.1739 120.5L73.1539 123H72.3589C72.2822 123 72.2156 122.988 72.1589 122.965C72.1056 122.938 72.0589 122.892 72.0189 122.825L70.3539 120.75C70.3039 120.68 70.2539 120.635 70.2039 120.615C70.1572 120.592 70.0839 120.58 69.9839 120.58H69.7289V123H68.8339V115.635H69.7289ZM76.4706 123V117.935H77.0056C77.1323 117.935 77.2106 117.997 77.2406 118.12L77.3056 118.64C77.4923 118.41 77.7023 118.222 77.9356 118.075C78.169 117.928 78.439 117.855 78.7456 117.855C79.0856 117.855 79.3606 117.95 79.5706 118.14C79.784 118.33 79.9373 118.587 80.0306 118.91C80.104 118.727 80.1973 118.568 80.3106 118.435C80.4273 118.302 80.5573 118.192 80.7006 118.105C80.844 118.018 80.9956 117.955 81.1556 117.915C81.319 117.875 81.484 117.855 81.6506 117.855C81.9173 117.855 82.154 117.898 82.3606 117.985C82.5706 118.068 82.7473 118.192 82.8906 118.355C83.0373 118.518 83.149 118.72 83.2256 118.96C83.3023 119.197 83.3406 119.468 83.3406 119.775V123H82.4456V119.775C82.4456 119.378 82.359 119.078 82.1856 118.875C82.0123 118.668 81.7623 118.565 81.4356 118.565C81.289 118.565 81.149 118.592 81.0156 118.645C80.8856 118.695 80.7706 118.77 80.6706 118.87C80.5706 118.97 80.4906 119.097 80.4306 119.25C80.374 119.4 80.3456 119.575 80.3456 119.775V123H79.4506V119.775C79.4506 119.368 79.369 119.065 79.2056 118.865C79.0423 118.665 78.804 118.565 78.4906 118.565C78.2706 118.565 78.0673 118.625 77.8806 118.745C77.694 118.862 77.5223 119.022 77.3656 119.225V123H76.4706ZM87.4383 120.72C87.0283 120.733 86.6783 120.767 86.3883 120.82C86.1016 120.87 85.8666 120.937 85.6833 121.02C85.5033 121.103 85.3716 121.202 85.2883 121.315C85.2083 121.428 85.1683 121.555 85.1683 121.695C85.1683 121.828 85.1899 121.943 85.2333 122.04C85.2766 122.137 85.3349 122.217 85.4083 122.28C85.4849 122.34 85.5733 122.385 85.6733 122.415C85.7766 122.442 85.8866 122.455 86.0033 122.455C86.1599 122.455 86.3033 122.44 86.4333 122.41C86.5633 122.377 86.6849 122.33 86.7983 122.27C86.9149 122.21 87.0249 122.138 87.1283 122.055C87.2349 121.972 87.3383 121.877 87.4383 121.77V120.72ZM84.5633 118.65C84.8433 118.38 85.1449 118.178 85.4683 118.045C85.7916 117.912 86.1499 117.845 86.5433 117.845C86.8266 117.845 87.0783 117.892 87.2983 117.985C87.5183 118.078 87.7033 118.208 87.8533 118.375C88.0033 118.542 88.1166 118.743 88.1933 118.98C88.2699 119.217 88.3083 119.477 88.3083 119.76V123H87.9133C87.8266 123 87.7599 122.987 87.7133 122.96C87.6666 122.93 87.6299 122.873 87.6033 122.79L87.5033 122.31C87.3699 122.433 87.2399 122.543 87.1133 122.64C86.9866 122.733 86.8533 122.813 86.7133 122.88C86.5733 122.943 86.4233 122.992 86.2633 123.025C86.1066 123.062 85.9316 123.08 85.7383 123.08C85.5416 123.08 85.3566 123.053 85.1833 123C85.0099 122.943 84.8583 122.86 84.7283 122.75C84.6016 122.64 84.4999 122.502 84.4233 122.335C84.3499 122.165 84.3133 121.965 84.3133 121.735C84.3133 121.535 84.3683 121.343 84.4783 121.16C84.5883 120.973 84.7666 120.808 85.0133 120.665C85.2599 120.522 85.5816 120.405 85.9783 120.315C86.3749 120.222 86.8616 120.168 87.4383 120.155V119.76C87.4383 119.367 87.3533 119.07 87.1833 118.87C87.0133 118.667 86.7649 118.565 86.4383 118.565C86.2183 118.565 86.0333 118.593 85.8833 118.65C85.7366 118.703 85.6083 118.765 85.4983 118.835C85.3916 118.902 85.2983 118.963 85.2183 119.02C85.1416 119.073 85.0649 119.1 84.9883 119.1C84.9283 119.1 84.8766 119.085 84.8333 119.055C84.7899 119.022 84.7533 118.982 84.7233 118.935L84.5633 118.65ZM90.504 118.67C90.614 118.547 90.7307 118.435 90.854 118.335C90.9773 118.235 91.1073 118.15 91.244 118.08C91.384 118.007 91.5307 117.952 91.684 117.915C91.8407 117.875 92.009 117.855 92.189 117.855C92.4657 117.855 92.709 117.902 92.919 117.995C93.1323 118.085 93.309 118.215 93.449 118.385C93.5923 118.552 93.7007 118.753 93.774 118.99C93.8473 119.227 93.884 119.488 93.884 119.775V123H92.989V119.775C92.989 119.392 92.9007 119.095 92.724 118.885C92.5507 118.672 92.2857 118.565 91.929 118.565C91.6657 118.565 91.419 118.628 91.189 118.755C90.9623 118.882 90.7523 119.053 90.559 119.27V123H89.664V117.935H90.199C90.3257 117.935 90.404 117.997 90.434 118.12L90.504 118.67ZM97.9852 120.72C97.5752 120.733 97.2252 120.767 96.9352 120.82C96.6485 120.87 96.4135 120.937 96.2302 121.02C96.0502 121.103 95.9185 121.202 95.8352 121.315C95.7552 121.428 95.7152 121.555 95.7152 121.695C95.7152 121.828 95.7368 121.943 95.7802 122.04C95.8235 122.137 95.8818 122.217 95.9552 122.28C96.0318 122.34 96.1202 122.385 96.2202 122.415C96.3235 122.442 96.4335 122.455 96.5502 122.455C96.7068 122.455 96.8502 122.44 96.9802 122.41C97.1102 122.377 97.2318 122.33 97.3452 122.27C97.4618 122.21 97.5718 122.138 97.6752 122.055C97.7818 121.972 97.8852 121.877 97.9852 121.77V120.72ZM95.1102 118.65C95.3902 118.38 95.6918 118.178 96.0152 118.045C96.3385 117.912 96.6968 117.845 97.0902 117.845C97.3735 117.845 97.6252 117.892 97.8452 117.985C98.0652 118.078 98.2502 118.208 98.4002 118.375C98.5502 118.542 98.6635 118.743 98.7402 118.98C98.8168 119.217 98.8552 119.477 98.8552 119.76V123H98.4602C98.3735 123 98.3068 122.987 98.2602 122.96C98.2135 122.93 98.1768 122.873 98.1502 122.79L98.0502 122.31C97.9168 122.433 97.7868 122.543 97.6602 122.64C97.5335 122.733 97.4002 122.813 97.2602 122.88C97.1202 122.943 96.9702 122.992 96.8102 123.025C96.6535 123.062 96.4785 123.08 96.2852 123.08C96.0885 123.08 95.9035 123.053 95.7302 123C95.5568 122.943 95.4052 122.86 95.2752 122.75C95.1485 122.64 95.0468 122.502 94.9702 122.335C94.8968 122.165 94.8602 121.965 94.8602 121.735C94.8602 121.535 94.9152 121.343 95.0252 121.16C95.1352 120.973 95.3135 120.808 95.5602 120.665C95.8068 120.522 96.1285 120.405 96.5252 120.315C96.9218 120.222 97.4085 120.168 97.9852 120.155V119.76C97.9852 119.367 97.9002 119.07 97.7302 118.87C97.5602 118.667 97.3118 118.565 96.9852 118.565C96.7652 118.565 96.5802 118.593 96.4302 118.65C96.2835 118.703 96.1552 118.765 96.0452 118.835C95.9385 118.902 95.8452 118.963 95.7652 119.02C95.6885 119.073 95.6118 119.1 95.5352 119.1C95.4752 119.1 95.4235 119.085 95.3802 119.055C95.3368 119.022 95.3002 118.982 95.2702 118.935L95.1102 118.65ZM101.976 120.525C102.156 120.525 102.314 120.5 102.451 120.45C102.588 120.4 102.703 120.33 102.796 120.24C102.889 120.15 102.959 120.043 103.006 119.92C103.053 119.793 103.076 119.655 103.076 119.505C103.076 119.195 102.981 118.948 102.791 118.765C102.604 118.582 102.333 118.49 101.976 118.49C101.616 118.49 101.341 118.582 101.151 118.765C100.964 118.948 100.871 119.195 100.871 119.505C100.871 119.655 100.894 119.793 100.941 119.92C100.991 120.043 101.063 120.15 101.156 120.24C101.249 120.33 101.364 120.4 101.501 120.45C101.638 120.5 101.796 120.525 101.976 120.525ZM103.581 123.275C103.581 123.152 103.546 123.052 103.476 122.975C103.406 122.898 103.311 122.838 103.191 122.795C103.074 122.752 102.938 122.722 102.781 122.705C102.624 122.685 102.458 122.67 102.281 122.66C102.108 122.65 101.931 122.64 101.751 122.63C101.571 122.62 101.398 122.603 101.231 122.58C101.044 122.667 100.891 122.777 100.771 122.91C100.654 123.04 100.596 123.193 100.596 123.37C100.596 123.483 100.624 123.588 100.681 123.685C100.741 123.785 100.831 123.87 100.951 123.94C101.071 124.013 101.221 124.07 101.401 124.11C101.584 124.153 101.799 124.175 102.046 124.175C102.286 124.175 102.501 124.153 102.691 124.11C102.881 124.067 103.041 124.005 103.171 123.925C103.304 123.845 103.406 123.75 103.476 123.64C103.546 123.53 103.581 123.408 103.581 123.275ZM104.486 118.135V118.465C104.486 118.575 104.416 118.645 104.276 118.675L103.701 118.75C103.814 118.97 103.871 119.213 103.871 119.48C103.871 119.727 103.823 119.952 103.726 120.155C103.633 120.355 103.503 120.527 103.336 120.67C103.169 120.813 102.969 120.923 102.736 121C102.503 121.077 102.249 121.115 101.976 121.115C101.739 121.115 101.516 121.087 101.306 121.03C101.199 121.097 101.118 121.168 101.061 121.245C101.004 121.318 100.976 121.393 100.976 121.47C100.976 121.59 101.024 121.682 101.121 121.745C101.221 121.805 101.351 121.848 101.511 121.875C101.671 121.902 101.853 121.918 102.056 121.925C102.263 121.932 102.473 121.943 102.686 121.96C102.903 121.973 103.113 121.998 103.316 122.035C103.523 122.072 103.706 122.132 103.866 122.215C104.026 122.298 104.154 122.413 104.251 122.56C104.351 122.707 104.401 122.897 104.401 123.13C104.401 123.347 104.346 123.557 104.236 123.76C104.129 123.963 103.974 124.143 103.771 124.3C103.568 124.46 103.318 124.587 103.021 124.68C102.728 124.777 102.396 124.825 102.026 124.825C101.656 124.825 101.333 124.788 101.056 124.715C100.779 124.642 100.549 124.543 100.366 124.42C100.183 124.297 100.044 124.153 99.9509 123.99C99.8609 123.83 99.8159 123.662 99.8159 123.485C99.8159 123.235 99.8942 123.023 100.051 122.85C100.208 122.677 100.423 122.538 100.696 122.435C100.546 122.368 100.426 122.28 100.336 122.17C100.249 122.057 100.206 121.905 100.206 121.715C100.206 121.642 100.219 121.567 100.246 121.49C100.273 121.41 100.313 121.332 100.366 121.255C100.423 121.175 100.491 121.1 100.571 121.03C100.651 120.96 100.744 120.898 100.851 120.845C100.601 120.705 100.406 120.52 100.266 120.29C100.126 120.057 100.056 119.787 100.056 119.48C100.056 119.233 100.103 119.01 100.196 118.81C100.293 118.607 100.426 118.435 100.596 118.295C100.766 118.152 100.968 118.042 101.201 117.965C101.438 117.888 101.696 117.85 101.976 117.85C102.196 117.85 102.401 117.875 102.591 117.925C102.781 117.972 102.954 118.042 103.111 118.135H104.486ZM108.718 119.915C108.718 119.708 108.688 119.52 108.628 119.35C108.571 119.177 108.486 119.028 108.373 118.905C108.263 118.778 108.128 118.682 107.968 118.615C107.808 118.545 107.626 118.51 107.423 118.51C106.996 118.51 106.658 118.635 106.408 118.885C106.161 119.132 106.008 119.475 105.948 119.915H108.718ZM109.438 122.29C109.328 122.423 109.196 122.54 109.043 122.64C108.89 122.737 108.725 122.817 108.548 122.88C108.375 122.943 108.195 122.99 108.008 123.02C107.821 123.053 107.636 123.07 107.453 123.07C107.103 123.07 106.78 123.012 106.483 122.895C106.19 122.775 105.935 122.602 105.718 122.375C105.505 122.145 105.338 121.862 105.218 121.525C105.098 121.188 105.038 120.802 105.038 120.365C105.038 120.012 105.091 119.682 105.198 119.375C105.308 119.068 105.465 118.803 105.668 118.58C105.871 118.353 106.12 118.177 106.413 118.05C106.706 117.92 107.036 117.855 107.403 117.855C107.706 117.855 107.986 117.907 108.243 118.01C108.503 118.11 108.726 118.257 108.913 118.45C109.103 118.64 109.251 118.877 109.358 119.16C109.465 119.44 109.518 119.76 109.518 120.12C109.518 120.26 109.503 120.353 109.473 120.4C109.443 120.447 109.386 120.47 109.303 120.47H105.918C105.928 120.79 105.971 121.068 106.048 121.305C106.128 121.542 106.238 121.74 106.378 121.9C106.518 122.057 106.685 122.175 106.878 122.255C107.071 122.332 107.288 122.37 107.528 122.37C107.751 122.37 107.943 122.345 108.103 122.295C108.266 122.242 108.406 122.185 108.523 122.125C108.64 122.065 108.736 122.01 108.813 121.96C108.893 121.907 108.961 121.88 109.018 121.88C109.091 121.88 109.148 121.908 109.188 121.965L109.438 122.29ZM110.611 123V117.935H111.146C111.273 117.935 111.351 117.997 111.381 118.12L111.446 118.64C111.633 118.41 111.843 118.222 112.076 118.075C112.31 117.928 112.58 117.855 112.886 117.855C113.226 117.855 113.501 117.95 113.711 118.14C113.925 118.33 114.078 118.587 114.171 118.91C114.245 118.727 114.338 118.568 114.451 118.435C114.568 118.302 114.698 118.192 114.841 118.105C114.985 118.018 115.136 117.955 115.296 117.915C115.46 117.875 115.625 117.855 115.791 117.855C116.058 117.855 116.295 117.898 116.501 117.985C116.711 118.068 116.888 118.192 117.031 118.355C117.178 118.518 117.29 118.72 117.366 118.96C117.443 119.197 117.481 119.468 117.481 119.775V123H116.586V119.775C116.586 119.378 116.5 119.078 116.326 118.875C116.153 118.668 115.903 118.565 115.576 118.565C115.43 118.565 115.29 118.592 115.156 118.645C115.026 118.695 114.911 118.77 114.811 118.87C114.711 118.97 114.631 119.097 114.571 119.25C114.515 119.4 114.486 119.575 114.486 119.775V123H113.591V119.775C113.591 119.368 113.51 119.065 113.346 118.865C113.183 118.665 112.945 118.565 112.631 118.565C112.411 118.565 112.208 118.625 112.021 118.745C111.835 118.862 111.663 119.022 111.506 119.225V123H110.611ZM122.224 119.915C122.224 119.708 122.194 119.52 122.134 119.35C122.077 119.177 121.992 119.028 121.879 118.905C121.769 118.778 121.634 118.682 121.474 118.615C121.314 118.545 121.132 118.51 120.929 118.51C120.502 118.51 120.164 118.635 119.914 118.885C119.667 119.132 119.514 119.475 119.454 119.915H122.224ZM122.944 122.29C122.834 122.423 122.702 122.54 122.549 122.64C122.396 122.737 122.231 122.817 122.054 122.88C121.881 122.943 121.701 122.99 121.514 123.02C121.327 123.053 121.142 123.07 120.959 123.07C120.609 123.07 120.286 123.012 119.989 122.895C119.696 122.775 119.441 122.602 119.224 122.375C119.011 122.145 118.844 121.862 118.724 121.525C118.604 121.188 118.544 120.802 118.544 120.365C118.544 120.012 118.597 119.682 118.704 119.375C118.814 119.068 118.971 118.803 119.174 118.58C119.377 118.353 119.626 118.177 119.919 118.05C120.212 117.92 120.542 117.855 120.909 117.855C121.212 117.855 121.492 117.907 121.749 118.01C122.009 118.11 122.232 118.257 122.419 118.45C122.609 118.64 122.757 118.877 122.864 119.16C122.971 119.44 123.024 119.76 123.024 120.12C123.024 120.26 123.009 120.353 122.979 120.4C122.949 120.447 122.892 120.47 122.809 120.47H119.424C119.434 120.79 119.477 121.068 119.554 121.305C119.634 121.542 119.744 121.74 119.884 121.9C120.024 122.057 120.191 122.175 120.384 122.255C120.577 122.332 120.794 122.37 121.034 122.37C121.257 122.37 121.449 122.345 121.609 122.295C121.772 122.242 121.912 122.185 122.029 122.125C122.146 122.065 122.242 122.01 122.319 121.96C122.399 121.907 122.467 121.88 122.524 121.88C122.597 121.88 122.654 121.908 122.694 121.965L122.944 122.29ZM124.957 118.67C125.067 118.547 125.184 118.435 125.307 118.335C125.43 118.235 125.56 118.15 125.697 118.08C125.837 118.007 125.984 117.952 126.137 117.915C126.294 117.875 126.462 117.855 126.642 117.855C126.919 117.855 127.162 117.902 127.372 117.995C127.585 118.085 127.762 118.215 127.902 118.385C128.045 118.552 128.154 118.753 128.227 118.99C128.3 119.227 128.337 119.488 128.337 119.775V123H127.442V119.775C127.442 119.392 127.354 119.095 127.177 118.885C127.004 118.672 126.739 118.565 126.382 118.565C126.119 118.565 125.872 118.628 125.642 118.755C125.415 118.882 125.205 119.053 125.012 119.27V123H124.117V117.935H124.652C124.779 117.935 124.857 117.997 124.887 118.12L124.957 118.67ZM131.18 123.08C130.78 123.08 130.472 122.968 130.255 122.745C130.042 122.522 129.935 122.2 129.935 121.78V118.68H129.325C129.272 118.68 129.227 118.665 129.19 118.635C129.153 118.602 129.135 118.552 129.135 118.485V118.13L129.965 118.025L130.17 116.46C130.18 116.41 130.202 116.37 130.235 116.34C130.272 116.307 130.318 116.29 130.375 116.29H130.825V118.035H132.29V118.68H130.825V121.72C130.825 121.933 130.877 122.092 130.98 122.195C131.083 122.298 131.217 122.35 131.38 122.35C131.473 122.35 131.553 122.338 131.62 122.315C131.69 122.288 131.75 122.26 131.8 122.23C131.85 122.2 131.892 122.173 131.925 122.15C131.962 122.123 131.993 122.11 132.02 122.11C132.067 122.11 132.108 122.138 132.145 122.195L132.405 122.62C132.252 122.763 132.067 122.877 131.85 122.96C131.633 123.04 131.41 123.08 131.18 123.08ZM133.154 124.21C133.127 124.187 133.109 124.165 133.099 124.145C133.089 124.125 133.084 124.1 133.084 124.07C133.084 124.047 133.091 124.023 133.104 124C133.121 123.977 133.139 123.955 133.159 123.935C133.192 123.898 133.234 123.85 133.284 123.79C133.337 123.73 133.391 123.658 133.444 123.575C133.497 123.495 133.546 123.405 133.589 123.305C133.636 123.208 133.669 123.105 133.689 122.995C133.679 122.998 133.667 123 133.654 123C133.644 123 133.634 123 133.624 123C133.451 123 133.309 122.943 133.199 122.83C133.092 122.713 133.039 122.565 133.039 122.385C133.039 122.228 133.092 122.095 133.199 121.985C133.309 121.875 133.454 121.82 133.634 121.82C133.734 121.82 133.822 121.838 133.899 121.875C133.976 121.912 134.039 121.963 134.089 122.03C134.142 122.093 134.182 122.168 134.209 122.255C134.236 122.338 134.249 122.43 134.249 122.53C134.249 122.68 134.227 122.837 134.184 123C134.144 123.16 134.082 123.318 133.999 123.475C133.919 123.635 133.821 123.79 133.704 123.94C133.587 124.09 133.454 124.228 133.304 124.355L133.154 124.21ZM140.983 118.77C140.943 118.843 140.881 118.88 140.798 118.88C140.748 118.88 140.691 118.862 140.628 118.825C140.565 118.788 140.486 118.748 140.393 118.705C140.303 118.658 140.195 118.617 140.068 118.58C139.941 118.54 139.791 118.52 139.618 118.52C139.468 118.52 139.333 118.54 139.213 118.58C139.093 118.617 138.99 118.668 138.903 118.735C138.82 118.802 138.755 118.88 138.708 118.97C138.665 119.057 138.643 119.152 138.643 119.255C138.643 119.385 138.68 119.493 138.753 119.58C138.83 119.667 138.93 119.742 139.053 119.805C139.176 119.868 139.316 119.925 139.473 119.975C139.63 120.022 139.79 120.073 139.953 120.13C140.12 120.183 140.281 120.243 140.438 120.31C140.595 120.377 140.735 120.46 140.858 120.56C140.981 120.66 141.08 120.783 141.153 120.93C141.23 121.073 141.268 121.247 141.268 121.45C141.268 121.683 141.226 121.9 141.143 122.1C141.06 122.297 140.936 122.468 140.773 122.615C140.61 122.758 140.41 122.872 140.173 122.955C139.936 123.038 139.663 123.08 139.353 123.08C139 123.08 138.68 123.023 138.393 122.91C138.106 122.793 137.863 122.645 137.663 122.465L137.873 122.125C137.9 122.082 137.931 122.048 137.968 122.025C138.005 122.002 138.051 121.99 138.108 121.99C138.168 121.99 138.231 122.013 138.298 122.06C138.365 122.107 138.445 122.158 138.538 122.215C138.635 122.272 138.751 122.323 138.888 122.37C139.025 122.417 139.195 122.44 139.398 122.44C139.571 122.44 139.723 122.418 139.853 122.375C139.983 122.328 140.091 122.267 140.178 122.19C140.265 122.113 140.328 122.025 140.368 121.925C140.411 121.825 140.433 121.718 140.433 121.605C140.433 121.465 140.395 121.35 140.318 121.26C140.245 121.167 140.146 121.088 140.023 121.025C139.9 120.958 139.758 120.902 139.598 120.855C139.441 120.805 139.28 120.753 139.113 120.7C138.95 120.647 138.788 120.587 138.628 120.52C138.471 120.45 138.331 120.363 138.208 120.26C138.085 120.157 137.985 120.03 137.908 119.88C137.835 119.727 137.798 119.542 137.798 119.325C137.798 119.132 137.838 118.947 137.918 118.77C137.998 118.59 138.115 118.433 138.268 118.3C138.421 118.163 138.61 118.055 138.833 117.975C139.056 117.895 139.311 117.855 139.598 117.855C139.931 117.855 140.23 117.908 140.493 118.015C140.76 118.118 140.99 118.262 141.183 118.445L140.983 118.77ZM143.299 117.935V123H142.409V117.935H143.299ZM143.489 116.345C143.489 116.432 143.471 116.513 143.434 116.59C143.401 116.663 143.354 116.73 143.294 116.79C143.238 116.847 143.169 116.892 143.089 116.925C143.013 116.958 142.931 116.975 142.844 116.975C142.758 116.975 142.676 116.958 142.599 116.925C142.526 116.892 142.461 116.847 142.404 116.79C142.348 116.73 142.303 116.663 142.269 116.59C142.236 116.513 142.219 116.432 142.219 116.345C142.219 116.258 142.236 116.177 142.269 116.1C142.303 116.02 142.348 115.952 142.404 115.895C142.461 115.835 142.526 115.788 142.599 115.755C142.676 115.722 142.758 115.705 142.844 115.705C142.931 115.705 143.013 115.722 143.089 115.755C143.169 115.788 143.238 115.835 143.294 115.895C143.354 115.952 143.401 116.02 143.434 116.1C143.471 116.177 143.489 116.258 143.489 116.345ZM144.762 123V117.935H145.297C145.423 117.935 145.502 117.997 145.532 118.12L145.597 118.64C145.783 118.41 145.993 118.222 146.227 118.075C146.46 117.928 146.73 117.855 147.037 117.855C147.377 117.855 147.652 117.95 147.862 118.14C148.075 118.33 148.228 118.587 148.322 118.91C148.395 118.727 148.488 118.568 148.602 118.435C148.718 118.302 148.848 118.192 148.992 118.105C149.135 118.018 149.287 117.955 149.447 117.915C149.61 117.875 149.775 117.855 149.942 117.855C150.208 117.855 150.445 117.898 150.652 117.985C150.862 118.068 151.038 118.192 151.182 118.355C151.328 118.518 151.44 118.72 151.517 118.96C151.593 119.197 151.632 119.468 151.632 119.775V123H150.737V119.775C150.737 119.378 150.65 119.078 150.477 118.875C150.303 118.668 150.053 118.565 149.727 118.565C149.58 118.565 149.44 118.592 149.307 118.645C149.177 118.695 149.062 118.77 148.962 118.87C148.862 118.97 148.782 119.097 148.722 119.25C148.665 119.4 148.637 119.575 148.637 119.775V123H147.742V119.775C147.742 119.368 147.66 119.065 147.497 118.865C147.333 118.665 147.095 118.565 146.782 118.565C146.562 118.565 146.358 118.625 146.172 118.745C145.985 118.862 145.813 119.022 145.657 119.225V123H144.762ZM153.879 121.78C154.043 122 154.221 122.155 154.414 122.245C154.608 122.335 154.824 122.38 155.064 122.38C155.538 122.38 155.901 122.212 156.154 121.875C156.408 121.538 156.534 121.058 156.534 120.435C156.534 120.105 156.504 119.822 156.444 119.585C156.388 119.348 156.304 119.155 156.194 119.005C156.084 118.852 155.949 118.74 155.789 118.67C155.629 118.6 155.448 118.565 155.244 118.565C154.954 118.565 154.699 118.632 154.479 118.765C154.263 118.898 154.063 119.087 153.879 119.33V121.78ZM153.834 118.72C154.048 118.457 154.294 118.245 154.574 118.085C154.854 117.925 155.174 117.845 155.534 117.845C155.828 117.845 156.093 117.902 156.329 118.015C156.566 118.125 156.768 118.29 156.934 118.51C157.101 118.727 157.229 118.997 157.319 119.32C157.409 119.643 157.454 120.015 157.454 120.435C157.454 120.808 157.404 121.157 157.304 121.48C157.204 121.8 157.059 122.078 156.869 122.315C156.683 122.548 156.453 122.733 156.179 122.87C155.909 123.003 155.604 123.07 155.264 123.07C154.954 123.07 154.688 123.018 154.464 122.915C154.244 122.808 154.049 122.662 153.879 122.475V124.715H152.984V117.935H153.519C153.646 117.935 153.724 117.997 153.754 118.12L153.834 118.72ZM159.51 115.635V123H158.62V115.635H159.51ZM161.893 117.935V123H161.003V117.935H161.893ZM162.083 116.345C162.083 116.432 162.065 116.513 162.028 116.59C161.995 116.663 161.948 116.73 161.888 116.79C161.831 116.847 161.763 116.892 161.683 116.925C161.606 116.958 161.525 116.975 161.438 116.975C161.351 116.975 161.27 116.958 161.193 116.925C161.12 116.892 161.055 116.847 160.998 116.79C160.941 116.73 160.896 116.663 160.863 116.59C160.83 116.513 160.813 116.432 160.813 116.345C160.813 116.258 160.83 116.177 160.863 116.1C160.896 116.02 160.941 115.952 160.998 115.895C161.055 115.835 161.12 115.788 161.193 115.755C161.27 115.722 161.351 115.705 161.438 115.705C161.525 115.705 161.606 115.722 161.683 115.755C161.763 115.788 161.831 115.835 161.888 115.895C161.948 115.952 161.995 116.02 162.028 116.1C162.065 116.177 162.083 116.258 162.083 116.345ZM163.695 123V118.695L163.135 118.63C163.062 118.613 163.004 118.588 162.96 118.555C162.917 118.518 162.895 118.467 162.895 118.4V118.035H163.695V117.755C163.695 117.445 163.744 117.162 163.84 116.905C163.937 116.645 164.082 116.422 164.275 116.235C164.469 116.048 164.709 115.903 164.995 115.8C165.285 115.697 165.62 115.645 166 115.645C166.127 115.645 166.257 115.653 166.39 115.67C166.524 115.687 166.639 115.712 166.735 115.745L166.7 116.21C166.697 116.243 166.684 116.267 166.66 116.28C166.64 116.293 166.612 116.302 166.575 116.305C166.539 116.308 166.492 116.31 166.435 116.31C166.382 116.307 166.32 116.305 166.25 116.305C165.657 116.305 165.227 116.428 164.96 116.675C164.694 116.918 164.56 117.287 164.56 117.78V118.035H167.62V123H166.725V118.68H164.585V123H163.695ZM172.468 119.915C172.468 119.708 172.438 119.52 172.378 119.35C172.321 119.177 172.236 119.028 172.123 118.905C172.013 118.778 171.878 118.682 171.718 118.615C171.558 118.545 171.376 118.51 171.173 118.51C170.746 118.51 170.408 118.635 170.158 118.885C169.911 119.132 169.758 119.475 169.698 119.915H172.468ZM173.188 122.29C173.078 122.423 172.946 122.54 172.793 122.64C172.64 122.737 172.475 122.817 172.298 122.88C172.125 122.943 171.945 122.99 171.758 123.02C171.571 123.053 171.386 123.07 171.203 123.07C170.853 123.07 170.53 123.012 170.233 122.895C169.94 122.775 169.685 122.602 169.468 122.375C169.255 122.145 169.088 121.862 168.968 121.525C168.848 121.188 168.788 120.802 168.788 120.365C168.788 120.012 168.841 119.682 168.948 119.375C169.058 119.068 169.215 118.803 169.418 118.58C169.621 118.353 169.87 118.177 170.163 118.05C170.456 117.92 170.786 117.855 171.153 117.855C171.456 117.855 171.736 117.907 171.993 118.01C172.253 118.11 172.476 118.257 172.663 118.45C172.853 118.64 173.001 118.877 173.108 119.16C173.215 119.44 173.268 119.76 173.268 120.12C173.268 120.26 173.253 120.353 173.223 120.4C173.193 120.447 173.136 120.47 173.053 120.47H169.668C169.678 120.79 169.721 121.068 169.798 121.305C169.878 121.542 169.988 121.74 170.128 121.9C170.268 122.057 170.435 122.175 170.628 122.255C170.821 122.332 171.038 122.37 171.278 122.37C171.501 122.37 171.693 122.345 171.853 122.295C172.016 122.242 172.156 122.185 172.273 122.125C172.39 122.065 172.486 122.01 172.563 121.96C172.643 121.907 172.711 121.88 172.768 121.88C172.841 121.88 172.898 121.908 172.938 121.965L173.188 122.29ZM177.661 119.14C177.495 118.917 177.315 118.762 177.121 118.675C176.928 118.585 176.711 118.54 176.471 118.54C176.001 118.54 175.64 118.708 175.386 119.045C175.133 119.382 175.006 119.862 175.006 120.485C175.006 120.815 175.035 121.098 175.091 121.335C175.148 121.568 175.231 121.762 175.341 121.915C175.451 122.065 175.586 122.175 175.746 122.245C175.906 122.315 176.088 122.35 176.291 122.35C176.585 122.35 176.84 122.283 177.056 122.15C177.276 122.017 177.478 121.828 177.661 121.585V119.14ZM178.551 115.635V123H178.021C177.895 123 177.815 122.938 177.781 122.815L177.701 122.2C177.485 122.46 177.238 122.67 176.961 122.83C176.685 122.99 176.365 123.07 176.001 123.07C175.711 123.07 175.448 123.015 175.211 122.905C174.975 122.792 174.773 122.627 174.606 122.41C174.44 122.193 174.311 121.923 174.221 121.6C174.131 121.277 174.086 120.905 174.086 120.485C174.086 120.112 174.136 119.765 174.236 119.445C174.336 119.122 174.48 118.842 174.666 118.605C174.853 118.368 175.081 118.183 175.351 118.05C175.625 117.913 175.931 117.845 176.271 117.845C176.581 117.845 176.846 117.898 177.066 118.005C177.29 118.108 177.488 118.253 177.661 118.44V115.635H178.551ZM179.807 122.45C179.807 122.363 179.822 122.282 179.852 122.205C179.885 122.128 179.929 122.062 179.982 122.005C180.039 121.948 180.105 121.903 180.182 121.87C180.259 121.837 180.34 121.82 180.427 121.82C180.514 121.82 180.595 121.837 180.672 121.87C180.749 121.903 180.815 121.948 180.872 122.005C180.929 122.062 180.974 122.128 181.007 122.205C181.04 122.282 181.057 122.363 181.057 122.45C181.057 122.54 181.04 122.623 181.007 122.7C180.974 122.773 180.929 122.838 180.872 122.895C180.815 122.952 180.749 122.995 180.672 123.025C180.595 123.058 180.514 123.075 180.427 123.075C180.34 123.075 180.259 123.058 180.182 123.025C180.105 122.995 180.039 122.952 179.982 122.895C179.929 122.838 179.885 122.773 179.852 122.7C179.822 122.623 179.807 122.54 179.807 122.45Z" fill="white"/>
</svg>
