<svg width="114" height="40" viewBox="0 0 114 40" fill="none" xmlns="http://www.w3.org/2000/svg">
    <g filter="url(#filter0_d_0_1)">
        <rect x="4" y="4" width="106" height="32" rx="10" fill="#00D8FA"/>
    </g>
    <path d="M39.855 21.395C39.9183 21.395 39.9733 21.42 40.02 21.47L40.485 21.975C40.1917 22.3283 39.8317 22.6017 39.405 22.795C38.9783 22.985 38.4683 23.08 37.875 23.08C37.3483 23.08 36.8717 22.99 36.445 22.81C36.0217 22.6267 35.66 22.3733 35.36 22.05C35.06 21.7233 34.8283 21.335 34.665 20.885C34.505 20.435 34.425 19.94 34.425 19.4C34.425 18.86 34.51 18.365 34.68 17.915C34.8533 17.4617 35.095 17.0733 35.405 16.75C35.7183 16.4233 36.0917 16.17 36.525 15.99C36.9617 15.81 37.4417 15.72 37.965 15.72C38.485 15.72 38.9433 15.805 39.34 15.975C39.74 16.1417 40.0867 16.365 40.38 16.645L39.995 17.19C39.9683 17.2267 39.9367 17.2583 39.9 17.285C39.8633 17.3117 39.8133 17.325 39.75 17.325C39.6833 17.325 39.6067 17.295 39.52 17.235C39.4367 17.1717 39.3283 17.1033 39.195 17.03C39.065 16.9533 38.9 16.885 38.7 16.825C38.5033 16.7617 38.2567 16.73 37.96 16.73C37.6167 16.73 37.3017 16.79 37.015 16.91C36.7283 17.03 36.4817 17.205 36.275 17.435C36.0683 17.665 35.9067 17.945 35.79 18.275C35.6767 18.605 35.62 18.98 35.62 19.4C35.62 19.8233 35.68 20.2017 35.8 20.535C35.92 20.865 36.085 21.145 36.295 21.375C36.505 21.6017 36.7517 21.775 37.035 21.895C37.3183 22.015 37.6233 22.075 37.95 22.075C38.15 22.075 38.3283 22.065 38.485 22.045C38.645 22.0217 38.7917 21.9867 38.925 21.94C39.0583 21.89 39.1833 21.8283 39.3 21.755C39.42 21.6817 39.5383 21.5917 39.655 21.485C39.7217 21.425 39.7883 21.395 39.855 21.395ZM42.3706 18.505C42.5806 18.2983 42.8106 18.1333 43.0606 18.01C43.3106 17.8833 43.6023 17.82 43.9356 17.82C44.2156 17.82 44.4606 17.8667 44.6706 17.96C44.884 18.0533 45.0623 18.185 45.2056 18.355C45.3523 18.525 45.4623 18.73 45.5356 18.97C45.609 19.2067 45.6456 19.4683 45.6456 19.755V23H44.5756V19.755C44.5756 19.4117 44.4956 19.145 44.3356 18.955C44.179 18.765 43.939 18.67 43.6156 18.67C43.3756 18.67 43.1523 18.725 42.9456 18.835C42.7423 18.945 42.5506 19.095 42.3706 19.285V23H41.2956V15.6H42.3706V18.505ZM49.6261 20.77C49.2428 20.7833 48.9194 20.815 48.6561 20.865C48.3928 20.9117 48.1794 20.9733 48.0161 21.05C47.8528 21.1233 47.7344 21.2117 47.6611 21.315C47.5911 21.4183 47.5561 21.5317 47.5561 21.655C47.5561 21.775 47.5744 21.8783 47.6111 21.965C47.6511 22.0483 47.7044 22.1183 47.7711 22.175C47.8411 22.2283 47.9211 22.2683 48.0111 22.295C48.1044 22.3183 48.2061 22.33 48.3161 22.33C48.5961 22.33 48.8361 22.2783 49.0361 22.175C49.2394 22.0683 49.4361 21.915 49.6261 21.715V20.77ZM46.7761 18.61C47.3528 18.0733 48.0394 17.805 48.8361 17.805C49.1294 17.805 49.3894 17.8533 49.6161 17.95C49.8461 18.0433 50.0378 18.1767 50.1911 18.35C50.3478 18.5233 50.4661 18.73 50.5461 18.97C50.6294 19.2067 50.6711 19.47 50.6711 19.76V23H50.1911C50.0878 23 50.0094 22.985 49.9561 22.955C49.9028 22.9217 49.8578 22.8567 49.8211 22.76L49.7161 22.345C49.5861 22.4617 49.4578 22.5667 49.3311 22.66C49.2044 22.75 49.0728 22.8267 48.9361 22.89C48.8028 22.9533 48.6578 23 48.5011 23.03C48.3478 23.0633 48.1778 23.08 47.9911 23.08C47.7844 23.08 47.5911 23.0517 47.4111 22.995C47.2344 22.9383 47.0811 22.8533 46.9511 22.74C46.8211 22.6233 46.7178 22.48 46.6411 22.31C46.5678 22.14 46.5311 21.94 46.5311 21.71C46.5311 21.5133 46.5828 21.3217 46.6861 21.135C46.7928 20.9483 46.9661 20.7817 47.2061 20.635C47.4494 20.485 47.7678 20.3617 48.1611 20.265C48.5578 20.1683 49.0461 20.1133 49.6261 20.1V19.76C49.6261 19.3933 49.5478 19.12 49.3911 18.94C49.2344 18.76 49.0044 18.67 48.7011 18.67C48.4944 18.67 48.3211 18.6967 48.1811 18.75C48.0411 18.8 47.9194 18.855 47.8161 18.915C47.7128 18.975 47.6211 19.0317 47.5411 19.085C47.4611 19.135 47.3761 19.16 47.2861 19.16C47.2128 19.16 47.1494 19.1417 47.0961 19.105C47.0461 19.065 47.0044 19.0167 46.9711 18.96L46.7761 18.61ZM52.9354 18.575C53.0454 18.4617 53.1587 18.36 53.2754 18.27C53.3954 18.1767 53.5221 18.0967 53.6554 18.03C53.7887 17.9633 53.9304 17.9117 54.0804 17.875C54.2304 17.8383 54.3937 17.82 54.5704 17.82C54.8504 17.82 55.0954 17.8667 55.3054 17.96C55.5187 18.0533 55.6971 18.185 55.8404 18.355C55.9871 18.525 56.0971 18.73 56.1704 18.97C56.2437 19.2067 56.2804 19.4683 56.2804 19.755V23H55.2104V19.755C55.2104 19.4117 55.1304 19.145 54.9704 18.955C54.8137 18.765 54.5737 18.67 54.2504 18.67C54.0104 18.67 53.7871 18.725 53.5804 18.835C53.3771 18.945 53.1854 19.095 53.0054 19.285V23H51.9304V17.9H52.5804C52.7271 17.9 52.8204 17.9683 52.8604 18.105L52.9354 18.575ZM59.3559 20.405C59.6892 20.405 59.9392 20.32 60.1059 20.15C60.2725 19.98 60.3559 19.7583 60.3559 19.485C60.3559 19.205 60.2725 18.9833 60.1059 18.82C59.9392 18.6567 59.6892 18.575 59.3559 18.575C59.0259 18.575 58.7759 18.6567 58.6059 18.82C58.4392 18.9833 58.3559 19.205 58.3559 19.485C58.3559 19.6183 58.3775 19.7417 58.4209 19.855C58.4642 19.9683 58.5275 20.0667 58.6109 20.15C58.6942 20.23 58.7975 20.2933 58.9209 20.34C59.0475 20.3833 59.1925 20.405 59.3559 20.405ZM60.8509 23.25C60.8509 23.1367 60.8175 23.0467 60.7509 22.98C60.6875 22.91 60.6009 22.8567 60.4909 22.82C60.3809 22.78 60.2525 22.7517 60.1059 22.735C59.9592 22.715 59.8025 22.7017 59.6359 22.695C59.4725 22.685 59.3042 22.6767 59.1309 22.67C58.9609 22.66 58.7959 22.6433 58.6359 22.62C58.4759 22.7033 58.3442 22.8033 58.2409 22.92C58.1409 23.0367 58.0909 23.1717 58.0909 23.325C58.0909 23.425 58.1159 23.5183 58.1659 23.605C58.2192 23.6917 58.2992 23.7667 58.4059 23.83C58.5159 23.8933 58.6542 23.9433 58.8209 23.98C58.9909 24.0167 59.1942 24.035 59.4309 24.035C59.9042 24.035 60.2592 23.9617 60.4959 23.815C60.7325 23.6683 60.8509 23.48 60.8509 23.25ZM61.9309 18.085V18.485C61.9309 18.6183 61.8509 18.7 61.6909 18.73L61.1809 18.815C61.2675 19.0083 61.3109 19.2233 61.3109 19.46C61.3109 19.71 61.2609 19.9367 61.1609 20.14C61.0642 20.3433 60.9292 20.5167 60.7559 20.66C60.5825 20.8033 60.3759 20.9133 60.1359 20.99C59.8959 21.0667 59.6359 21.105 59.3559 21.105C59.2492 21.105 59.1442 21.1 59.0409 21.09C58.9409 21.0767 58.8425 21.06 58.7459 21.04C58.6492 21.0967 58.5775 21.1567 58.5309 21.22C58.4842 21.2833 58.4609 21.3483 58.4609 21.415C58.4609 21.525 58.5092 21.6067 58.6059 21.66C58.7025 21.7133 58.8292 21.7517 58.9859 21.775C59.1459 21.7983 59.3275 21.8133 59.5309 21.82C59.7342 21.8267 59.9409 21.8383 60.1509 21.855C60.3609 21.8717 60.5675 21.9 60.7709 21.94C60.9742 21.9767 61.1542 22.04 61.3109 22.13C61.4709 22.2167 61.5992 22.335 61.6959 22.485C61.7925 22.635 61.8409 22.83 61.8409 23.07C61.8409 23.29 61.7859 23.505 61.6759 23.715C61.5659 23.925 61.4059 24.1117 61.1959 24.275C60.9892 24.4383 60.7359 24.5683 60.4359 24.665C60.1359 24.765 59.7942 24.815 59.4109 24.815C59.0309 24.815 58.6992 24.7783 58.4159 24.705C58.1359 24.6317 57.9009 24.5317 57.7109 24.405C57.5242 24.2817 57.3842 24.1383 57.2909 23.975C57.2009 23.8117 57.1559 23.6417 57.1559 23.465C57.1559 23.225 57.2309 23.02 57.3809 22.85C57.5342 22.68 57.7409 22.5467 58.0009 22.45C57.8609 22.3833 57.7475 22.2917 57.6609 22.175C57.5775 22.0583 57.5359 21.905 57.5359 21.715C57.5359 21.565 57.5909 21.4083 57.7009 21.245C57.8109 21.0817 57.9759 20.9433 58.1959 20.83C57.9425 20.69 57.7425 20.505 57.5959 20.275C57.4492 20.0417 57.3759 19.77 57.3759 19.46C57.3759 19.2067 57.4242 18.9783 57.5209 18.775C57.6209 18.5717 57.7592 18.3983 57.9359 18.255C58.1125 18.1117 58.3209 18.0017 58.5609 17.925C58.8042 17.8483 59.0692 17.81 59.3559 17.81C59.7959 17.81 60.1792 17.9017 60.5059 18.085H61.9309ZM66.0371 19.875C66.0371 19.695 66.0104 19.5283 65.9571 19.375C65.9071 19.2183 65.8321 19.0833 65.7321 18.97C65.6321 18.8533 65.5071 18.7633 65.3571 18.7C65.2104 18.6333 65.0404 18.6 64.8471 18.6C64.4571 18.6 64.1504 18.7117 63.9271 18.935C63.7038 19.1583 63.5621 19.4717 63.5021 19.875H66.0371ZM63.4721 20.535C63.4854 20.825 63.5304 21.0767 63.6071 21.29C63.6838 21.5 63.7854 21.675 63.9121 21.815C64.0421 21.955 64.1954 22.06 64.3721 22.13C64.5521 22.1967 64.7521 22.23 64.9721 22.23C65.1821 22.23 65.3638 22.2067 65.5171 22.16C65.6704 22.11 65.8038 22.0567 65.9171 22C66.0304 21.94 66.1271 21.8867 66.2071 21.84C66.2871 21.79 66.3604 21.765 66.4271 21.765C66.5138 21.765 66.5804 21.7983 66.6271 21.865L66.9321 22.26C66.8054 22.41 66.6621 22.5367 66.5021 22.64C66.3421 22.7433 66.1721 22.8283 65.9921 22.895C65.8121 22.9583 65.6271 23.0033 65.4371 23.03C65.2471 23.06 65.0621 23.075 64.8821 23.075C64.5288 23.075 64.2004 23.0167 63.8971 22.9C63.5971 22.78 63.3354 22.605 63.1121 22.375C62.8921 22.145 62.7188 21.86 62.5921 21.52C62.4688 21.18 62.4071 20.7883 62.4071 20.345C62.4071 19.9917 62.4621 19.6617 62.5721 19.355C62.6854 19.0483 62.8454 18.7817 63.0521 18.555C63.2621 18.3283 63.5154 18.15 63.8121 18.02C64.1121 17.8867 64.4504 17.82 64.8271 17.82C65.1404 17.82 65.4304 17.8717 65.6971 17.975C65.9638 18.075 66.1938 18.2233 66.3871 18.42C66.5804 18.6167 66.7304 18.8583 66.8371 19.145C66.9471 19.4283 67.0021 19.7517 67.0021 20.115C67.0021 20.2817 66.9838 20.3933 66.9471 20.45C66.9104 20.5067 66.8438 20.535 66.7471 20.535H63.4721ZM72.9348 19.47C73.1948 19.47 73.4232 19.4367 73.6198 19.37C73.8198 19.3033 73.9848 19.21 74.1148 19.09C74.2482 18.9667 74.3482 18.8183 74.4148 18.645C74.4815 18.4717 74.5148 18.2783 74.5148 18.065C74.5148 17.855 74.4815 17.6667 74.4148 17.5C74.3515 17.3333 74.2548 17.1917 74.1248 17.075C73.9948 16.9583 73.8298 16.87 73.6298 16.81C73.4332 16.7467 73.2015 16.715 72.9348 16.715H71.8648V19.47H72.9348ZM72.9348 15.8C73.4048 15.8 73.8115 15.855 74.1548 15.965C74.5015 16.075 74.7865 16.23 75.0098 16.43C75.2365 16.6267 75.4048 16.865 75.5148 17.145C75.6248 17.4217 75.6798 17.7283 75.6798 18.065C75.6798 18.4083 75.6215 18.7233 75.5048 19.01C75.3882 19.2933 75.2148 19.5383 74.9848 19.745C74.7548 19.9483 74.4682 20.1083 74.1248 20.225C73.7848 20.3383 73.3882 20.395 72.9348 20.395H71.8648V23H70.6948V15.8H72.9348ZM77.6441 18.505C77.8541 18.2983 78.0841 18.1333 78.3341 18.01C78.5841 17.8833 78.8757 17.82 79.2091 17.82C79.4891 17.82 79.7341 17.8667 79.9441 17.96C80.1574 18.0533 80.3357 18.185 80.4791 18.355C80.6257 18.525 80.7357 18.73 80.8091 18.97C80.8824 19.2067 80.9191 19.4683 80.9191 19.755V23H79.8491V19.755C79.8491 19.4117 79.7691 19.145 79.6091 18.955C79.4524 18.765 79.2124 18.67 78.8891 18.67C78.6491 18.67 78.4257 18.725 78.2191 18.835C78.0157 18.945 77.8241 19.095 77.6441 19.285V23H76.5691V15.6H77.6441V18.505ZM84.3795 17.82C84.7562 17.82 85.0962 17.8817 85.3995 18.005C85.7062 18.1283 85.9662 18.3033 86.1795 18.53C86.3962 18.7567 86.5629 19.0317 86.6795 19.355C86.7962 19.6783 86.8545 20.0417 86.8545 20.445C86.8545 20.8483 86.7962 21.2117 86.6795 21.535C86.5629 21.8583 86.3962 22.135 86.1795 22.365C85.9662 22.5917 85.7062 22.7667 85.3995 22.89C85.0962 23.0133 84.7562 23.075 84.3795 23.075C83.9995 23.075 83.6562 23.0133 83.3495 22.89C83.0462 22.7667 82.7862 22.5917 82.5695 22.365C82.3529 22.135 82.1862 21.8583 82.0695 21.535C81.9529 21.2117 81.8945 20.8483 81.8945 20.445C81.8945 20.0417 81.9529 19.6783 82.0695 19.355C82.1862 19.0317 82.3529 18.7567 82.5695 18.53C82.7862 18.3033 83.0462 18.1283 83.3495 18.005C83.6562 17.8817 83.9995 17.82 84.3795 17.82ZM84.3795 22.235C84.8395 22.235 85.1812 22.0817 85.4045 21.775C85.6312 21.465 85.7445 21.0233 85.7445 20.45C85.7445 19.8767 85.6312 19.435 85.4045 19.125C85.1812 18.8117 84.8395 18.655 84.3795 18.655C83.9129 18.655 83.5662 18.8117 83.3395 19.125C83.1129 19.435 82.9995 19.8767 82.9995 20.45C82.9995 21.0233 83.1129 21.465 83.3395 21.775C83.5662 22.0817 83.9129 22.235 84.3795 22.235ZM89.4248 23.08C89.0014 23.08 88.6748 22.9617 88.4448 22.725C88.2181 22.485 88.1048 22.1483 88.1048 21.715V18.745H87.5448C87.4848 18.745 87.4331 18.7267 87.3898 18.69C87.3464 18.65 87.3248 18.5917 87.3248 18.515V18.08L88.1498 17.96L88.3848 16.485C88.4014 16.4283 88.4298 16.3833 88.4698 16.35C88.5098 16.3133 88.5631 16.295 88.6298 16.295H89.1798V17.97H90.5948V18.745H89.1798V21.64C89.1798 21.8233 89.2248 21.9633 89.3148 22.06C89.4048 22.1567 89.5248 22.205 89.6748 22.205C89.7581 22.205 89.8298 22.195 89.8898 22.175C89.9498 22.1517 90.0014 22.1283 90.0448 22.105C90.0881 22.0783 90.1248 22.055 90.1548 22.035C90.1881 22.0117 90.2198 22 90.2498 22C90.3098 22 90.3581 22.0333 90.3948 22.1L90.7148 22.625C90.5481 22.7717 90.3514 22.885 90.1248 22.965C89.8981 23.0417 89.6648 23.08 89.4248 23.08ZM93.608 17.82C93.9847 17.82 94.3247 17.8817 94.628 18.005C94.9347 18.1283 95.1947 18.3033 95.408 18.53C95.6247 18.7567 95.7914 19.0317 95.908 19.355C96.0247 19.6783 96.083 20.0417 96.083 20.445C96.083 20.8483 96.0247 21.2117 95.908 21.535C95.7914 21.8583 95.6247 22.135 95.408 22.365C95.1947 22.5917 94.9347 22.7667 94.628 22.89C94.3247 23.0133 93.9847 23.075 93.608 23.075C93.228 23.075 92.8847 23.0133 92.578 22.89C92.2747 22.7667 92.0147 22.5917 91.798 22.365C91.5814 22.135 91.4147 21.8583 91.298 21.535C91.1814 21.2117 91.123 20.8483 91.123 20.445C91.123 20.0417 91.1814 19.6783 91.298 19.355C91.4147 19.0317 91.5814 18.7567 91.798 18.53C92.0147 18.3033 92.2747 18.1283 92.578 18.005C92.8847 17.8817 93.228 17.82 93.608 17.82ZM93.608 22.235C94.068 22.235 94.4097 22.0817 94.633 21.775C94.8597 21.465 94.973 21.0233 94.973 20.45C94.973 19.8767 94.8597 19.435 94.633 19.125C94.4097 18.8117 94.068 18.655 93.608 18.655C93.1414 18.655 92.7947 18.8117 92.568 19.125C92.3414 19.435 92.228 19.8767 92.228 20.45C92.228 21.0233 92.3414 21.465 92.568 21.775C92.7947 22.0817 93.1414 22.235 93.608 22.235Z" fill="black"/>
    <path d="M26.8603 17.819C26.8603 18.4838 26.298 19.0228 25.6045 19.0228C24.911 19.0228 24.3486 18.4838 24.3486 17.819C24.3486 17.1542 24.911 16.6153 25.6045 16.6153C26.298 16.6153 26.8603 17.1542 26.8603 17.819Z" fill="black"/>
    <path fill-rule="evenodd" clip-rule="evenodd" d="M26.4327 13.7288C25.4789 13.6059 24.2603 13.6059 22.7216 13.606H19.2784C17.7398 13.6059 16.5211 13.6059 15.5673 13.7288C14.5858 13.8553 13.7913 14.1219 13.1648 14.7224C12.5382 15.323 12.2602 16.0845 12.1282 17.0253C12 17.9395 12 19.1076 12 20.5825V20.673C12 22.1478 12 23.3159 12.1282 24.2301C12.2602 25.1709 12.5382 25.9324 13.1648 26.533C13.7913 27.1336 14.5858 27.4001 15.5673 27.5266C16.5211 27.6495 17.7398 27.6495 19.2784 27.6495H22.7216C24.2603 27.6495 25.4789 27.6495 26.4327 27.5266C27.4142 27.4001 28.2087 27.1336 28.8352 26.533C29.4618 25.9324 29.7398 25.1709 29.8717 24.2301C30 23.3159 30 22.1478 30 20.673V20.5825C30 19.1076 30 17.9395 29.8717 17.0253C29.7398 16.0845 29.4618 15.323 28.8352 14.7224C28.2087 14.1219 27.4142 13.8553 26.4327 13.7288ZM15.7347 14.9218C14.8924 15.0304 14.4071 15.234 14.0528 15.5736C13.6984 15.9132 13.4861 16.3784 13.3728 17.1857C13.282 17.8333 13.2617 18.6427 13.2571 19.7014L13.6809 19.346C14.6926 18.4974 16.2174 18.5461 17.1679 19.4573L20.7593 22.8997C21.1189 23.2444 21.685 23.2914 22.1011 23.0111L22.3507 22.843C23.5482 22.0363 25.1683 22.1298 26.2562 23.0683L28.4231 24.9376C28.5117 24.7 28.5785 24.4164 28.6271 24.0697C28.7429 23.245 28.7442 22.1579 28.7442 20.6277C28.7442 19.0975 28.7429 18.0104 28.6271 17.1857C28.5139 16.3784 28.3015 15.9132 27.9473 15.5736C27.5929 15.234 27.1077 15.0304 26.2654 14.9218C25.405 14.811 24.2709 14.8097 22.6744 14.8097H19.3255C17.7292 14.8097 16.595 14.811 15.7347 14.9218Z" fill="black"/>
    <g opacity="0.5">
        <path d="M25.578 11.0994C24.8042 11 23.819 11 22.5908 11H19.8101C18.5819 11 17.5967 11 16.8229 11.0994C16.0215 11.2023 15.3534 11.4215 14.8235 11.9277C14.5179 12.2196 14.3121 12.5555 14.1719 12.9344C14.6257 12.7274 15.1387 12.6054 15.7147 12.5308C16.6907 12.4043 17.9377 12.4043 19.512 12.4044H23.0354C24.6098 12.4043 25.8568 12.4043 26.8327 12.5308C27.3358 12.5959 27.7909 12.6972 28.2004 12.8597C28.0612 12.5113 27.8629 12.2003 27.5774 11.9277C27.0475 11.4215 26.3794 11.2023 25.578 11.0994Z" fill="black"/>
    </g>
    <defs>
        <filter id="filter0_d_0_1" x="0" y="0" width="114" height="40" filterUnits="userSpaceOnUse" color-interpolation-filters="sRGB">
            <feFlood flood-opacity="0" result="BackgroundImageFix"/>
            <feColorMatrix in="SourceAlpha" type="matrix" values="0 0 0 0 0 0 0 0 0 0 0 0 0 0 0 0 0 0 127 0" result="hardAlpha"/>
            <feOffset/>
            <feGaussianBlur stdDeviation="2"/>
            <feComposite in2="hardAlpha" operator="out"/>
            <feColorMatrix type="matrix" values="0 0 0 0 0 0 0 0 0 0 0 0 0 0 0 0 0 0 0.25 0"/>
            <feBlend mode="normal" in2="BackgroundImageFix" result="effect1_dropShadow_0_1"/>
            <feBlend mode="normal" in="SourceGraphic" in2="effect1_dropShadow_0_1" result="shape"/>
        </filter>
    </defs>
</svg>
