<svg width="70" height="28" viewBox="0 0 70 28" fill="none" xmlns="http://www.w3.org/2000/svg">
    <rect width="70" height="28" rx="8" fill="#EE0E0E"/>
    <path d="M35.125 14.42C35.125 14.9567 35.04 15.445 34.87 15.885C34.7 16.325 34.46 16.7017 34.15 17.015C33.84 17.3283 33.4667 17.5717 33.03 17.745C32.5967 17.915 32.1167 18 31.59 18H28.915V10.835H31.59C32.1167 10.835 32.5967 10.9217 33.03 11.095C33.4667 11.265 33.84 11.5083 34.15 11.825C34.46 12.1383 34.7 12.515 34.87 12.955C35.04 13.395 35.125 13.8833 35.125 14.42ZM34.13 14.42C34.13 13.98 34.07 13.5867 33.95 13.24C33.83 12.8933 33.66 12.6 33.44 12.36C33.22 12.12 32.9533 11.9367 32.64 11.81C32.3267 11.6833 31.9767 11.62 31.59 11.62H29.885V17.215H31.59C31.9767 17.215 32.3267 17.1517 32.64 17.025C32.9533 16.8983 33.22 16.7167 33.44 16.48C33.66 16.24 33.83 15.9467 33.95 15.6C34.07 15.2533 34.13 14.86 34.13 14.42ZM39.6341 14.915C39.6341 14.7083 39.6041 14.52 39.5441 14.35C39.4874 14.1767 39.4024 14.0283 39.2891 13.905C39.1791 13.7783 39.0441 13.6817 38.8841 13.615C38.7241 13.545 38.5424 13.51 38.3391 13.51C37.9124 13.51 37.5741 13.635 37.3241 13.885C37.0774 14.1317 36.9241 14.475 36.8641 14.915H39.6341ZM40.3541 17.29C40.2441 17.4233 40.1124 17.54 39.9591 17.64C39.8057 17.7367 39.6407 17.8167 39.4641 17.88C39.2907 17.9433 39.1107 17.99 38.9241 18.02C38.7374 18.0533 38.5524 18.07 38.3691 18.07C38.0191 18.07 37.6957 18.0117 37.3991 17.895C37.1057 17.775 36.8507 17.6017 36.6341 17.375C36.4207 17.145 36.2541 16.8617 36.1341 16.525C36.0141 16.1883 35.9541 15.8017 35.9541 15.365C35.9541 15.0117 36.0074 14.6817 36.1141 14.375C36.2241 14.0683 36.3807 13.8033 36.5841 13.58C36.7874 13.3533 37.0357 13.1767 37.3291 13.05C37.6224 12.92 37.9524 12.855 38.3191 12.855C38.6224 12.855 38.9024 12.9067 39.1591 13.01C39.4191 13.11 39.6424 13.2567 39.8291 13.45C40.0191 13.64 40.1674 13.8767 40.2741 14.16C40.3807 14.44 40.4341 14.76 40.4341 15.12C40.4341 15.26 40.4191 15.3533 40.3891 15.4C40.3591 15.4467 40.3024 15.47 40.2191 15.47H36.8341C36.8441 15.79 36.8874 16.0683 36.9641 16.305C37.0441 16.5417 37.1541 16.74 37.2941 16.9C37.4341 17.0567 37.6007 17.175 37.7941 17.255C37.9874 17.3317 38.2041 17.37 38.4441 17.37C38.6674 17.37 38.8591 17.345 39.0191 17.295C39.1824 17.2417 39.3224 17.185 39.4391 17.125C39.5557 17.065 39.6524 17.01 39.7291 16.96C39.8091 16.9067 39.8774 16.88 39.9341 16.88C40.0074 16.88 40.0641 16.9083 40.1041 16.965L40.3541 17.29ZM42.4473 10.635V18H41.5573V10.635H42.4473ZM47.2805 14.915C47.2805 14.7083 47.2505 14.52 47.1905 14.35C47.1339 14.1767 47.0489 14.0283 46.9355 13.905C46.8255 13.7783 46.6905 13.6817 46.5305 13.615C46.3705 13.545 46.1889 13.51 45.9855 13.51C45.5589 13.51 45.2205 13.635 44.9705 13.885C44.7239 14.1317 44.5705 14.475 44.5105 14.915H47.2805ZM48.0005 17.29C47.8905 17.4233 47.7589 17.54 47.6055 17.64C47.4522 17.7367 47.2872 17.8167 47.1105 17.88C46.9372 17.9433 46.7572 17.99 46.5705 18.02C46.3839 18.0533 46.1989 18.07 46.0155 18.07C45.6655 18.07 45.3422 18.0117 45.0455 17.895C44.7522 17.775 44.4972 17.6017 44.2805 17.375C44.0672 17.145 43.9005 16.8617 43.7805 16.525C43.6605 16.1883 43.6005 15.8017 43.6005 15.365C43.6005 15.0117 43.6539 14.6817 43.7605 14.375C43.8705 14.0683 44.0272 13.8033 44.2305 13.58C44.4339 13.3533 44.6822 13.1767 44.9755 13.05C45.2689 12.92 45.5989 12.855 45.9655 12.855C46.2689 12.855 46.5489 12.9067 46.8055 13.01C47.0655 13.11 47.2889 13.2567 47.4755 13.45C47.6655 13.64 47.8139 13.8767 47.9205 14.16C48.0272 14.44 48.0805 14.76 48.0805 15.12C48.0805 15.26 48.0655 15.3533 48.0355 15.4C48.0055 15.4467 47.9489 15.47 47.8655 15.47H44.4805C44.4905 15.79 44.5339 16.0683 44.6105 16.305C44.6905 16.5417 44.8005 16.74 44.9405 16.9C45.0805 17.0567 45.2472 17.175 45.4405 17.255C45.6339 17.3317 45.8505 17.37 46.0905 17.37C46.3139 17.37 46.5055 17.345 46.6655 17.295C46.8289 17.2417 46.9689 17.185 47.0855 17.125C47.2022 17.065 47.2989 17.01 47.3755 16.96C47.4555 16.9067 47.5239 16.88 47.5805 16.88C47.6539 16.88 47.7105 16.9083 47.7505 16.965L48.0005 17.29ZM50.6897 18.08C50.2897 18.08 49.9814 17.9683 49.7647 17.745C49.5514 17.5217 49.4447 17.2 49.4447 16.78V13.68H48.8347C48.7814 13.68 48.7364 13.665 48.6997 13.635C48.663 13.6017 48.6447 13.5517 48.6447 13.485V13.13L49.4747 13.025L49.6797 11.46C49.6897 11.41 49.7114 11.37 49.7447 11.34C49.7814 11.3067 49.828 11.29 49.8847 11.29H50.3347V13.035H51.7997V13.68H50.3347V16.72C50.3347 16.9333 50.3864 17.0917 50.4897 17.195C50.593 17.2983 50.7264 17.35 50.8897 17.35C50.983 17.35 51.063 17.3383 51.1297 17.315C51.1997 17.2883 51.2597 17.26 51.3097 17.23C51.3597 17.2 51.4014 17.1733 51.4347 17.15C51.4714 17.1233 51.503 17.11 51.5297 17.11C51.5764 17.11 51.618 17.1383 51.6547 17.195L51.9147 17.62C51.7614 17.7633 51.5764 17.8767 51.3597 17.96C51.143 18.04 50.9197 18.08 50.6897 18.08ZM56.0794 14.915C56.0794 14.7083 56.0494 14.52 55.9894 14.35C55.9327 14.1767 55.8477 14.0283 55.7344 13.905C55.6244 13.7783 55.4894 13.6817 55.3294 13.615C55.1694 13.545 54.9877 13.51 54.7844 13.51C54.3577 13.51 54.0194 13.635 53.7694 13.885C53.5227 14.1317 53.3694 14.475 53.3094 14.915H56.0794ZM56.7994 17.29C56.6894 17.4233 56.5577 17.54 56.4044 17.64C56.251 17.7367 56.086 17.8167 55.9094 17.88C55.736 17.9433 55.556 17.99 55.3694 18.02C55.1827 18.0533 54.9977 18.07 54.8144 18.07C54.4644 18.07 54.141 18.0117 53.8444 17.895C53.551 17.775 53.296 17.6017 53.0794 17.375C52.866 17.145 52.6994 16.8617 52.5794 16.525C52.4594 16.1883 52.3994 15.8017 52.3994 15.365C52.3994 15.0117 52.4527 14.6817 52.5594 14.375C52.6694 14.0683 52.826 13.8033 53.0294 13.58C53.2327 13.3533 53.481 13.1767 53.7744 13.05C54.0677 12.92 54.3977 12.855 54.7644 12.855C55.0677 12.855 55.3477 12.9067 55.6044 13.01C55.8644 13.11 56.0877 13.2567 56.2744 13.45C56.4644 13.64 56.6127 13.8767 56.7194 14.16C56.826 14.44 56.8794 14.76 56.8794 15.12C56.8794 15.26 56.8644 15.3533 56.8344 15.4C56.8044 15.4467 56.7477 15.47 56.6644 15.47H53.2794C53.2894 15.79 53.3327 16.0683 53.4094 16.305C53.4894 16.5417 53.5994 16.74 53.7394 16.9C53.8794 17.0567 54.046 17.175 54.2394 17.255C54.4327 17.3317 54.6494 17.37 54.8894 17.37C55.1127 17.37 55.3044 17.345 55.4644 17.295C55.6277 17.2417 55.7677 17.185 55.8844 17.125C56.001 17.065 56.0977 17.01 56.1744 16.96C56.2544 16.9067 56.3227 16.88 56.3794 16.88C56.4527 16.88 56.5094 16.9083 56.5494 16.965L56.7994 17.29Z" fill="white"/>
    <path fill-rule="evenodd" clip-rule="evenodd" d="M10 10.2871C10 10.0076 10.2266 9.78107 10.506 9.78107H22.6506C22.9301 9.78107 23.1566 10.0076 23.1566 10.2871C23.1566 10.5666 22.9301 10.7931 22.6506 10.7931H10.506C10.2266 10.7931 10 10.5666 10 10.2871Z" fill="white"/>
    <path fill-rule="evenodd" clip-rule="evenodd" d="M21.3743 16.7045C21.1765 18.4958 21.0776 19.3914 20.572 20.0097C20.3951 20.2258 20.1859 20.4133 19.9516 20.5653C19.2815 21 18.3805 21 16.5783 21C14.7762 21 13.8751 21 13.2051 20.5653C12.9708 20.4133 12.7615 20.2258 12.5847 20.0097C12.079 19.3914 11.9801 18.4957 11.7823 16.7045L11.022 9.8205H22.1346L21.3743 16.7045ZM18.7711 14.0608C18.7711 14.3403 18.5445 14.5669 18.265 14.5669H14.8915C14.6121 14.5669 14.3855 14.3403 14.3855 14.0608C14.3855 13.7814 14.6121 13.5548 14.8915 13.5548H18.265C18.5445 13.5548 18.7711 13.7814 18.7711 14.0608ZM17.253 17.2657C17.5324 17.2657 17.759 17.0391 17.759 16.7596C17.759 16.4802 17.5324 16.2536 17.253 16.2536H15.9036C15.6241 16.2536 15.3976 16.4802 15.3976 16.7596C15.3976 17.0391 15.6241 17.2657 15.9036 17.2657H17.253Z" fill="white"/>
    <path fill-rule="evenodd" clip-rule="evenodd" d="M15.4569 7C15.4677 7 15.4785 7.00001 15.4894 7.00001H17.6673C17.6782 7.00001 17.689 7 17.6998 7C18.0514 6.99997 18.366 6.99994 18.6203 7.03536C18.8989 7.07415 19.1786 7.16383 19.4054 7.39867C19.6298 7.63103 19.7131 7.91341 19.7495 8.19336C19.7832 8.45318 19.7832 8.77578 19.7832 9.14205V10.3009H18.7711V9.17315C18.7711 8.76638 18.7701 8.51048 18.7459 8.32365C18.7233 8.14962 18.6887 8.11346 18.6774 8.10168L18.6767 8.10102C18.6671 8.09094 18.637 8.05949 18.4807 8.03774C18.3046 8.0132 18.0616 8.01206 17.6673 8.01206H15.4894C15.0951 8.01206 14.8522 8.0132 14.676 8.03774C14.5197 8.05949 14.4896 8.09094 14.48 8.10102L14.4793 8.10168C14.468 8.11346 14.4334 8.14962 14.4108 8.32365C14.3866 8.51048 14.3856 8.76638 14.3856 9.17315V10.3009H13.3735V9.17315C13.3735 9.16274 13.3735 9.15237 13.3735 9.14204C13.3735 8.77578 13.3735 8.45318 13.4072 8.19336C13.4436 7.91341 13.5269 7.63103 13.7513 7.39867C13.9781 7.16383 14.2578 7.07415 14.5364 7.03536C14.7908 6.99994 15.1054 6.99997 15.4569 7Z" fill="white"/>
</svg>
