<svg width="16" height="16" viewBox="0 0 16 16" fill="none" xmlns="http://www.w3.org/2000/svg">
    <path fill-rule="evenodd" clip-rule="evenodd" d="M5.35978 0.305512C7.09634 -0.101837 8.90362 -0.101837 10.6402 0.305512C13.1481 0.893777 15.1063 2.85193 15.6945 5.35978C16.1018 7.09634 16.1018 8.90362 15.6945 10.6402C15.1063 13.1481 13.1481 15.1063 10.6402 15.6945C8.90362 16.1018 7.09634 16.1018 5.35978 15.6945C2.85193 15.1063 0.893777 13.1481 0.305512 10.6402C-0.101837 8.90362 -0.101837 7.09634 0.305512 5.35977C0.893777 2.85192 2.85192 0.893777 5.35978 0.305512ZM8.53331 5.87268C8.53331 5.57813 8.29456 5.33935 7.99998 5.33935C7.7054 5.33935 7.46665 5.57813 7.46665 5.87268V7.46665H5.87268C5.57813 7.46665 5.33935 7.7054 5.33935 7.99998C5.33935 8.29456 5.57813 8.53331 5.87268 8.53331H7.46665V10.1273C7.46665 10.4218 7.7054 10.6606 7.99998 10.6606C8.29456 10.6606 8.53331 10.4218 8.53331 10.1273V8.53331H10.1273C10.4218 8.53331 10.6606 8.29456 10.6606 7.99998C10.6606 7.7054 10.4218 7.46665 10.1273 7.46665H8.53331V5.87268Z" fill="white"/>
</svg>
