<svg width="40" height="40" viewBox="0 0 40 40" fill="none" xmlns="http://www.w3.org/2000/svg">
    <rect opacity="0.3" width="40" height="40" rx="16" fill="white"/>
    <path fill-rule="evenodd" clip-rule="evenodd" d="M16.6997 10.3819C18.8704 9.8727 21.1295 9.8727 23.3003 10.3819C26.4351 11.1172 28.8828 13.5649 29.6182 16.6997C30.1273 18.8704 30.1273 21.1295 29.6182 23.3003C28.8828 26.4351 26.4351 28.8828 23.3003 29.6182C21.1295 30.1273 18.8704 30.1273 16.6997 29.6182C13.5649 28.8828 11.1172 26.4351 10.3819 23.3003C9.8727 21.1295 9.8727 18.8704 10.3819 16.6997C11.1172 13.5649 13.5649 11.1172 16.6997 10.3819ZM20.6666 17.3408C20.6666 16.9727 20.3682 16.6742 20 16.6742C19.6318 16.6742 19.3333 16.9727 19.3333 17.3408V19.3333H17.3408C16.9727 19.3333 16.6742 19.6318 16.6742 20C16.6742 20.3682 16.9727 20.6666 17.3408 20.6666H19.3333V22.6591C19.3333 23.0273 19.6318 23.3257 20 23.3257C20.3682 23.3257 20.6666 23.0273 20.6666 22.6591V20.6666H22.6591C23.0273 20.6666 23.3257 20.3682 23.3257 20C23.3257 19.6318 23.0273 19.3333 22.6591 19.3333H20.6666V17.3408Z" fill="white"/>
</svg>
