<svg width="27" height="32" viewBox="0 0 27 32" fill="none" xmlns="http://www.w3.org/2000/svg">
    <path d="M22.4392 16.9194C22.4152 15.687 22.7356 14.4725 23.3646 13.4125C23.9936 12.3526 24.9059 11.4891 25.9991 10.9196C25.3107 9.9625 24.4117 9.17627 23.3716 8.62147C22.3312 8.06669 21.1777 7.75818 19.9993 7.71972C17.4594 7.51973 14.6995 9.19967 13.6795 9.19967C12.6596 9.19967 10.1397 7.79972 8.2197 7.79972C4.21985 7.79972 0 10.9796 0 17.3194C0.0192793 19.2955 0.363886 21.255 1.01996 23.1192C1.89993 25.6791 5.19981 32.0988 8.63969 31.9988C10.4396 31.9988 11.7196 30.7189 14.0595 30.7189C16.3994 30.7189 17.4994 31.9988 19.5193 31.9988C22.9792 31.9988 25.9791 26.0991 26.839 23.4792C25.5369 22.9466 24.4229 22.0382 23.6394 20.8698C22.8556 19.7015 22.4378 18.3261 22.4392 16.9194ZM18.4394 5.17981C19.0607 4.47914 19.5293 3.65665 19.8151 2.7648C20.1009 1.87295 20.1977 0.931346 20.0993 0C18.232 0.204773 16.5072 1.09566 15.2595 2.49991C14.6143 3.17971 14.1161 3.98518 13.7961 4.86606C13.4761 5.74695 13.3411 6.68434 13.3995 7.61972C14.3679 7.64694 15.3287 7.43921 16.1992 7.01431C17.07 6.5894 17.8248 5.95997 18.3994 5.17981H18.4394Z" fill="white"/>
</svg>
