<svg width="42" height="42" viewBox="0 0 42 42" fill="none" xmlns="http://www.w3.org/2000/svg">
    <path d="M26.5 1H15.5C7.49187 1 1 7.49187 1 15.5V26.5C1 34.5081 7.49187 41 15.5 41H26.5C34.5081 41 41 34.5081 41 26.5V15.5C41 7.49187 34.5081 1 26.5 1Z" fill="white" fill-opacity="0.1" stroke="#E7E7E7" stroke-opacity="0.18"/>
    <path fill-rule="evenodd" clip-rule="evenodd" d="M24.4741 26.514C24.3961 26.5921 24.3035 26.6539 24.2015 26.6962C24.0996 26.7384 23.9904 26.7601 23.8801 26.7601C23.7697 26.7601 23.6605 26.7384 23.5586 26.6962C23.4567 26.6539 23.3641 26.5921 23.2861 26.514L18.2461 21.474C18.1681 21.396 18.1062 21.3034 18.0639 21.2015C18.0217 21.0996 18 20.9904 18 20.88C18 20.7697 18.0217 20.6605 18.0639 20.5586C18.1062 20.4566 18.1681 20.364 18.2461 20.286L23.2861 15.246C23.4436 15.0885 23.6573 15 23.8801 15C24.1029 15 24.3165 15.0885 24.4741 15.246C24.6316 15.4036 24.7201 15.6172 24.7201 15.84C24.7201 16.0628 24.6316 16.2765 24.4741 16.434L20.0281 20.88L24.4741 25.326C24.5521 25.404 24.614 25.4966 24.6562 25.5986C24.6984 25.7005 24.7201 25.8097 24.7201 25.92C24.7201 26.0304 24.6984 26.1396 24.6562 26.2415C24.614 26.3434 24.5521 26.436 24.4741 26.514Z" fill="white"/>
</svg>
