<svg width="120" height="120" viewBox="0 0 120 120" fill="none" xmlns="http://www.w3.org/2000/svg">
    <path d="M60 118.5C52.1 118.5 44.4404 116.953 37.2296 113.903C33.7639 112.438 30.4205 110.623 27.2931 108.51C24.1953 106.417 21.2818 104.013 18.6343 101.366C15.9867 98.7182 13.5828 95.8046 11.49 92.7069C9.3772 89.5795 7.56249 86.2361 6.0966 82.7704C3.04669 75.5596 1.5 67.9 1.5 60C1.5 52.1 3.04669 44.4404 6.0966 37.2296C7.56249 33.7639 9.3772 30.4205 11.49 27.2931C13.5828 24.1953 15.9867 21.2818 18.6343 18.6343L17.9272 17.9272L18.6343 18.6343C21.2818 15.9867 24.1953 13.5828 27.2931 11.49C30.4205 9.3772 33.7639 7.56249 37.2296 6.0966C44.4404 3.04669 52.1 1.5 60 1.5C67.9 1.5 75.5596 3.04669 82.7704 6.0966C86.2361 7.56249 89.5795 9.3772 92.7069 11.49C95.8046 13.5828 98.7182 15.9867 101.366 18.6343C104.013 21.2818 106.417 24.1953 108.51 27.2931C110.623 30.4205 112.438 33.7639 113.903 37.2296C116.953 44.4404 118.5 52.1 118.5 60C118.5 67.9 116.953 75.5596 113.903 82.7704C112.438 86.2361 110.623 89.5795 108.51 92.7069C106.417 95.8046 104.013 98.7182 101.366 101.366C98.7182 104.013 95.8046 106.417 92.7069 108.51C89.5795 110.623 86.2361 112.438 82.7704 113.903C75.5596 116.953 67.9 118.5 60 118.5Z" stroke="#00D8FA" stroke-width="2"/>
    <mask id="path-2-inside-1_0_1" fill="white">
        <path d="M60 1C52.0346 1 44.308 2.55981 37.0349 5.6361C33.5391 7.11469 30.1673 8.94483 27.0132 11.0757C23.8889 13.1865 20.9508 15.6106 18.2807 18.2807C15.6106 20.9508 13.1865 23.8889 11.0757 27.0132C8.94483 30.1673 7.11469 33.5391 5.6361 37.0349C2.55981 44.308 1 52.0346 1 60C1 67.9654 2.55981 75.692 5.6361 82.9651C7.11469 86.4609 8.94483 89.8327 11.0757 92.9868C13.1865 96.1111 15.6106 99.0492 18.2807 101.719C20.9508 104.389 23.8889 106.814 27.0132 108.924C30.1673 111.055 33.5391 112.885 37.0349 114.364C44.308 117.44 52.0346 119 60 119C67.9654 119 75.692 117.44 82.9651 114.364C86.4609 112.885 89.8327 111.055 92.9868 108.924C96.1111 106.814 99.0492 104.389 101.719 101.719C104.389 99.0492 106.814 96.1111 108.924 92.9868C111.055 89.8327 112.885 86.4609 114.364 82.9651C117.44 75.692 119 67.9654 119 60C119 52.0346 117.44 44.308 114.364 37.0349C112.885 33.5391 111.055 30.1673 108.924 27.0132C106.814 23.8889 104.389 20.9508 101.719 18.2807C99.0492 15.6106 96.1111 13.1865 92.9868 11.0757C89.8327 8.94483 86.4609 7.11469 82.9651 5.6361C75.692 2.55981 67.9654 1 60 1ZM60 0C93.1371 0 120 26.8629 120 60C120 93.1371 93.1371 120 60 120C26.8629 120 0 93.1371 0 60C0 26.8629 26.8629 0 60 0Z"/>
    </mask>
    <path d="M60 1C52.0346 1 44.308 2.55981 37.0349 5.6361C33.5391 7.11469 30.1673 8.94483 27.0132 11.0757C23.8889 13.1865 20.9508 15.6106 18.2807 18.2807C15.6106 20.9508 13.1865 23.8889 11.0757 27.0132C8.94483 30.1673 7.11469 33.5391 5.6361 37.0349C2.55981 44.308 1 52.0346 1 60C1 67.9654 2.55981 75.692 5.6361 82.9651C7.11469 86.4609 8.94483 89.8327 11.0757 92.9868C13.1865 96.1111 15.6106 99.0492 18.2807 101.719C20.9508 104.389 23.8889 106.814 27.0132 108.924C30.1673 111.055 33.5391 112.885 37.0349 114.364C44.308 117.44 52.0346 119 60 119C67.9654 119 75.692 117.44 82.9651 114.364C86.4609 112.885 89.8327 111.055 92.9868 108.924C96.1111 106.814 99.0492 104.389 101.719 101.719C104.389 99.0492 106.814 96.1111 108.924 92.9868C111.055 89.8327 112.885 86.4609 114.364 82.9651C117.44 75.692 119 67.9654 119 60C119 52.0346 117.44 44.308 114.364 37.0349C112.885 33.5391 111.055 30.1673 108.924 27.0132C106.814 23.8889 104.389 20.9508 101.719 18.2807C99.0492 15.6106 96.1111 13.1865 92.9868 11.0757C89.8327 8.94483 86.4609 7.11469 82.9651 5.6361C75.692 2.55981 67.9654 1 60 1ZM60 0C93.1371 0 120 26.8629 120 60C120 93.1371 93.1371 120 60 120C26.8629 120 0 93.1371 0 60C0 26.8629 26.8629 0 60 0Z" fill="#00D8FA"/>
    <path d="M37.0349 5.6361L37.814 7.47811V7.47811L37.0349 5.6361ZM27.0132 11.0757L25.8936 9.41844L25.8936 9.41844L27.0132 11.0757ZM18.2807 18.2807L19.6949 19.6949L19.6949 19.6949L18.2807 18.2807ZM11.0757 27.0132L9.41844 25.8936L9.41844 25.8936L11.0757 27.0132ZM5.6361 37.0349L7.47811 37.814H7.47811L5.6361 37.0349ZM5.6361 82.9651L7.47811 82.1861L7.47811 82.186L5.6361 82.9651ZM11.0757 92.9868L9.41844 94.1064L9.41844 94.1064L11.0757 92.9868ZM18.2807 101.719L19.6949 100.305H19.6949L18.2807 101.719ZM27.0132 108.924L25.8936 110.582H25.8936L27.0132 108.924ZM37.0349 114.364L37.814 112.522L37.0349 114.364ZM82.9651 114.364L82.1861 112.522H82.186L82.9651 114.364ZM92.9868 108.924L94.1064 110.582V110.582L92.9868 108.924ZM108.924 92.9868L110.582 94.1064H110.582L108.924 92.9868ZM114.364 82.9651L112.522 82.186V82.1861L114.364 82.9651ZM114.364 37.0349L112.522 37.814L114.364 37.0349ZM108.924 27.0132L110.582 25.8936V25.8936L108.924 27.0132ZM101.719 18.2807L100.305 19.6949V19.6949L101.719 18.2807ZM92.9868 11.0757L94.1064 9.41844L94.1064 9.41844L92.9868 11.0757ZM82.9651 5.6361L82.186 7.47811L82.1861 7.47811L82.9651 5.6361ZM60 -1C51.7693 -1 43.7776 0.612615 36.2557 3.79409L37.814 7.47811C44.8384 4.50701 52.2999 3 60 3V-1ZM36.2557 3.79409C32.6404 5.32324 29.1547 7.21533 25.8936 9.41844L28.1328 12.7329C31.18 10.6743 34.4377 8.90613 37.814 7.47811L36.2557 3.79409ZM25.8936 9.41844C22.6634 11.6008 19.6267 14.1063 16.8665 16.8665L19.6949 19.6949C22.2749 17.1149 25.1144 14.7722 28.1329 12.7329L25.8936 9.41844ZM16.8665 16.8665C14.1063 19.6267 11.6008 22.6634 9.41844 25.8936L12.7329 28.1329C14.7722 25.1144 17.1149 22.2749 19.6949 19.6949L16.8665 16.8665ZM9.41844 25.8936C7.21533 29.1547 5.32324 32.6404 3.79409 36.2557L7.47811 37.814C8.90613 34.4377 10.6743 31.18 12.7329 28.1328L9.41844 25.8936ZM3.79409 36.2557C0.612615 43.7776 -1 51.7693 -1 60H3C3 52.2999 4.50701 44.8384 7.47811 37.814L3.79409 36.2557ZM-1 60C-1 68.2307 0.612615 76.2224 3.79409 83.7443L7.47811 82.186C4.50701 75.1616 3 67.7001 3 60H-1ZM3.79409 83.7442C5.32324 87.3596 7.21533 90.8454 9.41844 94.1064L12.7329 91.8672C10.6743 88.82 8.90613 85.5623 7.47811 82.1861L3.79409 83.7442ZM9.41844 94.1064C11.6008 97.3366 14.1063 100.373 16.8665 103.134L19.6949 100.305C17.1149 97.7251 14.7722 94.8856 12.7329 91.8671L9.41844 94.1064ZM16.8665 103.134C19.6267 105.894 22.6634 108.399 25.8936 110.582L28.1329 107.267C25.1144 105.228 22.2749 102.885 19.6949 100.305L16.8665 103.134ZM25.8936 110.582C29.1547 112.785 32.6404 114.677 36.2557 116.206L37.814 112.522C34.4377 111.094 31.18 109.326 28.1328 107.267L25.8936 110.582ZM36.2557 116.206C43.7776 119.387 51.7693 121 60 121V117C52.2999 117 44.8384 115.493 37.814 112.522L36.2557 116.206ZM60 121C68.2307 121 76.2224 119.387 83.7443 116.206L82.186 112.522C75.1616 115.493 67.7001 117 60 117V121ZM83.7442 116.206C87.3596 114.677 90.8454 112.785 94.1064 110.582L91.8672 107.267C88.82 109.326 85.5623 111.094 82.1861 112.522L83.7442 116.206ZM94.1064 110.582C97.3366 108.399 100.373 105.894 103.134 103.134L100.305 100.305C97.7251 102.885 94.8856 105.228 91.8672 107.267L94.1064 110.582ZM103.134 103.134C105.894 100.373 108.399 97.3366 110.582 94.1064L107.267 91.8672C105.228 94.8856 102.885 97.7251 100.305 100.305L103.134 103.134ZM110.582 94.1064C112.785 90.8454 114.677 87.3596 116.206 83.7442L112.522 82.1861C111.094 85.5623 109.326 88.82 107.267 91.8672L110.582 94.1064ZM116.206 83.7443C119.387 76.2224 121 68.2307 121 60H117C117 67.7001 115.493 75.1616 112.522 82.186L116.206 83.7443ZM121 60C121 51.7693 119.387 43.7776 116.206 36.2557L112.522 37.814C115.493 44.8384 117 52.2999 117 60H121ZM116.206 36.2557C114.677 32.6404 112.785 29.1547 110.582 25.8936L107.267 28.1328C109.326 31.18 111.094 34.4377 112.522 37.814L116.206 36.2557ZM110.582 25.8936C108.399 22.6634 105.894 19.6267 103.134 16.8665L100.305 19.6949C102.885 22.2749 105.228 25.1144 107.267 28.1329L110.582 25.8936ZM103.134 16.8665C100.373 14.1063 97.3366 11.6008 94.1064 9.41844L91.8671 12.7329C94.8856 14.7722 97.7251 17.1149 100.305 19.6949L103.134 16.8665ZM94.1064 9.41844C90.8454 7.21533 87.3596 5.32324 83.7442 3.79409L82.1861 7.47811C85.5623 8.90613 88.82 10.6743 91.8672 12.7329L94.1064 9.41844ZM83.7443 3.79409C76.2224 0.612615 68.2307 -1 60 -1V3C67.7001 3 75.1616 4.50701 82.186 7.47811L83.7443 3.79409ZM60 2C92.0325 2 118 27.9675 118 60H122C122 25.7583 94.2417 -2 60 -2V2ZM118 60C118 92.0325 92.0325 118 60 118V122C94.2417 122 122 94.2417 122 60H118ZM60 118C27.9675 118 2 92.0325 2 60H-2C-2 94.2417 25.7583 122 60 122V118ZM2 60C2 27.9675 27.9675 2 60 2V-2C25.7583 -2 -2 25.7583 -2 60H2Z" fill="#00D8FA" mask="url(#path-2-inside-1_0_1)"/>
    <path d="M48.5 45.9912C48.5 44.3344 47.1569 42.9912 45.5 42.9912C43.8431 42.9912 42.5 44.3344 42.5 45.9912V48.9912C42.5 50.6481 43.8431 51.9912 45.5 51.9912C47.1569 51.9912 48.5 50.6481 48.5 48.9912V45.9912Z" stroke="#00D8FA" stroke-width="2"/>
    <path d="M55.4932 48.291L59.229 42.0571H73.0181L76.894 48.0923" stroke="#00D8FA" stroke-width="2" stroke-linejoin="round"/>
    <g filter="url(#filter0_d_0_1)">
        <path d="M80.5 46.9912H39.5C36.7386 46.9912 34.5 49.2298 34.5 51.9912V76.9912C34.5 79.7526 36.7386 81.9912 39.5 81.9912H80.5C83.2614 81.9912 85.5 79.7526 85.5 76.9912V51.9912C85.5 49.2298 83.2614 46.9912 80.5 46.9912Z" fill="#00D8FA"/>
    </g>
    <g filter="url(#filter1_d_0_1)">
        <path d="M41.9932 54.4912H49.0093" stroke="#252934" stroke-width="2" stroke-linecap="round"/>
    </g>
    <g filter="url(#filter2_d_0_1)">
        <path d="M66.5 72.2412C70.5041 72.2412 73.75 68.9953 73.75 64.9912C73.75 60.9871 70.5041 57.7412 66.5 57.7412C62.4959 57.7412 59.25 60.9871 59.25 64.9912C59.25 68.9953 62.4959 72.2412 66.5 72.2412Z" stroke="#252934" stroke-width="1.5"/>
    </g>
    <g filter="url(#filter3_d_0_1)">
        <path d="M63.355 53.2134C69.7256 51.3866 76.371 55.0702 78.1978 61.4409C80.0245 67.8116 76.3409 74.4569 69.9703 76.2837C63.5996 78.1105 56.9542 74.4269 55.1275 68.0562C55.1252 68.0484 55.123 68.0405 55.1208 68.0327C55.1203 68.0312 55.1199 68.0297 55.1195 68.0282C55.1194 68.0278 55.1192 68.0273 55.1191 68.0269C55.1183 68.0241 55.1176 68.0215 55.1168 68.0188C55.1166 68.018 55.1165 68.0176 55.1162 68.0168C55.1155 68.0143 55.1149 68.012 55.1142 68.0095C55.114 68.0087 55.1137 68.0076 55.1134 68.0068C55.1119 68.0014 55.1104 67.9962 55.1089 67.9908C55.1086 67.9896 55.1083 67.9885 55.1079 67.9873C55.1074 67.9853 55.1068 67.9834 55.1063 67.9814C55.1059 67.9799 55.1053 67.978 55.1049 67.9765C55.1045 67.9749 55.1041 67.9737 55.1037 67.9721C55.1031 67.9702 55.1027 67.9687 55.1022 67.9668C55.1018 67.9654 55.1015 67.9641 55.1011 67.9628C55.1005 67.9608 55.1001 67.9592 55.0996 67.9573C55.0992 67.9559 55.0989 67.9548 55.0985 67.9534C55.0981 67.9519 55.0975 67.95 55.0971 67.9485C55.0967 67.9469 55.0963 67.9456 55.0959 67.9441C55.0955 67.9425 55.0951 67.9413 55.0947 67.9397C55.0942 67.938 55.0938 67.9365 55.0933 67.9347C55.0929 67.9332 55.0926 67.932 55.0922 67.9305C55.0917 67.9287 55.0912 67.9271 55.0907 67.9254C55.0903 67.9238 55.0899 67.9223 55.0895 67.9208C55.089 67.9192 55.0886 67.9176 55.0882 67.9161C55.0878 67.9145 55.0873 67.9129 55.0869 67.9113C55.0865 67.9098 55.086 67.9082 55.0856 67.9067C55.0851 67.9047 55.0847 67.9033 55.0842 67.9013C55.0838 67.8999 55.0835 67.8988 55.0831 67.8974C55.0826 67.8954 55.082 67.8933 55.0814 67.8913C55.0811 67.8902 55.0809 67.8892 55.0805 67.888C55.08 67.8861 55.0795 67.8841 55.0789 67.8821C55.0786 67.881 55.0783 67.8799 55.078 67.8787C55.0776 67.8771 55.0771 67.8754 55.0767 67.8738C55.0763 67.8723 55.0759 67.8708 55.0755 67.8693C55.0751 67.8677 55.0747 67.8665 55.0743 67.8649C55.0738 67.8632 55.0734 67.8617 55.073 67.8599C55.0725 67.8584 55.0721 67.8568 55.0717 67.8552C55.0713 67.8537 55.0709 67.8522 55.0705 67.8506C55.07 67.849 55.0696 67.8473 55.0692 67.8458C55.0687 67.8442 55.0684 67.8428 55.068 67.8413C55.0675 67.8397 55.0671 67.8381 55.0667 67.8366C55.0663 67.835 55.0659 67.8335 55.0655 67.8319C55.065 67.8303 55.0647 67.8289 55.0643 67.8274C55.0638 67.8256 55.0634 67.8243 55.063 67.8225C55.0626 67.821 55.0622 67.8197 55.0618 67.8181C55.0613 67.8163 55.061 67.815 55.0605 67.8132C55.0601 67.8116 55.0596 67.81 55.0592 67.8084C55.0588 67.8068 55.0584 67.8054 55.058 67.8039C55.0576 67.8023 55.0572 67.8006 55.0568 67.7991C55.0564 67.7975 55.056 67.7961 55.0556 67.7945C55.0552 67.7929 55.0547 67.7913 55.0543 67.7897C55.0539 67.7882 55.0535 67.7867 55.0531 67.7851C55.0527 67.7836 55.0524 67.7823 55.0519 67.7807C55.0515 67.7789 55.0511 67.7775 55.0507 67.7758C55.0502 67.7742 55.0499 67.7729 55.0495 67.7713C55.0491 67.7698 55.0486 67.768 55.0482 67.7664C55.0478 67.7649 55.0474 67.7634 55.047 67.7618C55.0466 67.7603 55.0462 67.7587 55.0458 67.7571C55.0454 67.7555 55.045 67.7539 55.0445 67.7523C55.0442 67.7509 55.0437 67.7491 55.0434 67.7477C55.043 67.7462 55.0426 67.7447 55.0422 67.7431C55.0418 67.7415 55.0414 67.7399 55.0409 67.7384C55.0405 67.7368 55.0401 67.7352 55.0397 67.7336C55.0394 67.7323 55.0389 67.7304 55.0385 67.729C55.0381 67.7275 55.0377 67.7257 55.0373 67.7241C55.0369 67.7227 55.0365 67.7211 55.0362 67.7197C55.0358 67.7181 55.0353 67.7164 55.0349 67.7148C55.0346 67.7135 55.0341 67.7117 55.0337 67.7103C55.0334 67.7088 55.0329 67.7071 55.0325 67.7056C55.0322 67.7042 55.0317 67.7024 55.0314 67.701C55.0309 67.6991 55.0306 67.6979 55.0301 67.6959C55.0297 67.6946 55.0293 67.693 55.029 67.6916C55.0285 67.6897 55.0282 67.6886 55.0277 67.6866C55.0274 67.6853 55.027 67.6837 55.0266 67.6823C55.0261 67.6804 55.0258 67.6789 55.0253 67.6769C55.0249 67.6755 55.0246 67.6743 55.0243 67.673C55.0238 67.671 55.0234 67.6695 55.0229 67.6676C55.0226 67.6662 55.0223 67.665 55.0219 67.6636C55.0214 67.6617 55.0211 67.6602 55.0206 67.6582C55.0202 67.6569 55.0199 67.6556 55.0196 67.6543C55.0191 67.6523 55.0188 67.6511 55.0183 67.6491C55.018 67.6477 55.0176 67.6462 55.0172 67.6449C55.0168 67.6429 55.0164 67.6416 55.0159 67.6396C55.0156 67.6383 55.0153 67.6369 55.0149 67.6355C55.0144 67.6336 55.0142 67.6325 55.0137 67.6305C55.0133 67.6292 55.0129 67.6275 55.0126 67.6261C55.0122 67.6246 55.0118 67.6231 55.0114 67.6216C55.0111 67.62 55.0106 67.6183 55.0103 67.6167C55.0099 67.6152 55.0096 67.6141 55.0092 67.6126C55.0088 67.6108 55.0084 67.6091 55.0079 67.6074C55.0076 67.6058 55.0073 67.6045 55.0069 67.603C55.0065 67.6014 55.006 67.5996 55.0057 67.598C55.0053 67.5965 55.005 67.5953 55.0046 67.5938C55.0042 67.5922 55.0037 67.5902 55.0034 67.5886C55.003 67.5871 55.0027 67.586 55.0023 67.5845C55.0019 67.5827 55.0015 67.581 55.0011 67.5793C55.0007 67.5777 55.0005 67.5767 55.0001 67.5752C54.9997 67.5734 54.9992 67.5717 54.9988 67.5699C54.9984 67.5684 54.9982 67.5674 54.9978 67.5658C54.9974 67.564 54.997 67.5623 54.9965 67.5606C54.9962 67.559 54.9959 67.5581 54.9956 67.5565C54.9951 67.5548 54.9947 67.553 54.9943 67.5512C54.9939 67.5497 54.9936 67.5485 54.9932 67.5469C54.9929 67.5453 54.9924 67.5434 54.992 67.5419C54.9917 67.5403 54.9914 67.5393 54.991 67.5378C54.9906 67.536 54.9902 67.5342 54.9898 67.5325C54.9895 67.5313 54.9891 67.5295 54.9888 67.5283C54.9884 67.5266 54.988 67.5249 54.9876 67.5232C54.9873 67.522 54.9868 67.5202 54.9866 67.519C54.9861 67.5172 54.9857 67.5155 54.9853 67.5138C54.985 67.5126 54.9846 67.5108 54.9843 67.5097C54.9839 67.5079 54.9835 67.5061 54.9831 67.5044C54.9828 67.5032 54.9825 67.5019 54.9822 67.5007C54.9818 67.4988 54.9813 67.4969 54.9809 67.495C54.9806 67.4938 54.9803 67.4926 54.98 67.4915C54.9796 67.4895 54.9791 67.4876 54.9787 67.4856C54.9784 67.4845 54.9781 67.4832 54.9778 67.482C54.9774 67.4801 54.9769 67.4782 54.9765 67.4763C54.9762 67.4751 54.9759 67.4737 54.9756 67.4726C54.9752 67.4708 54.9747 67.4687 54.9743 67.4669C54.974 67.4657 54.9737 67.4644 54.9734 67.4632C54.973 67.4614 54.9725 67.4594 54.9721 67.4576C54.9718 67.4565 54.9714 67.4545 54.9711 67.4534C54.9707 67.4516 54.9703 67.45 54.9699 67.4483C54.9697 67.4471 54.9693 67.4453 54.969 67.4441C54.9686 67.4424 54.9682 67.4406 54.9678 67.4389C54.9675 67.4377 54.9671 67.4361 54.9669 67.435C54.9665 67.4332 54.966 67.4312 54.9656 67.4295C54.9653 67.4283 54.965 67.4269 54.9647 67.4257C54.9643 67.424 54.9639 67.4219 54.9635 67.4202C54.9632 67.419 54.9628 67.4173 54.9625 67.4161C54.9621 67.4144 54.9617 67.4125 54.9613 67.4108C54.961 67.4096 54.9607 67.4082 54.9605 67.407C54.9601 67.4052 54.9596 67.4032 54.9592 67.4014C54.9589 67.4002 54.9585 67.3985 54.9583 67.3974C54.9579 67.3956 54.9575 67.3939 54.9571 67.3921C54.9568 67.391 54.9564 67.389 54.9561 67.3878C54.9557 67.3861 54.9553 67.3845 54.9549 67.3827C54.9547 67.3816 54.9543 67.3797 54.954 67.3786C54.9536 67.3768 54.9532 67.3751 54.9528 67.3733C54.9526 67.3722 54.9522 67.3705 54.9519 67.3693C54.9515 67.3675 54.9511 67.3658 54.9507 67.364C54.9505 67.3629 54.9501 67.361 54.9498 67.3598C54.9494 67.3581 54.949 67.3564 54.9486 67.3546C54.9484 67.3534 54.948 67.3519 54.9477 67.3507C54.9474 67.3489 54.9469 67.347 54.9465 67.3453C54.9463 67.3441 54.9459 67.3423 54.9456 67.3412C54.9452 67.3394 54.9448 67.3376 54.9445 67.3359C54.9442 67.3347 54.9438 67.333 54.9436 67.3319C54.9432 67.3301 54.9428 67.3283 54.9424 67.3266C54.9421 67.3254 54.9417 67.3235 54.9415 67.3223C54.9411 67.3206 54.9407 67.319 54.9403 67.3172C54.9401 67.316 54.9397 67.3142 54.9394 67.313C54.939 67.3113 54.9387 67.3096 54.9383 67.3078C54.938 67.3067 54.9376 67.3048 54.9373 67.3036C54.937 67.3018 54.9366 67.3003 54.9362 67.2985C54.936 67.2973 54.9355 67.2953 54.9353 67.2942C54.9349 67.2924 54.9346 67.2909 54.9342 67.2891C54.9339 67.288 54.9335 67.2861 54.9333 67.2849C54.9329 67.2832 54.9325 67.2815 54.9321 67.2797C54.9319 67.2785 54.9315 67.2768 54.9313 67.2757C54.9309 67.2739 54.9305 67.2721 54.9301 67.2704C54.9299 67.2692 54.9294 67.2673 54.9292 67.2661C54.9288 67.2643 54.9285 67.2628 54.9281 67.2611C54.9278 67.2595 54.9275 67.2582 54.9272 67.2566C54.9268 67.2549 54.9265 67.2535 54.9261 67.2517C54.9258 67.2505 54.9254 67.2485 54.9252 67.2473C54.9248 67.2456 54.9245 67.244 54.9241 67.2423C54.9238 67.2411 54.9234 67.2392 54.9232 67.2381C54.9228 67.2363 54.9225 67.2347 54.9221 67.233C54.9218 67.2314 54.9215 67.2301 54.9212 67.2285C54.9208 67.2268 54.9205 67.2254 54.9201 67.2236C54.9199 67.2224 54.9195 67.2205 54.9192 67.2194C54.9188 67.2176 54.9185 67.2159 54.9181 67.2142C54.9179 67.213 54.9175 67.2111 54.9172 67.21C54.9169 67.2082 54.9165 67.2066 54.9162 67.2049C54.9159 67.2037 54.9155 67.2017 54.9153 67.2005C54.9149 67.1988 54.9146 67.1973 54.9142 67.1955C54.9139 67.194 54.9136 67.1927 54.9133 67.1911C54.9129 67.1894 54.9126 67.1879 54.9122 67.1861C54.9119 67.1846 54.9117 67.1834 54.9113 67.1818C54.911 67.1801 54.9107 67.1785 54.9103 67.1768C54.91 67.1752 54.9097 67.1739 54.9094 67.1724C54.909 67.1706 54.9087 67.1692 54.9083 67.1674C54.9081 67.1663 54.9077 67.1643 54.9075 67.1632C54.9071 67.1614 54.9068 67.1598 54.9064 67.158C54.9061 67.1565 54.9059 67.1553 54.9055 67.1538C54.9052 67.152 54.9048 67.1504 54.9045 67.1487C54.9042 67.1471 54.9039 67.1459 54.9036 67.1443C54.9033 67.1428 54.9029 67.1409 54.9026 67.1394C54.9023 67.1378 54.902 67.1364 54.9017 67.1348C54.9013 67.1333 54.901 67.1316 54.9007 67.13C54.9003 67.1284 54.9001 67.1272 54.8998 67.1256C54.8994 67.1239 54.8991 67.1223 54.8988 67.1206C54.8985 67.1194 54.8981 67.1175 54.8979 67.1164C54.8975 67.1146 54.8972 67.113 54.8969 67.1112C54.8966 67.11 54.8962 67.1082 54.896 67.107C54.8957 67.1054 54.8953 67.1034 54.895 67.1019C54.8947 67.1007 54.8944 67.0988 54.8941 67.0977C54.8938 67.0959 54.8934 67.0942 54.8931 67.0924C54.8928 67.0913 54.8925 67.0896 54.8923 67.0885C54.8919 67.0865 54.8916 67.085 54.8912 67.0831C54.891 67.0819 54.8906 67.0802 54.8904 67.079C54.89 67.0771 54.8897 67.0757 54.8893 67.0737C54.8891 67.0725 54.8888 67.0709 54.8886 67.0698C54.8882 67.0678 54.8879 67.0663 54.8875 67.0643C54.8873 67.0631 54.8869 67.0616 54.8867 67.0604C54.8863 67.0585 54.886 67.0569 54.8856 67.0549C54.8854 67.0538 54.8851 67.0523 54.8849 67.0511C54.8845 67.0491 54.8842 67.0475 54.8838 67.0456C54.8836 67.0444 54.8832 67.0428 54.883 67.0416C54.8826 67.0397 54.8823 67.0382 54.882 67.0362C54.8817 67.0351 54.8814 67.0336 54.8812 67.0324C54.8808 67.0304 54.8805 67.0288 54.8801 67.0268C54.8799 67.0257 54.8796 67.0241 54.8794 67.0229C54.879 67.0212 54.8787 67.0193 54.8783 67.0175C54.8781 67.0164 54.8778 67.0147 54.8776 67.0136C54.8772 67.0118 54.8768 67.0099 54.8765 67.0081C54.8763 67.007 54.876 67.0053 54.8757 67.0041C54.8754 67.0024 54.875 67.0006 54.8747 66.9988C54.8745 66.9976 54.8742 66.996 54.874 66.9949C54.8736 66.9929 54.8733 66.9913 54.8729 66.9894C54.8727 66.9882 54.8724 66.9868 54.8722 66.9856C54.8718 66.9838 54.8715 66.9818 54.8711 66.98C54.8709 66.9788 54.8706 66.9773 54.8704 66.9762C54.8701 66.9744 54.8697 66.9725 54.8694 66.9707C54.8691 66.9692 54.8689 66.9681 54.8686 66.9665C54.8682 66.9648 54.8679 66.9631 54.8676 66.9614C54.8673 66.9598 54.8671 66.9588 54.8668 66.9573C54.8665 66.9555 54.8662 66.9538 54.8658 66.952C54.8655 66.9505 54.8653 66.9493 54.865 66.9477C54.8647 66.9461 54.8644 66.9442 54.8641 66.9427C54.8638 66.9411 54.8636 66.9401 54.8633 66.9385C54.863 66.9368 54.8626 66.935 54.8623 66.9333C54.862 66.9317 54.8618 66.9307 54.8615 66.9291C54.8612 66.9274 54.8609 66.9256 54.8606 66.9239C54.8603 66.9223 54.8601 66.9215 54.8598 66.9199C54.8595 66.9182 54.8592 66.9162 54.8588 66.9145C54.8585 66.9129 54.8584 66.9121 54.8581 66.9105C54.8578 66.9088 54.8574 66.9069 54.8571 66.9051C54.8568 66.9036 54.8567 66.9027 54.8564 66.9012C54.8561 66.8994 54.8557 66.8975 54.8554 66.8958C54.8551 66.8942 54.8549 66.8933 54.8546 66.8917C54.8543 66.89 54.854 66.8882 54.8537 66.8864C54.8534 66.8848 54.8532 66.8841 54.853 66.8825C54.8526 66.8807 54.8523 66.8788 54.852 66.877C54.8517 66.8755 54.8515 66.8746 54.8513 66.8731C54.8509 66.8713 54.8506 66.8694 54.8503 66.8677C54.85 66.8661 54.8498 66.8653 54.8496 66.8637C54.8492 66.862 54.8489 66.8601 54.8486 66.8583C54.8483 66.8568 54.8481 66.8558 54.8479 66.8542C54.8475 66.8525 54.8472 66.8507 54.8469 66.849C54.8466 66.8474 54.8465 66.8466 54.8462 66.8451C54.8459 66.8433 54.8455 66.8413 54.8452 66.8395C54.845 66.8383 54.8448 66.8369 54.8446 66.8358C54.8442 66.834 54.8439 66.8319 54.8436 66.8302C54.8433 66.829 54.8431 66.8276 54.8429 66.8265C54.8426 66.8247 54.8422 66.8226 54.8419 66.8208C54.8416 66.8193 54.8415 66.8184 54.8412 66.8169C54.8409 66.8151 54.8406 66.8132 54.8403 66.8115C54.84 66.8099 54.8399 66.8091 54.8396 66.8076C54.8393 66.8058 54.8389 66.8039 54.8386 66.8021C54.8383 66.8005 54.8382 66.7998 54.8379 66.7982C54.8376 66.7964 54.8373 66.7945 54.837 66.7927C54.8367 66.7912 54.8366 66.7905 54.8363 66.7889C54.836 66.7872 54.8357 66.7851 54.8353 66.7833C54.8351 66.7818 54.835 66.781 54.8347 66.7795C54.8344 66.7777 54.834 66.7758 54.8337 66.774C54.8335 66.7725 54.8333 66.7716 54.8331 66.7701C54.8328 66.7683 54.8324 66.7665 54.8321 66.7647C54.8319 66.7631 54.8317 66.7622 54.8314 66.7607C54.8311 66.7589 54.8308 66.7571 54.8305 66.7553C54.8303 66.7537 54.8301 66.753 54.8299 66.7514C54.8296 66.7496 54.8292 66.7477 54.8289 66.7459C54.8287 66.7444 54.8285 66.7435 54.8283 66.742C54.828 66.7402 54.8276 66.7383 54.8273 66.7366C54.8271 66.735 54.8269 66.7343 54.8267 66.7327C54.8264 66.731 54.8261 66.729 54.8258 66.7272C54.8255 66.7257 54.8254 66.7248 54.8251 66.7233C54.8248 66.7215 54.8245 66.7196 54.8242 66.7178C54.8239 66.7162 54.8238 66.7156 54.8236 66.7141C54.8232 66.7121 54.8229 66.7104 54.8226 66.7085C54.8224 66.7069 54.8222 66.7061 54.822 66.7046C54.8217 66.7028 54.8213 66.7008 54.8211 66.6991C54.8208 66.6975 54.8207 66.6969 54.8204 66.6954C54.8201 66.6934 54.8198 66.6916 54.8195 66.6897C54.8192 66.6881 54.8191 66.6875 54.8189 66.686C54.8186 66.684 54.8183 66.6823 54.818 66.6803C54.8177 66.6787 54.8176 66.6783 54.8174 66.6767C54.817 66.6748 54.8167 66.6729 54.8164 66.671C54.8162 66.6694 54.8161 66.6687 54.8158 66.6672C54.8155 66.6654 54.8152 66.6634 54.8149 66.6616C54.8146 66.6601 54.8145 66.6594 54.8143 66.6579C54.814 66.6559 54.8137 66.6542 54.8134 66.6522C54.8131 66.6507 54.813 66.6501 54.8128 66.6485C54.8125 66.6466 54.8122 66.6448 54.8119 66.6429C54.8116 66.6413 54.8115 66.6407 54.8113 66.6392C54.8109 66.6372 54.8107 66.6355 54.8104 66.6335C54.8101 66.632 54.81 66.6313 54.8098 66.6298C54.8094 66.6278 54.8092 66.6261 54.8089 66.6241C54.8087 66.6229 54.8085 66.6217 54.8083 66.6205C54.808 66.6186 54.8077 66.6168 54.8074 66.6148C54.8071 66.6133 54.807 66.6125 54.8068 66.611C54.8065 66.6092 54.8062 66.6072 54.8059 66.6055C54.8057 66.6043 54.8055 66.6029 54.8053 66.6017C54.805 66.5998 54.8047 66.598 54.8044 66.5961C54.8042 66.5949 54.804 66.5935 54.8038 66.5923C54.8035 66.5904 54.8032 66.5886 54.8029 66.5867C54.8028 66.5855 54.8026 66.5842 54.8024 66.5831C54.8021 66.5811 54.8018 66.5793 54.8015 66.5773C54.8013 66.5762 54.8011 66.5748 54.8009 66.5736C54.8006 66.5717 54.8003 66.5699 54.8 66.568C54.7999 66.5668 54.7996 66.5654 54.7995 66.5643C54.7992 66.5623 54.7989 66.5606 54.7986 66.5587C54.7984 66.5575 54.7982 66.556 54.798 66.5548C54.7977 66.5529 54.7975 66.5512 54.7972 66.5493C54.797 66.5481 54.7968 66.5466 54.7966 66.5455C54.7963 66.5435 54.796 66.5419 54.7957 66.54C54.7956 66.5388 54.7953 66.5372 54.7951 66.536C54.7949 66.5343 54.7946 66.5324 54.7943 66.5306C54.7941 66.5294 54.7939 66.5279 54.7937 66.5267C54.7934 66.5248 54.7932 66.5232 54.7929 66.5212C54.7927 66.5201 54.7925 66.5185 54.7923 66.5173C54.792 66.5154 54.7918 66.5138 54.7915 66.5118C54.7913 66.5107 54.7911 66.5093 54.7909 66.5081C54.7906 66.5062 54.7904 66.5044 54.7901 66.5025C54.7899 66.5013 54.7897 66.4999 54.7895 66.4987C54.7892 66.4967 54.789 66.4951 54.7887 66.4931C54.7885 66.4919 54.7883 66.4906 54.7881 66.4894C54.7879 66.4874 54.7876 66.4857 54.7873 66.4838C54.7871 66.4826 54.7869 66.4812 54.7868 66.48C54.7865 66.478 54.7862 66.4763 54.7859 66.4743C54.7858 66.4732 54.7856 66.4719 54.7854 66.4708C54.7851 66.4688 54.7848 66.4669 54.7846 66.465C54.7844 66.4638 54.7842 66.4625 54.784 66.4614C54.7838 66.4594 54.7835 66.4576 54.7832 66.4556C54.783 66.4544 54.7829 66.4532 54.7827 66.4521C54.7824 66.4501 54.7821 66.4483 54.7819 66.4463C54.7817 66.4451 54.7815 66.4437 54.7813 66.4425C54.781 66.4406 54.7808 66.4389 54.7805 66.437C54.7803 66.4358 54.7801 66.4344 54.78 66.4333C54.7797 66.4313 54.7794 66.4295 54.7792 66.4275C54.779 66.4264 54.7788 66.4252 54.7787 66.424C54.7784 66.4221 54.7781 66.4201 54.7778 66.4182C54.7777 66.417 54.7775 66.4158 54.7773 66.4146C54.7771 66.4127 54.7768 66.4108 54.7765 66.4088C54.7764 66.4077 54.7762 66.4063 54.776 66.4052C54.7757 66.4032 54.7755 66.4015 54.7752 66.3995C54.775 66.3984 54.7748 66.3969 54.7747 66.3957C54.7744 66.3938 54.7742 66.3922 54.7739 66.3902C54.7737 66.3891 54.7735 66.3875 54.7734 66.3863C54.7731 66.3844 54.7729 66.3828 54.7726 66.3808C54.7724 66.3797 54.7722 66.3782 54.7721 66.3771C54.7718 66.3751 54.7716 66.3734 54.7713 66.3715C54.7711 66.3703 54.7709 66.3688 54.7708 66.3677C54.7705 66.3657 54.7703 66.3641 54.77 66.3621C54.7699 66.3609 54.7697 66.3595 54.7695 66.3584C54.7692 66.3564 54.769 66.3547 54.7687 66.3528C54.7686 66.3516 54.7684 66.3501 54.7682 66.3489C54.768 66.3469 54.7677 66.3453 54.7675 66.3434C54.7673 66.3422 54.7671 66.3409 54.767 66.3397C54.7667 66.3378 54.7665 66.336 54.7662 66.334C54.7661 66.3328 54.7659 66.3314 54.7657 66.3303C54.7654 66.3283 54.7652 66.3266 54.765 66.3247C54.7648 66.3235 54.7646 66.3222 54.7645 66.321C54.7642 66.319 54.764 66.3172 54.7637 66.3153C54.7635 66.3141 54.7634 66.3129 54.7632 66.3117C54.763 66.3098 54.7627 66.3077 54.7624 66.3058C54.7623 66.3046 54.7622 66.3037 54.762 66.3025C54.7617 66.3004 54.7615 66.2987 54.7612 66.2965C54.7611 66.2954 54.7609 66.2941 54.7608 66.2929C54.7605 66.291 54.7603 66.2891 54.76 66.2872C54.7598 66.286 54.7597 66.2849 54.7595 66.2837C54.7593 66.2818 54.759 66.2797 54.7588 66.2778C54.7586 66.2766 54.7585 66.2755 54.7583 66.2743C54.7581 66.2724 54.7578 66.2704 54.7576 66.2684C54.7574 66.2673 54.7573 66.2662 54.7571 66.265C54.7569 66.2631 54.7566 66.2611 54.7564 66.2591C54.7562 66.258 54.7561 66.2566 54.7559 66.2555C54.7557 66.2535 54.7554 66.2518 54.7552 66.2498C54.755 66.2487 54.7549 66.2474 54.7547 66.2462C54.7545 66.2443 54.7542 66.2423 54.754 66.2404C54.7538 66.2392 54.7537 66.2381 54.7535 66.2369C54.7533 66.2349 54.753 66.233 54.7528 66.231C54.7527 66.2299 54.7525 66.2287 54.7524 66.2276C54.7522 66.2258 54.7519 66.2235 54.7516 66.2218C54.7515 66.2206 54.7513 66.2192 54.7512 66.218C54.7509 66.2161 54.7507 66.2143 54.7505 66.2124C54.7503 66.2112 54.7502 66.21 54.75 66.2088C54.7498 66.2071 54.7495 66.2048 54.7493 66.2031C54.7492 66.2019 54.749 66.2005 54.7489 66.1993C54.7486 66.1976 54.7484 66.1954 54.7482 66.1937C54.748 66.1925 54.7479 66.1913 54.7477 66.1901C54.7475 66.1883 54.7472 66.1861 54.747 66.1844C54.7469 66.1832 54.7467 66.1817 54.7466 66.1806C54.7464 66.1788 54.7461 66.1768 54.7459 66.1751C54.7458 66.1739 54.7456 66.1724 54.7454 66.1713C54.7452 66.1695 54.745 66.1675 54.7448 66.1657C54.7446 66.1646 54.7444 66.163 54.7443 66.1618C54.7441 66.1601 54.7439 66.1581 54.7437 66.1563C54.7435 66.1552 54.7434 66.1539 54.7432 66.1527C54.743 66.1509 54.7427 66.1487 54.7425 66.1469C54.7424 66.1457 54.7422 66.1445 54.7421 66.1433C54.7419 66.1415 54.7416 66.1393 54.7414 66.1376C54.7413 66.1364 54.7411 66.1351 54.741 66.134C54.7408 66.1322 54.7405 66.13 54.7403 66.1283C54.7402 66.1271 54.74 66.1257 54.7399 66.1245C54.7397 66.1227 54.7394 66.1207 54.7392 66.1189C54.7391 66.1177 54.739 66.1164 54.7388 66.1153C54.7386 66.1135 54.7384 66.1113 54.7382 66.1096C54.738 66.1084 54.7379 66.107 54.7377 66.1058C54.7375 66.1041 54.7373 66.102 54.7371 66.1002C54.737 66.0991 54.7368 66.0977 54.7367 66.0965C54.7365 66.0948 54.7362 66.0926 54.736 66.0909C54.7359 66.0897 54.7357 66.0883 54.7356 66.0871C54.7354 66.0853 54.7352 66.0833 54.735 66.0816C54.7348 66.0804 54.7347 66.079 54.7345 66.0778C54.7343 66.076 54.7341 66.074 54.7339 66.0723C54.7338 66.0711 54.7336 66.0695 54.7335 66.0683C54.7333 66.0666 54.7331 66.0646 54.7329 66.0628C54.7327 66.0617 54.7326 66.0603 54.7325 66.0592C54.7322 66.0572 54.732 66.0554 54.7318 66.0535C54.7317 66.0523 54.7315 66.0509 54.7314 66.0498C54.7312 66.048 54.731 66.0459 54.7308 66.0441C54.7307 66.043 54.7305 66.0417 54.7304 66.0405C54.7302 66.0386 54.73 66.0367 54.7298 66.0348C54.7296 66.0336 54.7295 66.0322 54.7294 66.0311C54.7292 66.0293 54.7289 66.0272 54.7288 66.0254C54.7286 66.0243 54.7285 66.023 54.7284 66.0218C54.7282 66.0199 54.728 66.0181 54.7278 66.0161C54.7276 66.0149 54.7275 66.0136 54.7274 66.0124C54.7271 66.0105 54.7269 66.0086 54.7267 66.0066C54.7266 66.0055 54.7265 66.0044 54.7264 66.0033C54.7262 66.0013 54.726 65.9993 54.7257 65.9973C54.7256 65.9962 54.7255 65.9949 54.7254 65.9938C54.7252 65.9918 54.725 65.9899 54.7248 65.988C54.7246 65.9868 54.7245 65.9856 54.7244 65.9845C54.7242 65.9825 54.724 65.9807 54.7238 65.9787C54.7237 65.9775 54.7235 65.9762 54.7234 65.975C54.7232 65.9731 54.723 65.9713 54.7228 65.9693C54.7227 65.9681 54.7226 65.967 54.7225 65.9659C54.7223 65.9639 54.7221 65.9619 54.7219 65.9599C54.7217 65.9588 54.7216 65.9576 54.7215 65.9564C54.7213 65.9545 54.7211 65.9525 54.7209 65.9506C54.7208 65.9494 54.7207 65.9484 54.7206 65.9472C54.7204 65.9452 54.7201 65.9432 54.7199 65.9412C54.7198 65.9401 54.7197 65.939 54.7196 65.9378C54.7194 65.9359 54.7192 65.9337 54.719 65.9318C54.7189 65.9306 54.7188 65.9298 54.7187 65.9286C54.7185 65.9266 54.7183 65.9244 54.7181 65.9225C54.718 65.9213 54.7179 65.9204 54.7177 65.9192C54.7175 65.9171 54.7173 65.9152 54.7171 65.913C54.7171 65.9122 54.7169 65.9108 54.7168 65.91C54.7166 65.9079 54.7164 65.9058 54.7162 65.9037C54.7161 65.9029 54.716 65.9014 54.7159 65.9007C54.7157 65.8985 54.7155 65.8964 54.7153 65.8943C54.7152 65.8935 54.7151 65.8921 54.715 65.8914C54.7148 65.8894 54.7146 65.887 54.7144 65.8851C54.7143 65.8839 54.7142 65.883 54.7141 65.8818C54.7139 65.8799 54.7137 65.8776 54.7135 65.8757C54.7134 65.8749 54.7133 65.8734 54.7132 65.8727C54.713 65.8707 54.7128 65.8683 54.7126 65.8663C54.7125 65.8656 54.7124 65.864 54.7123 65.8633C54.7121 65.8611 54.7119 65.8591 54.7117 65.8569C54.7117 65.8562 54.7115 65.8548 54.7115 65.854C54.7113 65.8519 54.7111 65.8498 54.7109 65.8476C54.7108 65.8468 54.7107 65.8454 54.7106 65.8447C54.7104 65.8425 54.7102 65.8403 54.71 65.8381C54.7099 65.8374 54.7098 65.8362 54.7097 65.8354C54.7095 65.8331 54.7094 65.8312 54.7091 65.8289C54.7091 65.8281 54.7089 65.8268 54.7089 65.826C54.7087 65.8239 54.7085 65.8217 54.7083 65.8196C54.7082 65.8188 54.7081 65.8174 54.708 65.8166C54.7078 65.8147 54.7076 65.8123 54.7075 65.8103C54.7074 65.8095 54.7072 65.808 54.7072 65.8072C54.707 65.8053 54.7068 65.8029 54.7066 65.801C54.7065 65.8002 54.7064 65.7987 54.7063 65.7979C54.7062 65.796 54.706 65.7936 54.7058 65.7917C54.7057 65.7909 54.7056 65.7893 54.7055 65.7886C54.7053 65.7866 54.7051 65.7842 54.705 65.7823C54.7049 65.7815 54.7048 65.78 54.7047 65.7793C54.7045 65.7773 54.7043 65.775 54.7042 65.773C54.7041 65.7722 54.7039 65.7706 54.7039 65.7698C54.7037 65.7679 54.7035 65.7657 54.7034 65.7637C54.7033 65.7629 54.7031 65.7613 54.7031 65.7605C54.7029 65.7586 54.7027 65.7563 54.7026 65.7544C54.7025 65.7536 54.7023 65.752 54.7023 65.7512C54.7021 65.7492 54.7019 65.7469 54.7018 65.7449C54.7017 65.7442 54.7016 65.7428 54.7015 65.742C54.7013 65.7398 54.7011 65.7378 54.701 65.7356C54.7009 65.7348 54.7008 65.7333 54.7007 65.7325C54.7006 65.7306 54.7004 65.7283 54.7002 65.7263C54.7001 65.7255 54.7 65.724 54.6999 65.7233C54.6998 65.7213 54.6996 65.7189 54.6994 65.7169C54.6994 65.7162 54.6992 65.7147 54.6992 65.7139C54.699 65.712 54.6988 65.7096 54.6987 65.7077C54.6986 65.7069 54.6985 65.7053 54.6984 65.7046C54.6983 65.7026 54.6981 65.7002 54.6979 65.6983C54.6978 65.6975 54.6977 65.696 54.6977 65.6953C54.6975 65.6933 54.6973 65.6908 54.6972 65.6889C54.6971 65.6881 54.697 65.6868 54.6969 65.686C54.6967 65.6837 54.6966 65.6818 54.6964 65.6795C54.6964 65.6787 54.6963 65.6775 54.6962 65.6767C54.696 65.6744 54.6959 65.6725 54.6957 65.6702C54.6956 65.6694 54.6955 65.6682 54.6955 65.6674C54.6953 65.6653 54.6951 65.6631 54.695 65.661C54.6949 65.6602 54.6948 65.6586 54.6947 65.6579C54.6946 65.6559 54.6944 65.6537 54.6943 65.6517C54.6942 65.6509 54.6941 65.6493 54.694 65.6486C54.6939 65.6466 54.6937 65.6443 54.6935 65.6423C54.6935 65.6416 54.6934 65.64 54.6933 65.6393C54.6931 65.6371 54.693 65.635 54.6928 65.6329C54.6928 65.6321 54.6927 65.6308 54.6926 65.6301C54.6925 65.6279 54.6923 65.6258 54.6921 65.6236C54.6921 65.6228 54.692 65.6214 54.6919 65.6206C54.6918 65.6185 54.6916 65.6164 54.6914 65.6142C54.6914 65.6135 54.6913 65.6122 54.6912 65.6114C54.6911 65.6093 54.6909 65.6071 54.6908 65.605C54.6907 65.6038 54.6906 65.6031 54.6906 65.602C54.6904 65.5998 54.6903 65.5978 54.6901 65.5957C54.69 65.5949 54.6899 65.5935 54.6899 65.5927C54.6897 65.5906 54.6896 65.5885 54.6894 65.5864C54.6894 65.5852 54.6893 65.5844 54.6892 65.5833C54.6891 65.5813 54.6889 65.579 54.6888 65.5771C54.6887 65.5759 54.6886 65.5751 54.6886 65.574C54.6884 65.5718 54.6883 65.5699 54.6881 65.5677C54.688 65.5666 54.688 65.5658 54.6879 65.5647C54.6878 65.5625 54.6876 65.5605 54.6875 65.5584C54.6874 65.5572 54.6874 65.5565 54.6873 65.5554C54.6871 65.5532 54.687 65.5513 54.6869 65.5491C54.6868 65.548 54.6867 65.5471 54.6866 65.5459C54.6865 65.544 54.6864 65.5417 54.6862 65.5398C54.6861 65.5386 54.6861 65.5379 54.686 65.5367C54.6859 65.5346 54.6857 65.5326 54.6856 65.5305C54.6855 65.5293 54.6855 65.5285 54.6854 65.5274C54.6853 65.5252 54.6851 65.5232 54.685 65.5211C54.6849 65.5199 54.6849 65.5193 54.6848 65.5181C54.6846 65.516 54.6845 65.5139 54.6844 65.5118C54.6843 65.5106 54.6842 65.5098 54.6842 65.5087C54.684 65.5065 54.6839 65.5046 54.6838 65.5025C54.6837 65.5013 54.6837 65.5006 54.6836 65.4995C54.6834 65.4973 54.6833 65.4953 54.6832 65.4932C54.6831 65.492 54.6831 65.4912 54.683 65.4901C54.6829 65.4879 54.6827 65.4859 54.6826 65.4837C54.6825 65.4826 54.6825 65.4821 54.6824 65.4809C54.6823 65.4788 54.6821 65.4766 54.682 65.4744C54.6819 65.4733 54.6819 65.4727 54.6818 65.4715C54.6817 65.4694 54.6816 65.4672 54.6814 65.465C54.6814 65.4639 54.6813 65.4634 54.6813 65.4623C54.6811 65.4601 54.681 65.458 54.6809 65.4559C54.6808 65.4547 54.6808 65.454 54.6807 65.4528C54.6806 65.4507 54.6805 65.4486 54.6803 65.4465C54.6803 65.4453 54.6802 65.4448 54.6802 65.4436C54.68 65.4415 54.6799 65.4394 54.6798 65.4372C54.6797 65.4361 54.6797 65.4353 54.6796 65.4342C54.6795 65.432 54.6794 65.43 54.6792 65.4279C54.6792 65.4267 54.6791 65.4261 54.6791 65.4249C54.679 65.4228 54.6788 65.4208 54.6787 65.4186C54.6786 65.4175 54.6786 65.4167 54.6785 65.4156C54.6784 65.4134 54.6783 65.4114 54.6782 65.4092C54.6781 65.4081 54.6781 65.4075 54.678 65.4063C54.6779 65.4042 54.6778 65.4022 54.6777 65.4C54.6776 65.3989 54.6776 65.398 54.6775 65.3969C54.6774 65.3947 54.6773 65.3929 54.6772 65.3908C54.6771 65.3896 54.6771 65.3888 54.677 65.3876C54.6769 65.3855 54.6768 65.3835 54.6767 65.3813C54.6766 65.3802 54.6766 65.3795 54.6765 65.3784C54.6764 65.3762 54.6763 65.374 54.6761 65.3718C54.6761 65.3707 54.6761 65.3704 54.676 65.3692C54.6759 65.3671 54.6758 65.3648 54.6757 65.3627C54.6756 65.3615 54.6756 65.3608 54.6755 65.3597C54.6754 65.3575 54.6753 65.3555 54.6752 65.3534C54.6751 65.3522 54.6751 65.3516 54.675 65.3505C54.6749 65.3483 54.6748 65.3462 54.6747 65.3441C54.6747 65.3429 54.6746 65.3423 54.6746 65.3411C54.6745 65.339 54.6743 65.3368 54.6742 65.3346C54.6742 65.3335 54.6742 65.3331 54.6741 65.3319C54.674 65.3298 54.6739 65.3276 54.6738 65.3254C54.6737 65.3243 54.6737 65.3236 54.6736 65.3225C54.6735 65.3203 54.6734 65.3182 54.6733 65.3161C54.6733 65.3149 54.6733 65.3145 54.6732 65.3133C54.6731 65.3112 54.673 65.3088 54.6729 65.3067C54.6728 65.3055 54.6728 65.3052 54.6728 65.304C54.6727 65.3019 54.6725 65.2994 54.6724 65.2973C54.6724 65.2965 54.6724 65.2955 54.6723 65.2948C54.6722 65.2926 54.6721 65.2903 54.672 65.2881C54.672 65.287 54.6719 65.2865 54.6719 65.2853C54.6718 65.2832 54.6717 65.2809 54.6716 65.2788C54.6715 65.2776 54.6715 65.2773 54.6715 65.2761C54.6714 65.274 54.6713 65.2716 54.6712 65.2695C54.6711 65.2683 54.6711 65.2679 54.6711 65.2668C54.671 65.2646 54.6709 65.2621 54.6708 65.26C54.6707 65.2592 54.6707 65.2584 54.6707 65.2576C54.6706 65.2555 54.6705 65.2529 54.6704 65.2508C54.6703 65.25 54.6703 65.2489 54.6703 65.2482C54.6702 65.246 54.6701 65.2436 54.67 65.2415C54.6699 65.2407 54.6699 65.2397 54.6699 65.2389C54.6698 65.2368 54.6697 65.2343 54.6696 65.2322C54.6696 65.2314 54.6695 65.2304 54.6695 65.2296C54.6694 65.2273 54.6693 65.225 54.6692 65.2227C54.6692 65.2219 54.6691 65.2212 54.6691 65.2204C54.669 65.2181 54.6689 65.216 54.6688 65.2137C54.6688 65.2129 54.6688 65.2116 54.6687 65.2109C54.6686 65.2087 54.6686 65.2065 54.6685 65.2043C54.6684 65.2036 54.6684 65.2025 54.6684 65.2017C54.6683 65.1996 54.6682 65.1971 54.6681 65.195C54.6681 65.1942 54.668 65.1931 54.668 65.1924C54.6679 65.1902 54.6678 65.1877 54.6678 65.1855C54.6677 65.1848 54.6677 65.184 54.6677 65.1832C54.6676 65.1809 54.6675 65.1786 54.6674 65.1763C54.6674 65.1755 54.6674 65.1746 54.6673 65.1738C54.6672 65.1715 54.6672 65.1692 54.6671 65.1668C54.667 65.1661 54.667 65.1655 54.667 65.1647C54.6669 65.1622 54.6668 65.1601 54.6667 65.1576C54.6667 65.1568 54.6667 65.1561 54.6667 65.1553C54.6666 65.1528 54.6665 65.1507 54.6664 65.1481C54.6664 65.1474 54.6664 65.1469 54.6664 65.1461C54.6663 65.1438 54.6662 65.1415 54.6661 65.1392C54.6661 65.1384 54.6661 65.1374 54.666 65.1366C54.666 65.1345 54.6659 65.1319 54.6658 65.1298C54.6658 65.129 54.6658 65.1282 54.6657 65.1274C54.6657 65.1249 54.6656 65.1229 54.6655 65.1204C54.6655 65.1196 54.6655 65.1189 54.6654 65.1182C54.6654 65.1156 54.6653 65.1136 54.6652 65.111C54.6652 65.1103 54.6652 65.1097 54.6652 65.1089C54.6651 65.1066 54.665 65.1041 54.6649 65.1018C54.6649 65.101 54.6649 65.1003 54.6649 65.0995C54.6648 65.097 54.6647 65.0949 54.6647 65.0924C54.6646 65.0916 54.6646 65.0911 54.6646 65.0904C54.6645 65.0879 54.6645 65.0856 54.6644 65.0831C54.6644 65.0823 54.6643 65.0818 54.6643 65.081C54.6643 65.0785 54.6642 65.0764 54.6641 65.0739C54.6641 65.0731 54.6641 65.0725 54.6641 65.0717C54.664 65.0694 54.6639 65.0671 54.6639 65.0647C54.6639 65.064 54.6638 65.0631 54.6638 65.0623C54.6637 65.0598 54.6637 65.0577 54.6636 65.0552C54.6636 65.0544 54.6636 65.054 54.6636 65.0532C54.6635 65.0507 54.6634 65.0485 54.6634 65.046C54.6634 65.0452 54.6633 65.0446 54.6633 65.0439C54.6633 65.0413 54.6632 65.0393 54.6631 65.0367C54.6631 65.036 54.6631 65.0353 54.6631 65.0346C54.663 65.0322 54.663 65.0299 54.6629 65.0276C54.6629 65.0268 54.6629 65.026 54.6629 65.0252C54.6628 65.0229 54.6628 65.0205 54.6627 65.0182C54.6627 65.0174 54.6627 65.0168 54.6627 65.016C54.6626 65.0137 54.6625 65.0112 54.6625 65.0089C54.6625 65.0081 54.6625 65.0075 54.6624 65.0067C54.6624 65.0042 54.6623 65.002 54.6623 64.9995C54.6623 64.9987 54.6623 64.9982 54.6622 64.9975C54.6622 64.995 54.6621 64.9928 54.6621 64.9903C54.6621 64.9895 54.6621 64.9889 54.662 64.9881C54.662 64.9856 54.662 64.9835 54.6619 64.981C54.6619 64.9802 54.6619 64.9796 54.6619 64.9789C54.6618 64.9764 54.6618 64.9741 54.6617 64.9716C54.6617 64.9709 54.6617 64.9704 54.6617 64.9696C54.6616 64.9671 54.6616 64.9648 54.6615 64.9623C54.6615 64.9615 54.6615 64.9612 54.6615 64.9604C54.6615 64.9579 54.6614 64.9556 54.6614 64.9531C54.6614 64.9523 54.6614 64.9518 54.6613 64.951C54.6613 64.9485 54.6613 64.9462 54.6612 64.9437C54.6612 64.9429 54.6612 64.9426 54.6612 64.9418C54.6611 64.9393 54.6611 64.937 54.6611 64.9345C54.6611 64.9337 54.661 64.9333 54.661 64.9325C54.661 64.93 54.661 64.9276 54.6609 64.9251C54.6609 64.9243 54.6609 64.9241 54.6609 64.9233C54.6609 64.921 54.6608 64.9184 54.6608 64.916C54.6608 64.9153 54.6608 64.9146 54.6607 64.9139C54.6607 64.9114 54.6607 64.9092 54.6606 64.9067C54.6606 64.906 54.6606 64.9054 54.6606 64.9046C54.6606 64.9023 54.6606 64.8998 54.6605 64.8975C54.6605 64.8967 54.6605 64.8961 54.6605 64.8953C54.6605 64.8928 54.6604 64.8905 54.6604 64.888C54.6604 64.8872 54.6604 64.887 54.6604 64.8862C54.6604 64.8837 54.6603 64.8814 54.6603 64.8789C54.6603 64.8781 54.6603 64.8776 54.6603 64.8768C54.6602 64.8743 54.6602 64.872 54.6602 64.8695C54.6602 64.8687 54.6602 64.8684 54.6602 64.8676C54.6601 64.8651 54.6601 64.8627 54.6601 64.8602C54.6601 64.8595 54.6601 64.8591 54.6601 64.8583C54.6601 64.8558 54.66 64.8533 54.66 64.8508C54.66 64.8504 54.66 64.8495 54.66 64.8491C54.66 64.8466 54.66 64.8442 54.6599 64.8417C54.6599 64.8409 54.6599 64.8405 54.6599 64.8397C54.6599 64.8372 54.6599 64.8349 54.6599 64.8324C54.6598 64.8316 54.6598 64.8313 54.6598 64.8305C54.6598 64.828 54.6598 64.8257 54.6598 64.8232C54.6598 64.8224 54.6598 64.822 54.6598 64.8212C54.6598 64.8187 54.6597 64.8162 54.6597 64.8137C54.6597 64.8133 54.6597 64.8125 54.6597 64.8121C54.6597 64.8096 54.6597 64.807 54.6597 64.8045C54.6597 64.8041 54.6597 64.8031 54.6597 64.8027C54.6597 64.8002 54.6596 64.7977 54.6596 64.7952C54.6596 64.7948 54.6596 64.7939 54.6596 64.7935C54.6596 64.791 54.6596 64.7886 54.6596 64.7861C54.6596 64.7857 54.6596 64.7845 54.6596 64.7841C54.6596 64.7816 54.6596 64.7791 54.6596 64.7766C54.6596 64.7762 54.6596 64.7754 54.6596 64.775C54.6596 64.7725 54.6595 64.77 54.6595 64.7675C54.6595 64.7671 54.6595 64.766 54.6595 64.7656C54.6595 64.7631 54.6595 64.7605 54.6595 64.758C54.6595 64.7576 54.6595 64.7569 54.6595 64.7565C54.6595 64.754 54.6595 64.7513 54.6595 64.7487C54.6595 64.7484 54.6595 64.7476 54.6595 64.7472C54.6595 64.7447 54.6595 64.7418 54.6595 64.7393C54.6595 64.7389 54.6595 64.7384 54.6595 64.738C54.6595 64.7355 54.6595 64.7327 54.6595 64.7302C54.6595 64.7298 54.6595 64.7291 54.6595 64.7287C54.6595 64.726 54.6595 64.7234 54.6595 64.7207C54.6595 64.7203 54.6595 64.7199 54.6595 64.7195C54.6595 64.717 54.6596 64.7141 54.6596 64.7116C54.6596 64.7113 54.6596 64.7106 54.6596 64.7102C54.6596 64.7075 54.6596 64.7047 54.6596 64.702C54.6596 64.7024 54.6596 64.7017 54.6596 64.702C54.6596 64.6993 54.6596 64.6958 54.6596 64.6931C54.6596 64.6927 54.6596 64.692 54.6596 64.6917C54.6596 64.689 54.6597 64.6863 54.6597 64.6836C54.6597 64.6832 54.6597 64.6829 54.6597 64.6825C54.6597 64.6798 54.6597 64.6772 54.6597 64.6745C54.6597 64.6741 54.6597 64.6736 54.6597 64.6732C54.6597 64.6705 54.6598 64.6676 54.6598 64.6649C54.6598 64.6652 54.6598 64.6645 54.6598 64.6649C54.6598 64.6622 54.6598 64.6586 54.6598 64.6559C54.6598 64.6555 54.6598 64.6551 54.6598 64.6547C54.6599 64.652 54.6599 64.649 54.6599 64.6463C54.6599 64.6467 54.6599 64.6459 54.6599 64.6463C54.6599 64.6434 54.66 64.64 54.66 64.6371C54.66 64.6375 54.66 64.6367 54.66 64.6371C54.66 64.634 54.66 64.6306 54.6601 64.6275C54.6601 64.6248 54.6601 64.6216 54.6602 64.6189C54.6602 64.6185 54.6602 64.618 54.6602 64.6177C54.6602 64.615 54.6602 64.612 54.6603 64.6093C54.6603 64.6064 54.6603 64.6032 54.6604 64.6003C54.6604 64.5999 54.6604 64.5996 54.6604 64.5992C54.6604 64.5963 54.6605 64.5934 54.6605 64.5905C54.6605 64.5876 54.6606 64.5847 54.6606 64.5818C54.6606 64.5815 54.6606 64.5811 54.6606 64.5807C54.6607 64.578 54.6607 64.575 54.6607 64.5723C54.6608 64.5694 54.6608 64.5661 54.6609 64.5632C54.6609 64.5603 54.661 64.5565 54.661 64.5536C54.6611 64.5507 54.6611 64.5477 54.6612 64.5448C54.6612 64.5444 54.6612 64.5441 54.6612 64.5437C54.6612 64.5406 54.6613 64.538 54.6613 64.5349C54.6614 64.532 54.6614 64.5288 54.6615 64.5259C54.6615 64.5228 54.6616 64.5195 54.6617 64.5164C54.6617 64.5135 54.6618 64.5106 54.6618 64.5077C54.6619 64.5046 54.662 64.5011 54.662 64.498C54.6621 64.4951 54.6622 64.4918 54.6622 64.4889C54.6624 64.4829 54.6625 64.4767 54.6626 64.4707C54.6627 64.4678 54.6628 64.4642 54.6628 64.4613C54.6629 64.4584 54.663 64.4551 54.6631 64.4522C54.6631 64.4491 54.6632 64.4457 54.6633 64.4426C54.6634 64.4397 54.6635 64.4365 54.6635 64.4336C54.6636 64.4306 54.6637 64.4271 54.6638 64.424C54.6639 64.4211 54.664 64.4178 54.664 64.4149C54.6642 64.409 54.6644 64.4025 54.6646 64.3966C54.6645 64.3969 54.6646 64.3962 54.6646 64.3966C54.6646 64.3935 54.6647 64.3902 54.6648 64.3871C54.6649 64.3843 54.665 64.381 54.6651 64.3781C54.6651 64.3785 54.6651 64.3777 54.6651 64.3781C54.6653 64.3719 54.6655 64.3657 54.6657 64.3595C54.6657 64.3599 54.6657 64.3591 54.6657 64.3595C54.6661 64.3472 54.6665 64.3347 54.6669 64.3224C54.6672 64.3162 54.6674 64.3101 54.6676 64.3039C54.7381 62.3922 55.2675 60.5478 56.1763 58.9144C56.3777 58.5524 56.8344 58.4222 57.1964 58.6236C57.5583 58.825 57.6885 59.2817 57.4871 59.6436C56.1205 62.1 55.7946 64.9408 56.5694 67.6427C58.1652 73.2082 63.9914 76.4377 69.5568 74.8418C75.1222 73.2459 78.3517 67.4198 76.7559 61.8544C75.16 56.2889 69.3339 53.0594 63.7684 54.6553C63.3703 54.7695 62.9549 54.5392 62.8407 54.1411C62.7266 53.7429 62.9568 53.3276 63.355 53.2134Z" fill="#252934"/>
    </g>
    <g filter="url(#filter4_d_0_1)">
        <path d="M66.9204 61.3369C67.6952 61.3582 68.4395 61.6426 69.0312 62.1431C69.5099 62.8092 69.7802 63.6026 69.8081 64.4224" stroke="#252934" stroke-width="1.3" stroke-linecap="round"/>
    </g>
    <g filter="url(#filter5_d_0_1)">
        <path d="M59.5 56.9912C60.0523 56.9912 60.5 56.5435 60.5 55.9912C60.5 55.4389 60.0523 54.9912 59.5 54.9912C58.9477 54.9912 58.5 55.4389 58.5 55.9912C58.5 56.5435 58.9477 56.9912 59.5 56.9912Z" fill="#252934"/>
        <path d="M59.5 56.4912C59.7761 56.4912 60 56.2674 60 55.9912C60 55.7151 59.7761 55.4912 59.5 55.4912C59.2239 55.4912 59 55.7151 59 55.9912C59 56.2674 59.2239 56.4912 59.5 56.4912Z" stroke="#252934"/>
    </g>
    <path d="M57.8091 33.6128L59.9668 35.8589L61.2617 37.207" stroke="#00D8FA" stroke-width="2" stroke-linecap="round"/>
    <path d="M74.501 33.7554L72.2549 35.9131L70.9067 37.208" stroke="#00D8FA" stroke-width="2" stroke-linecap="round"/>
    <path d="M66.1938 32.0098L66.1624 35.2584L66.1431 37.2078" stroke="#00D8FA" stroke-width="2" stroke-linecap="round"/>
    <defs>
        <filter id="filter0_d_0_1" x="28.5" y="43.9912" width="63" height="47" filterUnits="userSpaceOnUse" color-interpolation-filters="sRGB">
            <feFlood flood-opacity="0" result="BackgroundImageFix"/>
            <feColorMatrix in="SourceAlpha" type="matrix" values="0 0 0 0 0 0 0 0 0 0 0 0 0 0 0 0 0 0 127 0" result="hardAlpha"/>
            <feOffset dy="3"/>
            <feGaussianBlur stdDeviation="3"/>
            <feColorMatrix type="matrix" values="0 0 0 0 0 0 0 0 0 0 0 0 0 0 0 0 0 0 0.161 0"/>
            <feBlend mode="normal" in2="BackgroundImageFix" result="effect1_dropShadow_0_1"/>
            <feBlend mode="normal" in="SourceGraphic" in2="effect1_dropShadow_0_1" result="shape"/>
        </filter>
        <filter id="filter1_d_0_1" x="34.9932" y="50.4912" width="21.0161" height="14" filterUnits="userSpaceOnUse" color-interpolation-filters="sRGB">
            <feFlood flood-opacity="0" result="BackgroundImageFix"/>
            <feColorMatrix in="SourceAlpha" type="matrix" values="0 0 0 0 0 0 0 0 0 0 0 0 0 0 0 0 0 0 127 0" result="hardAlpha"/>
            <feOffset dy="3"/>
            <feGaussianBlur stdDeviation="3"/>
            <feColorMatrix type="matrix" values="0 0 0 0 0 0 0 0 0 0 0 0 0 0 0 0 0 0 0.161 0"/>
            <feBlend mode="normal" in2="BackgroundImageFix" result="effect1_dropShadow_0_1"/>
            <feBlend mode="normal" in="SourceGraphic" in2="effect1_dropShadow_0_1" result="shape"/>
        </filter>
        <filter id="filter2_d_0_1" x="52.5" y="53.9912" width="28" height="28" filterUnits="userSpaceOnUse" color-interpolation-filters="sRGB">
            <feFlood flood-opacity="0" result="BackgroundImageFix"/>
            <feColorMatrix in="SourceAlpha" type="matrix" values="0 0 0 0 0 0 0 0 0 0 0 0 0 0 0 0 0 0 127 0" result="hardAlpha"/>
            <feOffset dy="3"/>
            <feGaussianBlur stdDeviation="3"/>
            <feColorMatrix type="matrix" values="0 0 0 0 0 0 0 0 0 0 0 0 0 0 0 0 0 0 0.161 0"/>
            <feBlend mode="normal" in2="BackgroundImageFix" result="effect1_dropShadow_0_1"/>
            <feBlend mode="normal" in="SourceGraphic" in2="effect1_dropShadow_0_1" result="shape"/>
        </filter>
        <filter id="filter3_d_0_1" x="48.6597" y="49.7455" width="36.0059" height="36.0062" filterUnits="userSpaceOnUse" color-interpolation-filters="sRGB">
            <feFlood flood-opacity="0" result="BackgroundImageFix"/>
            <feColorMatrix in="SourceAlpha" type="matrix" values="0 0 0 0 0 0 0 0 0 0 0 0 0 0 0 0 0 0 127 0" result="hardAlpha"/>
            <feOffset dy="3"/>
            <feGaussianBlur stdDeviation="3"/>
            <feColorMatrix type="matrix" values="0 0 0 0 0 0 0 0 0 0 0 0 0 0 0 0 0 0 0.161 0"/>
            <feBlend mode="normal" in2="BackgroundImageFix" result="effect1_dropShadow_0_1"/>
            <feBlend mode="normal" in="SourceGraphic" in2="effect1_dropShadow_0_1" result="shape"/>
        </filter>
        <filter id="filter4_d_0_1" x="60.2705" y="57.6869" width="16.1875" height="16.3854" filterUnits="userSpaceOnUse" color-interpolation-filters="sRGB">
            <feFlood flood-opacity="0" result="BackgroundImageFix"/>
            <feColorMatrix in="SourceAlpha" type="matrix" values="0 0 0 0 0 0 0 0 0 0 0 0 0 0 0 0 0 0 127 0" result="hardAlpha"/>
            <feOffset dy="3"/>
            <feGaussianBlur stdDeviation="3"/>
            <feColorMatrix type="matrix" values="0 0 0 0 0 0 0 0 0 0 0 0 0 0 0 0 0 0 0.161 0"/>
            <feBlend mode="normal" in2="BackgroundImageFix" result="effect1_dropShadow_0_1"/>
            <feBlend mode="normal" in="SourceGraphic" in2="effect1_dropShadow_0_1" result="shape"/>
        </filter>
        <filter id="filter5_d_0_1" x="52.5" y="51.9912" width="14" height="14" filterUnits="userSpaceOnUse" color-interpolation-filters="sRGB">
            <feFlood flood-opacity="0" result="BackgroundImageFix"/>
            <feColorMatrix in="SourceAlpha" type="matrix" values="0 0 0 0 0 0 0 0 0 0 0 0 0 0 0 0 0 0 127 0" result="hardAlpha"/>
            <feOffset dy="3"/>
            <feGaussianBlur stdDeviation="3"/>
            <feColorMatrix type="matrix" values="0 0 0 0 0 0 0 0 0 0 0 0 0 0 0 0 0 0 0.161 0"/>
            <feBlend mode="normal" in2="BackgroundImageFix" result="effect1_dropShadow_0_1"/>
            <feBlend mode="normal" in="SourceGraphic" in2="effect1_dropShadow_0_1" result="shape"/>
        </filter>
    </defs>
</svg>
