<svg width="18" height="18" viewBox="0 0 18 18" fill="none" xmlns="http://www.w3.org/2000/svg">
    <path d="M18 9C18 13.9705 13.9705 18 9 18C4.02943 18 0 13.9705 0 9C0 4.02943 4.02943 0 9 0C13.9705 0 18 4.02943 18 9Z" fill="white"/>
    <path d="M6.2729 6.27271C6.5365 6.00911 6.96389 6.00911 7.22746 6.27271L9.00019 8.04547L10.7729 6.27273C11.0365 6.00913 11.4639 6.00913 11.7275 6.27273C11.9911 6.53633 11.9911 6.96372 11.7275 7.22737L9.95482 9.00001L11.7275 10.7726C11.9911 11.0363 11.9911 11.4637 11.7275 11.7273C11.4639 11.9909 11.0364 11.9909 10.7728 11.7273L9.00019 9.95464L7.22755 11.7273C6.96391 11.9909 6.53652 11.9909 6.27291 11.7273C6.00931 11.4637 6.00931 11.0363 6.27291 10.7727L8.04565 9.00001L6.2729 7.22728C6.0093 6.96371 6.0093 6.53631 6.2729 6.27271Z" fill="#252934"/>
</svg>
