<svg width="16" height="16" viewBox="0 0 16 16" fill="none" xmlns="http://www.w3.org/2000/svg">
    <path opacity="0.5" d="M0 8C0 4.22876 -9.53674e-08 2.34314 1.17158 1.17158C2.34314 -9.53674e-08 4.22876 0 8 0C11.7712 0 13.6569 -9.53674e-08 14.8284 1.17158C16 2.34314 16 4.22876 16 8C16 11.7712 16 13.6569 14.8284 14.8284C13.6569 16 11.7712 16 8 16C4.22876 16 2.34314 16 1.17158 14.8284C-9.53674e-08 13.6569 0 11.7712 0 8Z" fill="#1B9D23"/>
    <path d="M5.19995 8.4L6.79995 10L10.8 6" stroke="white" stroke-width="1.5" stroke-linecap="round" stroke-linejoin="round"/>
</svg>
