<svg width="14" height="14" viewBox="0 0 14 14" fill="none" xmlns="http://www.w3.org/2000/svg">
    <path fill-rule="evenodd" clip-rule="evenodd" d="M0 3.28709C0 3.00762 0.226557 2.78107 0.506024 2.78107H12.6506C12.9301 2.78107 13.1566 3.00762 13.1566 3.28709C13.1566 3.56656 12.9301 3.79312 12.6506 3.79312H0.506024C0.226557 3.79312 0 3.56656 0 3.28709Z" fill="white"/>
    <path fill-rule="evenodd" clip-rule="evenodd" d="M11.3743 9.7045C11.1765 11.4958 11.0776 12.3914 10.572 13.0097C10.3951 13.2258 10.1859 13.4133 9.95158 13.5653C9.28153 14 8.38047 14 6.57829 14C4.77619 14 3.87513 14 3.20505 13.5653C2.97075 13.4133 2.76147 13.2258 2.58468 13.0097C2.07904 12.3914 1.98013 11.4957 1.78229 9.7045L1.02197 2.8205H12.1346L11.3743 9.7045ZM8.77106 7.06083C8.77106 7.34029 8.54449 7.56685 8.26503 7.56685H4.89153C4.61206 7.56685 4.3855 7.34029 4.3855 7.06083C4.3855 6.78137 4.61206 6.55481 4.89153 6.55481H8.26503C8.54449 6.55481 8.77106 6.78137 8.77106 7.06083ZM7.25298 10.2657C7.53244 10.2657 7.75901 10.0391 7.75901 9.75963C7.75901 9.48017 7.53244 9.2536 7.25298 9.2536H5.90359C5.62413 9.2536 5.39756 9.48017 5.39756 9.75963C5.39756 10.0391 5.62413 10.2657 5.90359 10.2657H7.25298Z" fill="white"/>
    <path fill-rule="evenodd" clip-rule="evenodd" d="M5.45694 2.06263e-06C5.46773 2.06263e-06 5.47853 8.81878e-06 5.48939 8.81878e-06H7.66732C7.67818 8.81878e-06 7.68905 2.06263e-06 7.69977 2.06263e-06C8.05136 -3.16723e-05 8.36597 -5.86639e-05 8.62033 0.0353563C8.89892 0.0741515 9.17865 0.163832 9.40541 0.398675C9.62982 0.631034 9.71314 0.913409 9.74951 1.19336C9.78324 1.45318 9.78318 1.77578 9.78318 2.14205V3.3009H8.77113V2.17315C8.77113 1.76638 8.77012 1.51048 8.74589 1.32365C8.72329 1.14962 8.68875 1.11346 8.67741 1.10168L8.67674 1.10102C8.66709 1.09094 8.637 1.05949 8.48074 1.03774C8.30457 1.0132 8.06161 1.01206 7.66732 1.01206H5.48939C5.09514 1.01206 4.85215 1.0132 4.67596 1.03774C4.51974 1.05949 4.48962 1.09094 4.47996 1.10102L4.47933 1.10168C4.46795 1.11346 4.43344 1.14962 4.41085 1.32365C4.38659 1.51048 4.38558 1.76638 4.38558 2.17315V3.3009H3.37354V2.17315C3.37354 2.16274 3.37354 2.15237 3.37354 2.14204C3.37351 1.77578 3.37349 1.45318 3.40722 1.19336C3.44356 0.913409 3.52692 0.631034 3.7513 0.398675C3.97807 0.163832 4.25779 0.0741515 4.53639 0.0353563C4.79077 -5.86639e-05 5.10538 -3.16723e-05 5.45694 2.06263e-06Z" fill="white"/>
</svg>
