<svg width="40" height="40" viewBox="0 0 40 40" fill="none" xmlns="http://www.w3.org/2000/svg">
    <rect width="40" height="40" rx="16" fill="white"/>
    <path d="M27.7388 14.7473L25.2504 12.2608C25.1683 12.1782 25.0707 12.1126 24.9632 12.0678C24.8557 12.023 24.7403 12 24.6238 12C24.5073 12 24.392 12.023 24.2845 12.0678C24.1769 12.1126 24.0793 12.1782 23.9973 12.2608L17.0525 19.2088L20.794 22.9474L27.7388 15.9993C27.8215 15.9174 27.8872 15.8199 27.932 15.7124C27.9768 15.605 27.9999 15.4897 27.9999 15.3733C27.9999 15.2569 27.9768 15.1417 27.932 15.0342C27.8872 14.9268 27.8215 14.8293 27.7388 14.7473Z" fill="black"/>
    <path d="M14.232 21.9455L18.0636 25.777L15.8315 28H12V24.1685L14.232 21.9455ZM27.7327 14.8156L25.1844 12.2673C25.1004 12.1826 25.0004 12.1154 24.8903 12.0695C24.7802 12.0236 24.6621 12 24.5428 12C24.4235 12 24.3054 12.0236 24.1953 12.0695C24.0851 12.1154 23.9852 12.1826 23.9012 12.2673L16.7894 19.3881L20.6209 23.2196L27.7327 16.0988C27.8174 16.0148 27.8846 15.9149 27.9305 15.8047C27.9764 15.6946 28 15.5765 28 15.4572C28 15.3379 27.9764 15.2198 27.9305 15.1097C27.8846 14.9996 27.8174 14.8996 27.7327 14.8156Z" stroke="black" stroke-linecap="round" stroke-linejoin="round"/>
</svg>
