<svg width="196" height="151" viewBox="0 0 196 151" fill="none" xmlns="http://www.w3.org/2000/svg">
    <g clip-path="url(#clip0_5_1361)">
        <mask id="mask0_5_1361" style="mask-type:luminance" maskUnits="userSpaceOnUse" x="0" y="0" width="196" height="151">
            <path d="M195.999 0H0V150.079H195.999V0Z" fill="white"/>
        </mask>
        <g mask="url(#mask0_5_1361)">
            <path d="M153.855 80.412C159.813 74.8542 164.086 67.7307 166.183 59.8573C168.28 51.9839 168.118 43.679 165.714 35.8936C163.311 28.1083 158.763 21.1572 152.592 15.8366C146.421 10.5159 138.877 7.04072 130.822 5.80902C122.768 4.57732 114.53 5.6389 107.051 8.87218C99.5718 12.1055 93.1546 17.3797 88.5341 24.0909C83.9136 30.8022 81.2767 38.679 80.9252 46.8194C80.5738 54.9597 82.522 63.0345 86.5469 70.119L77.7199 78.353L79.8279 93.005L66.1279 89.165L55.0879 99.464L57.1959 114.114L43.4959 110.276L34.0039 119.132L35.2889 128.062L26.9409 125.722L21.4149 130.877L20.5879 144.446L40.8269 149.538L106.496 88.279C114.288 91.774 122.938 92.8919 131.362 91.4927C139.787 90.0934 147.611 86.2393 153.855 80.413M147.443 27.064C149.122 28.8638 150.229 31.1209 150.625 33.5499C151.021 35.979 150.688 38.4709 149.667 40.7106C148.647 42.9503 146.986 44.8371 144.893 46.1326C142.8 47.428 140.371 48.0738 137.911 47.9884C135.451 47.9029 133.072 47.0901 131.075 45.6525C129.077 44.215 127.55 42.2174 126.688 39.9124C125.826 37.6073 125.666 35.0982 126.23 32.7025C126.793 30.3068 128.054 28.1319 129.854 26.453C132.267 24.2016 135.476 23.0012 138.775 23.1158C142.073 23.2304 145.191 24.6506 147.443 27.064Z" fill="#1A242C"/>
            <path d="M147.443 27.067C147.364 27.148 146.63 26.31 144.971 25.289C142.623 23.8646 139.868 23.2593 137.139 23.568C134.929 23.808 132.829 24.6585 131.075 26.0243C129.321 27.39 127.981 29.217 127.207 31.3009C126.432 33.3847 126.253 35.643 126.689 37.823C127.125 40.0029 128.159 42.0185 129.675 43.644C131.192 45.2695 133.131 46.4407 135.276 47.0266C137.42 47.6125 139.686 47.5899 141.818 46.9613C143.951 46.3327 145.866 45.123 147.35 43.4675C148.834 41.8121 149.827 39.7762 150.22 37.588C150.716 34.8874 150.304 32.0983 149.047 29.657C148.147 27.931 147.357 27.142 147.447 27.068C147.474 27.043 147.678 27.227 148.047 27.607C148.578 28.1653 149.04 28.7854 149.424 29.454C150.891 31.9422 151.443 34.8651 150.983 37.717C150.711 39.4098 150.103 41.0309 149.194 42.4847C148.285 43.9385 147.094 45.1953 145.691 46.1811C144.289 47.1669 142.702 47.8616 141.027 48.2241C139.351 48.5867 137.62 48.6098 135.935 48.292C133.218 47.794 130.733 46.4343 128.849 44.4142C126.965 42.3942 125.781 39.8212 125.473 37.076C125.273 35.3741 125.417 33.6494 125.895 32.0039C126.373 30.3584 127.176 28.8253 128.256 27.4952C129.337 26.165 130.673 25.0648 132.185 24.2594C133.698 23.4541 135.356 22.9599 137.063 22.806C139.94 22.5447 142.819 23.2974 145.2 24.934C145.841 25.3614 146.428 25.8651 146.948 26.434C147.301 26.825 147.471 27.041 147.448 27.066" fill="#263238"/>
            <path d="M153.856 80.412C153.856 80.412 153.656 80.625 153.233 81.012C152.775 81.419 152.143 81.981 151.321 82.712C148.727 84.7932 145.912 86.5836 142.927 88.051C137.232 90.7755 131.015 92.2334 124.702 92.3242C118.39 92.415 112.133 91.1366 106.362 88.577L106.719 88.518C89.793 104.364 67.279 125.447 41.164 149.897L40.971 150.079L40.712 150.014L20.468 144.94L20.061 144.84L20.086 144.418C20.34 140.187 20.619 135.55 20.902 130.851L20.915 130.644L21.066 130.503C22.779 128.903 24.679 127.13 26.588 125.345L26.802 125.145L27.085 125.224C29.685 125.95 32.55 126.752 35.434 127.559L34.769 128.141C34.369 125.354 33.924 122.294 33.479 119.213L33.439 118.939L33.639 118.748L43.129 109.889L43.349 109.684L43.639 109.765L57.339 113.601L56.658 114.201C55.99 109.558 55.272 104.572 54.548 99.551L54.508 99.272L54.715 99.077C55.639 98.216 56.639 97.282 57.641 96.347C60.3637 93.8083 63.0694 91.284 65.758 88.774L65.981 88.567L66.273 88.65L79.973 92.491L79.294 93.086C78.586 88.1527 77.886 83.2693 77.194 78.436L77.154 78.159L77.359 77.968L86.188 69.738L86.088 70.387C82.6837 64.3347 80.7513 57.5663 80.447 50.629C80.2841 47.266 80.5255 43.8955 81.166 40.59C81.7606 37.3436 82.7297 34.1771 84.054 31.154C88.1614 21.6332 95.5203 13.883 104.816 9.28851C114.111 4.69399 124.738 3.55448 134.796 6.07361C144.855 8.59274 153.689 14.6063 159.722 23.0398C165.755 31.4733 168.592 41.7771 167.727 52.11C167.263 57.9507 165.606 63.6343 162.86 68.81C162.583 69.338 162.314 69.8527 162.053 70.354C161.747 70.826 161.45 71.2843 161.161 71.729C160.572 72.608 160.08 73.469 159.516 74.192C158.345 75.603 157.446 76.869 156.563 77.75L154.558 79.75C154.104 80.197 153.858 80.406 153.858 80.406C153.858 80.406 154.058 80.148 154.492 79.682C154.953 79.19 155.592 78.509 156.424 77.621C157.282 76.721 158.152 75.443 159.292 74.021C159.84 73.295 160.315 72.43 160.892 71.551L161.753 70.19C162.005 69.6907 162.265 69.1767 162.533 68.648C165.622 62.6219 167.259 55.9569 167.314 49.1854C167.369 42.4138 165.839 35.7233 162.848 29.648C159.209 22.3223 153.554 16.1874 146.549 11.9637C139.544 7.7401 131.479 5.60322 123.302 5.80411C115.124 6.00499 107.174 8.53528 100.385 13.0978C93.5956 17.6603 88.2493 24.0655 84.974 31.561C83.685 34.5157 82.7437 37.6101 82.169 40.782C81.5485 44.0094 81.3175 47.2996 81.481 50.582C81.7877 57.3512 83.6806 63.9536 87.007 69.857L87.207 70.223L86.907 70.506C83.9957 73.2233 81.0547 75.9693 78.084 78.744L78.25 78.277C78.9454 83.109 79.6494 87.9923 80.362 92.927L80.481 93.747L79.681 93.524L65.986 89.69L66.501 89.566C63.813 92.072 61.108 94.5957 58.386 97.137C57.386 98.072 56.386 99.007 55.458 99.868L55.627 99.39C56.35 104.413 57.067 109.397 57.735 114.042L57.852 114.862L57.052 114.639C52.346 113.32 47.679 112.01 43.352 110.798L43.862 110.674C40.592 113.721 37.35 116.744 34.362 119.526L34.526 119.061C34.967 122.142 35.405 125.201 35.805 127.99L35.92 128.79L35.142 128.572L26.794 126.226L27.294 126.105C25.382 127.887 23.483 129.658 21.766 131.256L21.93 130.91C21.64 135.61 21.353 140.247 21.092 144.477L20.71 143.954C27.731 145.727 34.593 147.46 40.942 149.066L40.492 149.181C66.692 124.825 89.284 103.824 106.265 88.037L106.425 87.889L106.625 87.977C112.315 90.5309 118.488 91.8308 124.724 91.7885C130.961 91.7462 137.115 90.3628 142.77 87.732C145.752 86.3073 148.578 84.5781 151.204 82.572L153.166 80.941C153.609 80.579 153.851 80.409 153.851 80.409" fill="#263238"/>
            <path d="M152.403 75.489C158.361 69.931 162.633 62.8075 164.73 54.9342C166.827 47.0609 166.665 38.7561 164.261 30.9709C161.857 23.1857 157.31 16.2349 151.139 10.9144C144.968 5.5939 137.423 2.11885 129.369 0.887204C121.315 -0.344438 113.077 0.71712 105.598 3.95031C98.119 7.18351 91.7019 12.4576 87.0814 19.1687C82.4609 25.8797 79.8238 33.7563 79.4722 41.8966C79.1205 50.0368 81.0685 58.1115 85.0931 65.196L85.0801 65.207L76.2661 73.43L78.3741 88.082L64.6741 84.242L53.6311 94.542L55.7391 109.194L42.0391 105.354L32.5471 114.21L33.8321 123.14L25.4841 120.8L19.9601 125.955L19.1311 139.524L39.3701 144.618L105.042 83.356C112.834 86.8511 121.485 87.969 129.91 86.5698C138.334 85.1705 146.159 81.3153 152.403 75.489ZM145.989 22.145C147.668 23.9447 148.776 26.2018 149.172 28.6309C149.568 31.0601 149.235 33.5522 148.215 35.792C147.194 38.0318 145.533 39.9189 143.44 41.2144C141.348 42.5099 138.918 43.1558 136.458 43.0704C133.998 42.9849 131.619 42.172 129.621 40.7343C127.624 39.2967 126.097 37.2989 125.235 34.9936C124.372 32.6884 124.213 30.1792 124.777 27.7834C125.341 25.3876 126.602 23.2128 128.402 21.534C130.816 19.2832 134.024 18.0832 137.322 18.1978C140.62 18.3124 143.738 19.7322 145.989 22.145Z" fill="url(#paint0_linear_5_1361)"/>
            <path d="M145.989 22.144C145.91 22.225 145.176 21.385 143.517 20.366C141.169 18.9418 138.415 18.3365 135.687 18.645C133.477 18.8847 131.377 19.7349 129.622 21.1004C127.868 22.4659 126.528 24.2929 125.753 26.3767C124.978 28.4605 124.799 30.7189 125.234 32.899C125.67 35.0791 126.704 37.0948 128.221 38.7205C129.737 40.3462 131.677 41.5176 133.821 42.1037C135.966 42.6897 138.231 42.6672 140.364 42.0386C142.496 41.4101 144.412 40.2003 145.896 38.5448C147.38 36.8892 148.374 34.8533 148.766 32.665C149.263 29.9653 148.85 27.1771 147.593 24.737C146.693 23.011 145.903 22.222 145.993 22.148C146.02 22.123 146.224 22.307 146.593 22.687C147.125 23.245 147.587 23.8651 147.97 24.534C149.438 27.0222 149.989 29.9451 149.529 32.797C149.257 34.4895 148.648 36.1103 147.739 37.5638C146.83 39.0172 145.639 40.2737 144.236 41.2592C142.834 42.2447 141.248 42.9391 139.572 43.3015C137.897 43.6638 136.165 43.6868 134.481 43.369C131.764 42.8709 129.279 41.5113 127.395 39.4912C125.511 37.4712 124.327 34.8982 124.019 32.153C123.82 30.4511 123.964 28.7266 124.442 27.0813C124.92 25.4359 125.723 23.903 126.804 22.573C127.884 21.2429 129.219 20.1427 130.732 19.3372C132.244 18.5317 133.902 18.0372 135.609 17.883C138.486 17.6227 141.364 18.3754 143.746 20.011C144.387 20.4389 144.974 20.9426 145.494 21.511C145.847 21.902 146.017 22.118 145.994 22.143" fill="#263238"/>
            <path d="M152.404 75.49C152.404 75.49 152.204 75.703 151.781 76.09C151.323 76.497 150.691 77.059 149.869 77.79C147.274 79.8705 144.46 81.6602 141.475 83.127C135.78 85.8515 129.562 87.3093 123.25 87.4001C116.938 87.491 110.681 86.2126 104.91 83.653L105.267 83.594C88.3409 99.442 65.8259 120.525 39.7109 144.975L39.5159 145.157L39.2579 145.092L19.0149 140.018L18.6079 139.918L18.6329 139.496C18.8869 135.265 19.1659 130.628 19.4489 125.929L19.4619 125.722L19.6129 125.581L25.1339 120.423L25.3499 120.223L25.6329 120.302C28.2329 121.028 31.0959 121.83 33.9809 122.637L33.3179 123.219C32.9179 120.432 32.4729 117.372 32.0279 114.291L31.9879 114.017L32.1879 113.826L41.6759 104.967L41.8979 104.762L42.1879 104.843L55.8879 108.679L55.2069 109.279C54.5389 104.636 53.8199 99.65 53.0969 94.629L53.0569 94.35L53.2639 94.155C54.1869 93.294 55.1879 92.36 56.1899 91.424C58.9172 88.8827 61.6242 86.3567 64.3109 83.846L64.5329 83.639L64.8269 83.722C69.4322 85.014 73.9989 86.2943 78.5269 87.563L77.8499 88.158C77.1419 83.2247 76.4419 78.3413 75.7499 73.508L75.7099 73.231L75.9099 73.04C78.8846 70.2687 81.8279 67.5253 84.7399 64.81L84.6399 65.459C81.2372 59.4086 79.3052 52.6428 78.9999 45.708C78.8373 42.3459 79.0787 38.9765 79.7189 35.672C80.3126 32.4254 81.2818 29.2588 82.6069 26.236C86.7138 16.7148 94.0725 8.96421 103.368 4.36922C112.663 -0.22578 123.29 -1.36574 133.348 1.15305C143.407 3.67185 152.242 9.68525 158.275 18.1187C164.308 26.5521 167.146 36.856 166.281 47.189C165.817 53.0297 164.16 58.7133 161.414 63.889C161.137 64.419 160.868 64.9337 160.607 65.433C160.301 65.905 160.004 66.3633 159.715 66.808C159.126 67.687 158.634 68.548 158.07 69.269C156.899 70.68 156 71.946 155.117 72.829L153.112 74.829C152.658 75.276 152.412 75.485 152.412 75.485C152.412 75.485 152.612 75.227 153.046 74.761C153.507 74.269 154.146 73.588 154.977 72.7C155.835 71.8 156.705 70.522 157.844 69.1C158.394 68.374 158.869 67.509 159.444 66.632C159.723 66.1867 160.012 65.7277 160.311 65.255C160.563 64.7557 160.823 64.2417 161.091 63.713C164.18 57.6869 165.817 51.0219 165.872 44.2503C165.927 37.4788 164.397 30.7882 161.406 24.713C157.766 17.3876 152.112 11.2529 145.107 7.02949C138.102 2.80604 130.037 0.669206 121.86 0.869977C113.683 1.07075 105.733 3.60079 98.9434 8.16292C92.1541 12.7251 86.8076 19.1298 83.5319 26.625C82.2431 29.5804 81.3019 32.6755 80.7269 35.848C80.1064 39.0754 79.8754 42.3656 80.0389 45.648C80.3453 52.4166 82.2382 59.0184 85.5649 64.921L85.7649 65.287L85.4649 65.57C82.5536 68.2873 79.6126 71.0333 76.6419 73.808L76.8059 73.341C77.4972 78.1803 78.1986 83.0667 78.9099 88L79.0269 88.818L78.2269 88.596L64.5269 84.758L65.0419 84.632C62.3586 87.144 59.6552 89.67 56.9319 92.21L54.0059 94.941L54.1719 94.469C54.8939 99.49 55.6119 104.474 56.2779 109.119L56.3969 109.939L55.5969 109.716L41.8969 105.875L42.4089 105.751C39.1389 108.798 35.8969 111.821 32.9089 114.603L33.0709 114.138C33.5139 117.219 33.9519 120.278 34.3519 123.068L34.4669 123.868L33.6869 123.65L25.3509 121.3L25.8509 121.179L20.3229 126.33L20.4869 125.984C20.1969 130.684 19.9099 135.321 19.6489 139.551L19.2669 139.028C26.2879 140.801 33.1499 142.534 39.4989 144.14L39.0469 144.255C65.2469 119.9 87.8379 98.9 104.819 83.117L104.979 82.969L105.179 83.057C110.869 85.6108 117.041 86.9108 123.278 86.8685C129.515 86.8262 135.669 85.4427 141.324 82.812C144.305 81.3869 147.132 79.6577 149.758 77.652C150.601 76.952 151.25 76.412 151.72 76.021C152.163 75.657 152.405 75.489 152.405 75.489" fill="#263238"/>
            <path d="M148.42 72.106C148.272 71.976 150.959 69.832 154.247 64.757C156.226 61.6713 157.729 58.3052 158.706 54.772C161.132 46.3301 160.542 37.3066 157.036 29.2531C153.529 21.1996 147.327 14.6194 139.494 10.644C136.272 8.97138 132.813 7.80471 129.236 7.18499C127.395 6.84754 125.534 6.6334 123.665 6.54399C121.758 6.51019 119.851 6.60474 117.957 6.82699C110 7.74792 102.548 11.1923 96.6902 16.6558C90.8329 22.1192 86.8788 29.3145 85.407 37.188C85.0541 39.063 84.8272 40.9596 84.728 42.865C84.6899 44.7353 84.7755 46.606 84.984 48.465C85.3555 52.0781 86.281 55.6125 87.728 58.944C91.1684 67.0192 97.3057 73.6495 105.092 77.7023C112.877 81.7551 121.829 82.979 130.417 81.165C134.009 80.435 137.472 79.1685 140.687 77.408C145.977 74.48 148.301 71.949 148.42 72.108C148.293 72.2715 148.146 72.4192 147.984 72.548L146.627 73.762C145.904 74.4366 145.125 75.0494 144.299 75.594C143.219 76.4067 142.079 77.1374 140.89 77.78C137.666 79.6304 134.177 80.9729 130.544 81.76C125.204 82.9511 119.672 82.9901 114.316 81.8744C108.96 80.7587 103.904 78.514 99.484 75.29C93.9093 71.1989 89.5326 65.6888 86.809 59.333C85.3123 55.9182 84.3498 52.2935 83.955 48.586C83.7351 46.6753 83.6428 44.752 83.679 42.829C83.7758 40.8698 84.0046 38.9194 84.364 36.991C85.8633 28.8881 89.9251 21.4809 95.951 15.8602C101.977 10.2395 109.649 6.70247 117.836 5.76999C119.784 5.54525 121.744 5.45271 123.704 5.49299C125.625 5.58972 127.537 5.81489 129.428 6.16699C133.099 6.81676 136.648 8.02796 139.95 9.75799C146.1 12.9147 151.292 17.6616 154.986 23.505C157.896 28.1382 159.784 33.3384 160.525 38.7589C161.267 44.1794 160.844 49.6956 159.286 54.94C158.25 58.5096 156.668 61.8979 154.598 64.985C153.876 66.1276 153.069 67.214 152.184 68.235C151.583 69.0215 150.917 69.7558 150.193 70.43C149.656 70.954 149.225 71.372 148.893 71.7C148.753 71.8529 148.595 71.9888 148.423 72.105" fill="#263238"/>
            <path d="M146.656 41.318C146.57 41.235 147.562 40.383 148.773 38.441C150.46 35.6841 151.181 32.4441 150.823 29.232C150.565 26.8835 149.724 24.6366 148.377 22.6957C147.03 20.7547 145.219 19.1811 143.109 18.118C140.626 16.8561 137.823 16.3654 135.059 16.709C132.091 17.0576 129.311 18.345 127.126 20.3838C124.94 22.4225 123.463 25.1059 122.909 28.043C122.374 30.777 122.67 33.6085 123.758 36.173C124.672 38.3522 126.115 40.2686 127.958 41.7478C129.801 43.227 131.984 44.2223 134.309 44.643C137.489 45.2223 140.77 44.7265 143.637 43.234C145.66 42.162 146.577 41.234 146.655 41.322C146.68 41.349 146.46 41.583 146.014 42.007C145.355 42.6231 144.627 43.1601 143.843 43.607C140.929 45.3084 137.513 45.9429 134.182 45.402C131.875 45.0399 129.687 44.1365 127.797 42.766C126.003 41.4615 124.519 39.7764 123.452 37.8312C122.385 35.886 121.761 33.729 121.626 31.5146C121.491 29.3002 121.846 27.0832 122.668 25.0225C123.49 22.9618 124.757 21.1083 126.379 19.5948C128.001 18.0813 129.938 16.9452 132.051 16.268C134.163 15.5907 136.4 15.3891 138.599 15.6774C140.799 15.9657 142.908 16.737 144.775 17.9358C146.641 19.1347 148.22 20.7316 149.397 22.612C150.635 24.5924 151.384 26.8383 151.584 29.165C151.895 32.5254 151.025 35.8891 149.125 38.678C148.627 39.4289 148.043 40.1184 147.383 40.732C146.929 41.15 146.683 41.354 146.655 41.327" fill="#263238"/>
            <path d="M34.0731 142.215C33.8731 141.997 48.656 127.869 67.0961 110.664C85.536 93.459 100.661 79.685 100.861 79.905C101.061 80.125 86.2821 94.247 67.834 111.455C49.386 128.663 34.2771 142.433 34.0731 142.215Z" fill="#263238"/>
            <path d="M42.2261 56.234L42.8261 54.895L43.6261 56.122C44.2708 57.1049 45.1839 57.8823 46.2571 58.362L47.5961 58.962L46.3691 59.762C45.3865 60.4072 44.6093 61.3201 44.1291 62.393L43.5291 63.734L42.7291 62.507C42.0844 61.5237 41.1713 60.746 40.0981 60.266L38.7571 59.666L39.9841 58.866C40.9677 58.2218 41.7455 57.3086 42.2251 56.235" fill="#BCBCBC"/>
            <path d="M2.013 46.217L2.361 45.439L2.828 46.152C3.20269 46.7224 3.73294 47.1735 4.356 47.452L5.134 47.8L4.421 48.267C3.8506 48.6417 3.39947 49.1719 3.121 49.795L2.773 50.572L2.3 49.856C1.92531 49.2856 1.39506 48.8345 0.772 48.556L0 48.207L0.712 47.74C1.28204 47.3668 1.73346 46.8384 2.013 46.217Z" fill="#BCBCBC"/>
            <path d="M128.632 114.744L128.978 113.966L129.445 114.679C129.82 115.249 130.35 115.701 130.973 115.979L131.751 116.327L131.039 116.794C130.468 117.168 130.016 117.698 129.739 118.322L129.389 119.099L128.922 118.387C128.547 117.817 128.017 117.366 127.394 117.087L126.617 116.739L127.33 116.272C127.899 115.896 128.35 115.366 128.63 114.744" fill="#BCBCBC"/>
            <path d="M190.625 79.605L191.225 78.266L192.025 79.493C192.67 80.4759 193.583 81.2533 194.656 81.733L195.995 82.333L194.768 83.133C193.785 83.7782 193.008 84.6911 192.528 85.764L191.928 87.105L191.128 85.878C190.483 84.8948 189.57 84.1171 188.497 83.637L187.156 83.037L188.383 82.237C189.367 81.5928 190.144 80.6796 190.624 79.606" fill="#BCBCBC"/>
            <path d="M182.55 30.38L183.557 28.13L184.908 30.191C185.991 31.8432 187.525 33.1503 189.328 33.957L191.578 34.962L189.515 36.317C187.864 37.4004 186.557 38.9343 185.751 40.737L184.744 42.986L183.393 40.925C182.31 39.2734 180.776 37.967 178.973 37.161L176.723 36.154L178.786 34.803C180.437 33.7196 181.743 32.1857 182.55 30.383" fill="#BCBCBC"/>
            <path d="M29.7311 15.2L30.7371 12.95L32.0881 15.011C33.1709 16.6632 34.7048 17.9702 36.5081 18.777L38.7581 19.784L36.6971 21.135C35.0475 22.2184 33.7428 23.7515 32.9371 25.553L31.9301 27.803L30.5741 25.742C29.4916 24.0899 27.9575 22.7834 26.1541 21.978L23.9041 20.971L25.9671 19.62C27.6183 18.5365 28.9245 17.0027 29.7311 15.2Z" fill="#BCBCBC"/>
        </g>
    </g>
    <defs>
        <linearGradient id="paint0_linear_5_1361" x1="92.6614" y1="0.388702" x2="92.6614" y2="144.618" gradientUnits="userSpaceOnUse">
            <stop stop-color="#00D8FA"/>
            <stop offset="1" stop-color="#EAF0F3"/>
        </linearGradient>
        <clipPath id="clip0_5_1361">
            <rect width="195.999" height="150.079" fill="white"/>
        </clipPath>
    </defs>
</svg>
