<svg width="122" height="122" viewBox="0 0 122 122" fill="none" xmlns="http://www.w3.org/2000/svg">
    <path d="M61 120.5C52.9673 120.5 45.1752 118.927 37.8401 115.824C34.3146 114.333 30.9142 112.488 27.7333 110.339C24.5826 108.21 21.6198 105.765 18.9272 103.073C16.2345 100.38 13.79 97.4174 11.6614 94.2667C9.51245 91.0858 7.66677 87.6854 6.1756 84.1599C3.07309 76.8248 1.5 69.0327 1.5 61C1.5 52.9673 3.07309 45.1752 6.1756 37.8401C7.66677 34.3146 9.51245 30.9142 11.6614 27.7333C13.79 24.5826 16.2345 21.6198 18.9272 18.9272C21.6198 16.2345 24.5826 13.79 27.7333 11.6614C30.9142 9.51245 34.3146 7.66677 37.8401 6.1756C45.1752 3.07309 52.9673 1.5 61 1.5C69.0327 1.5 76.8248 3.07309 84.1599 6.1756C87.6854 7.66677 91.0858 9.51245 94.2667 11.6614C97.4174 13.79 100.38 16.2345 103.073 18.9272C105.765 21.6198 108.21 24.5826 110.339 27.7333C112.488 30.9142 114.333 34.3146 115.824 37.8401C118.927 45.1752 120.5 52.9673 120.5 61C120.5 69.0327 118.927 76.8248 115.824 84.1599C114.333 87.6854 112.488 91.0858 110.339 94.2667C108.21 97.4174 105.765 100.38 103.073 103.073C100.38 105.765 97.4174 108.21 94.2667 110.339C91.0858 112.488 87.6854 114.333 84.1599 115.824C76.8248 118.927 69.0327 120.5 61 120.5Z" stroke="white" stroke-opacity="0.19" stroke-width="2"/>
    <mask id="path-2-inside-1_0_1" fill="white">
        <path d="M61 2C53.0346 2 45.308 3.55981 38.0349 6.6361C34.5391 8.11469 31.1673 9.94483 28.0132 12.0757C24.8889 14.1865 21.9508 16.6106 19.2807 19.2807C16.6106 21.9508 14.1865 24.8889 12.0757 28.0132C9.94483 31.1673 8.11469 34.5391 6.6361 38.0349C3.55981 45.308 2 53.0346 2 61C2 68.9654 3.55981 76.692 6.6361 83.9651C8.11469 87.4609 9.94483 90.8327 12.0757 93.9868C14.1865 97.1111 16.6106 100.049 19.2807 102.719C21.9508 105.389 24.8889 107.814 28.0132 109.924C31.1673 112.055 34.5391 113.885 38.0349 115.364C45.308 118.44 53.0346 120 61 120C68.9654 120 76.692 118.44 83.9651 115.364C87.4609 113.885 90.8327 112.055 93.9868 109.924C97.1111 107.814 100.049 105.389 102.719 102.719C105.389 100.049 107.814 97.1111 109.924 93.9868C112.055 90.8327 113.885 87.4609 115.364 83.9651C118.44 76.692 120 68.9654 120 61C120 53.0346 118.44 45.308 115.364 38.0349C113.885 34.5391 112.055 31.1673 109.924 28.0132C107.814 24.8889 105.389 21.9508 102.719 19.2807C100.049 16.6106 97.1111 14.1865 93.9868 12.0757C90.8327 9.94483 87.4609 8.11469 83.9651 6.6361C76.692 3.55981 68.9654 2 61 2ZM61 1C94.1371 1 121 27.8629 121 61C121 94.1371 94.1371 121 61 121C27.8629 121 1 94.1371 1 61C1 27.8629 27.8629 1 61 1Z"/>
    </mask>
    <path d="M61 2C53.0346 2 45.308 3.55981 38.0349 6.6361C34.5391 8.11469 31.1673 9.94483 28.0132 12.0757C24.8889 14.1865 21.9508 16.6106 19.2807 19.2807C16.6106 21.9508 14.1865 24.8889 12.0757 28.0132C9.94483 31.1673 8.11469 34.5391 6.6361 38.0349C3.55981 45.308 2 53.0346 2 61C2 68.9654 3.55981 76.692 6.6361 83.9651C8.11469 87.4609 9.94483 90.8327 12.0757 93.9868C14.1865 97.1111 16.6106 100.049 19.2807 102.719C21.9508 105.389 24.8889 107.814 28.0132 109.924C31.1673 112.055 34.5391 113.885 38.0349 115.364C45.308 118.44 53.0346 120 61 120C68.9654 120 76.692 118.44 83.9651 115.364C87.4609 113.885 90.8327 112.055 93.9868 109.924C97.1111 107.814 100.049 105.389 102.719 102.719C105.389 100.049 107.814 97.1111 109.924 93.9868C112.055 90.8327 113.885 87.4609 115.364 83.9651C118.44 76.692 120 68.9654 120 61C120 53.0346 118.44 45.308 115.364 38.0349C113.885 34.5391 112.055 31.1673 109.924 28.0132C107.814 24.8889 105.389 21.9508 102.719 19.2807C100.049 16.6106 97.1111 14.1865 93.9868 12.0757C90.8327 9.94483 87.4609 8.11469 83.9651 6.6361C76.692 3.55981 68.9654 2 61 2ZM61 1C94.1371 1 121 27.8629 121 61C121 94.1371 94.1371 121 61 121C27.8629 121 1 94.1371 1 61C1 27.8629 27.8629 1 61 1Z" fill="white"/>
    <path d="M38.0349 6.6361L38.814 8.47811V8.47811L38.0349 6.6361ZM28.0132 12.0757L26.8936 10.4184L26.8936 10.4184L28.0132 12.0757ZM19.2807 19.2807L20.6949 20.6949L20.6949 20.6949L19.2807 19.2807ZM12.0757 28.0132L10.4184 26.8936L10.4184 26.8936L12.0757 28.0132ZM6.6361 38.0349L8.47811 38.814H8.47811L6.6361 38.0349ZM6.6361 83.9651L8.47811 83.1861L8.47811 83.186L6.6361 83.9651ZM12.0757 93.9868L10.4184 95.1064L10.4184 95.1064L12.0757 93.9868ZM19.2807 102.719L20.6949 101.305H20.6949L19.2807 102.719ZM28.0132 109.924L26.8936 111.582H26.8936L28.0132 109.924ZM38.0349 115.364L38.814 113.522L38.0349 115.364ZM83.9651 115.364L83.1861 113.522H83.186L83.9651 115.364ZM93.9868 109.924L95.1064 111.582V111.582L93.9868 109.924ZM109.924 93.9868L111.582 95.1064H111.582L109.924 93.9868ZM115.364 83.9651L113.522 83.186V83.1861L115.364 83.9651ZM115.364 38.0349L113.522 38.814L115.364 38.0349ZM109.924 28.0132L111.582 26.8936V26.8936L109.924 28.0132ZM102.719 19.2807L101.305 20.6949V20.6949L102.719 19.2807ZM93.9868 12.0757L95.1064 10.4184L95.1064 10.4184L93.9868 12.0757ZM83.9651 6.6361L83.186 8.47811L83.1861 8.47811L83.9651 6.6361ZM61 0C52.7693 0 44.7776 1.61261 37.2557 4.79409L38.814 8.47811C45.8384 5.50701 53.2999 4 61 4V0ZM37.2557 4.79409C33.6404 6.32324 30.1547 8.21533 26.8936 10.4184L29.1328 13.7329C32.18 11.6743 35.4377 9.90613 38.814 8.47811L37.2557 4.79409ZM26.8936 10.4184C23.6634 12.6008 20.6267 15.1063 17.8665 17.8665L20.6949 20.6949C23.2749 18.1149 26.1144 15.7722 29.1329 13.7329L26.8936 10.4184ZM17.8665 17.8665C15.1063 20.6267 12.6008 23.6634 10.4184 26.8936L13.7329 29.1329C15.7722 26.1144 18.1149 23.2749 20.6949 20.6949L17.8665 17.8665ZM10.4184 26.8936C8.21533 30.1547 6.32324 33.6404 4.79409 37.2557L8.47811 38.814C9.90613 35.4377 11.6743 32.18 13.7329 29.1328L10.4184 26.8936ZM4.79409 37.2557C1.61261 44.7776 0 52.7693 0 61H4C4 53.2999 5.50701 45.8384 8.47811 38.814L4.79409 37.2557ZM0 61C0 69.2307 1.61261 77.2224 4.79409 84.7443L8.47811 83.186C5.50701 76.1616 4 68.7001 4 61H0ZM4.79409 84.7442C6.32324 88.3596 8.21533 91.8454 10.4184 95.1064L13.7329 92.8672C11.6743 89.82 9.90613 86.5623 8.47811 83.1861L4.79409 84.7442ZM10.4184 95.1064C12.6008 98.3366 15.1063 101.373 17.8665 104.134L20.6949 101.305C18.1149 98.7251 15.7722 95.8856 13.7329 92.8671L10.4184 95.1064ZM17.8665 104.134C20.6267 106.894 23.6634 109.399 26.8936 111.582L29.1329 108.267C26.1144 106.228 23.2749 103.885 20.6949 101.305L17.8665 104.134ZM26.8936 111.582C30.1547 113.785 33.6404 115.677 37.2557 117.206L38.814 113.522C35.4377 112.094 32.18 110.326 29.1328 108.267L26.8936 111.582ZM37.2557 117.206C44.7776 120.387 52.7693 122 61 122V118C53.2999 118 45.8384 116.493 38.814 113.522L37.2557 117.206ZM61 122C69.2307 122 77.2224 120.387 84.7443 117.206L83.186 113.522C76.1616 116.493 68.7001 118 61 118V122ZM84.7442 117.206C88.3596 115.677 91.8454 113.785 95.1064 111.582L92.8672 108.267C89.82 110.326 86.5623 112.094 83.1861 113.522L84.7442 117.206ZM95.1064 111.582C98.3366 109.399 101.373 106.894 104.134 104.134L101.305 101.305C98.7251 103.885 95.8856 106.228 92.8672 108.267L95.1064 111.582ZM104.134 104.134C106.894 101.373 109.399 98.3366 111.582 95.1064L108.267 92.8672C106.228 95.8856 103.885 98.7251 101.305 101.305L104.134 104.134ZM111.582 95.1064C113.785 91.8454 115.677 88.3596 117.206 84.7442L113.522 83.1861C112.094 86.5623 110.326 89.82 108.267 92.8672L111.582 95.1064ZM117.206 84.7443C120.387 77.2224 122 69.2307 122 61H118C118 68.7001 116.493 76.1616 113.522 83.186L117.206 84.7443ZM122 61C122 52.7693 120.387 44.7776 117.206 37.2557L113.522 38.814C116.493 45.8384 118 53.2999 118 61H122ZM117.206 37.2557C115.677 33.6404 113.785 30.1547 111.582 26.8936L108.267 29.1328C110.326 32.18 112.094 35.4377 113.522 38.814L117.206 37.2557ZM111.582 26.8936C109.399 23.6634 106.894 20.6267 104.134 17.8665L101.305 20.6949C103.885 23.2749 106.228 26.1144 108.267 29.1329L111.582 26.8936ZM104.134 17.8665C101.373 15.1063 98.3366 12.6008 95.1064 10.4184L92.8671 13.7329C95.8856 15.7722 98.7251 18.1149 101.305 20.6949L104.134 17.8665ZM95.1064 10.4184C91.8454 8.21533 88.3596 6.32324 84.7442 4.79409L83.1861 8.47811C86.5623 9.90613 89.82 11.6743 92.8672 13.7329L95.1064 10.4184ZM84.7443 4.79409C77.2224 1.61261 69.2307 0 61 0V4C68.7001 4 76.1616 5.50701 83.186 8.47811L84.7443 4.79409ZM61 3C93.0325 3 119 28.9675 119 61H123C123 26.7583 95.2417 -1 61 -1V3ZM119 61C119 93.0325 93.0325 119 61 119V123C95.2417 123 123 95.2417 123 61H119ZM61 119C28.9675 119 3 93.0325 3 61H-1C-1 95.2417 26.7583 123 61 123V119ZM3 61C3 28.9675 28.9675 3 61 3V-1C26.7583 -1 -1 26.7583 -1 61H3Z" fill="white" fill-opacity="0.19" mask="url(#path-2-inside-1_0_1)"/>
    <path d="M55.4043 57.7909C55.5944 57.6482 55.8262 57.5723 56.0639 57.5751C56.3015 57.5778 56.5316 57.6589 56.7183 57.8059C60.417 60.7253 64.1107 63.6446 67.7993 66.5639C69.8783 64.6379 72.0633 62.6049 74.4783 60.3889C74.659 60.2236 74.8904 60.1246 75.1347 60.1078C75.379 60.0911 75.6218 60.1578 75.8233 60.2969C78.1163 61.8969 80.3933 63.4759 82.6233 64.9889C82.7682 58.686 82.5616 52.3799 82.0043 46.0999C81.6643 43.4849 79.2043 40.7949 76.4833 40.6419C66.4038 39.786 56.2698 39.786 46.1903 40.6419C43.6043 40.9779 40.8093 43.3469 40.6723 46.0999C39.9903 53.7421 39.8269 61.4217 40.1833 69.0859C44.6913 65.8299 49.5673 62.2229 55.4043 57.7909ZM68.1223 46.5719C69.2902 46.7171 70.376 47.2489 71.2069 48.0824C72.0377 48.916 72.5659 50.0035 72.7073 51.1719C72.8143 53.5259 70.4303 55.4359 68.3073 55.5429C67.1166 55.4992 65.9864 55.0065 65.1441 54.1638C64.3017 53.321 63.8095 52.1907 63.7663 50.9999C63.7513 48.9409 65.6923 46.2819 68.1223 46.5719Z" fill="white"/>
    <path d="M82.0163 67.1749C79.8163 65.6749 77.5683 64.1179 75.2913 62.5439C72.8763 64.7759 70.6753 66.8079 68.5813 68.7489C68.395 68.9238 68.1523 69.0261 67.8971 69.0372C67.6419 69.0484 67.3911 68.9678 67.1903 68.8099C63.4763 65.8766 59.7569 62.9433 56.0323 60.0099C50.2243 64.4099 45.3643 68.0039 40.7943 71.2589C40.6379 71.3739 40.4527 71.4431 40.2593 71.4589C40.3513 73.0589 40.4733 74.6689 40.6113 76.2739C40.7493 79.0249 43.5463 81.3939 46.1293 81.7309C56.2088 82.5868 66.3427 82.5868 76.4223 81.7309C79.1583 81.5929 81.6033 78.8879 81.9403 76.2739C82.2003 73.3086 82.3836 70.3419 82.4903 67.3739C82.3211 67.3381 82.1603 67.2706 82.0163 67.1749Z" fill="white"/>
</svg>
