<svg width="15" height="16" viewBox="0 0 15 16" fill="none" xmlns="http://www.w3.org/2000/svg">
    <path d="M14.7806 7.93616C14.7806 7.42684 14.7313 6.90109 14.6492 6.4082H7.53516V9.31625H11.6097C11.4454 10.2527 10.9032 11.0742 10.0982 11.6L12.5298 13.4894C13.9591 12.1586 14.7806 10.2199 14.7806 7.93616Z" fill="#4280EF"/>
    <path d="M7.53498 15.2977C9.57226 15.2977 11.2809 14.6241 12.5296 13.474L10.098 11.601C9.42439 12.0611 8.55362 12.324 7.53498 12.324C5.56343 12.324 3.90403 10.9932 3.29613 9.21875L0.798828 11.141C2.08034 13.6876 4.67623 15.2977 7.53498 15.2977Z" fill="#34A353"/>
    <path d="M3.2963 9.20141C2.98413 8.26492 2.98413 7.24628 3.2963 6.30979L0.798992 4.37109C-0.268935 6.50695 -0.268935 9.02069 0.798992 11.1401L3.2963 9.20141Z" fill="#F6B704"/>
    <path d="M7.53498 3.20533C8.60291 3.1889 9.65441 3.59964 10.4266 4.33897L12.5789 2.17026C11.2152 0.888746 9.40796 0.198701 7.53498 0.21513C4.67623 0.21513 2.08034 1.82524 0.798828 4.37183L3.29613 6.31053C3.90403 4.5197 5.56343 3.20533 7.53498 3.20533Z" fill="#E54335"/>
</svg>
