<svg width="20" height="20" viewBox="0 0 20 20" fill="none" xmlns="http://www.w3.org/2000/svg">
    <path d="M0 9.93939C0 4.45002 4.45002 0 9.93939 0C15.4288 0 19.8788 4.45002 19.8788 9.93939C19.8788 15.4288 15.4288 19.8788 9.93939 19.8788C4.45002 19.8788 0 15.4288 0 9.93939Z" fill="white"/>
    <path d="M10.4241 11.7727C10.4241 12.4505 10.9735 13 11.6513 13C12.3292 13 12.8786 12.4505 12.8786 11.7727C12.8786 11.0949 12.3292 10.5454 11.6513 10.5454C10.9735 10.5454 10.4241 11.0949 10.4241 11.7727Z" fill="black"/>
    <path d="M6.87866 11.7727C6.87866 12.4505 7.42814 13 8.10593 13C8.78373 13 9.33321 12.4505 9.33321 11.7727C9.33321 11.0949 8.78373 10.5454 8.10593 10.5454C7.42814 10.5454 6.87866 11.0949 6.87866 11.7727Z" fill="black"/>
    <path d="M10.4241 8.22727C10.4241 8.90507 10.9735 9.45455 11.6513 9.45455C12.3292 9.45455 12.8786 8.90507 12.8786 8.22727C12.8786 7.54947 12.3292 7 11.6513 7C10.9735 7 10.4241 7.54947 10.4241 8.22727Z" fill="black"/>
    <path d="M6.87866 8.22727C6.87866 8.90507 7.42814 9.45455 8.10593 9.45455C8.78373 9.45455 9.33321 8.90507 9.33321 8.22727C9.33321 7.54947 8.78373 7 8.10593 7C7.42814 7 6.87866 7.54947 6.87866 8.22727Z" fill="black"/>
</svg>
