<svg width="40" height="40" viewBox="0 0 40 40" fill="none" xmlns="http://www.w3.org/2000/svg">
    <rect opacity="0.3" width="40" height="40" rx="16" fill="white"/>
    <path d="M27.3133 13.4179L22.0781 10.4276C21.0756 9.85748 19.506 9.85748 18.5035 10.4276L13.2176 13.4379C11.1215 14.8381 11 15.0481 11 17.2784V22.7091C11 24.9394 11.1215 25.1594 13.2581 26.5796L18.4934 29.5699C18.9997 29.86 19.6478 30 20.2857 30C20.9237 30 21.5717 29.86 22.0679 29.5699L27.3538 26.5596C29.4499 25.1594 29.5714 24.9494 29.5714 22.7191V17.2784C29.5714 15.0481 29.4499 14.8381 27.3133 13.4179Z" fill="white"/>
    <path d="M20.2855 23.5714C22.258 23.5714 23.857 21.9724 23.857 20C23.857 18.0276 22.258 16.4286 20.2855 16.4286C18.3131 16.4286 16.7141 18.0276 16.7141 20C16.7141 21.9724 18.3131 23.5714 20.2855 23.5714Z" fill="#53648D"/>
</svg>
