<svg width="18" height="15" viewBox="0 0 18 15" fill="none" xmlns="http://www.w3.org/2000/svg">
    <path fill-rule="evenodd" clip-rule="evenodd" d="M14.4327 0.728843C13.4789 0.60593 12.2603 0.605939 10.7216 0.605957H7.27839C5.73976 0.605939 4.52109 0.60593 3.56733 0.728843C2.58577 0.855338 1.7913 1.12186 1.16476 1.72241C0.538227 2.32296 0.260172 3.08448 0.128205 4.02533C-2.67684e-05 4.93954 -8.84732e-06 6.10765 1.52675e-07 7.58248V7.67302C-8.84732e-06 9.14776 -2.67684e-05 10.3159 0.128205 11.2301C0.260172 12.1709 0.538227 12.9324 1.16476 13.533C1.7913 14.1336 2.58576 14.4001 3.56733 14.5266C4.5211 14.6495 5.73976 14.6495 7.27839 14.6495H10.7216C12.2603 14.6495 13.4789 14.6495 14.4327 14.5266C15.4142 14.4001 16.2087 14.1336 16.8352 13.533C17.4618 12.9324 17.7398 12.1709 17.8717 11.2301C18 10.3159 18 9.14776 18 7.67302V7.58248C18 6.10765 18 4.93954 17.8717 4.02533C17.7398 3.08448 17.4618 2.32296 16.8352 1.72241C16.2087 1.12186 15.4142 0.855338 14.4327 0.728843ZM3.73467 1.92184C2.89236 2.03039 2.40707 2.23396 2.05276 2.57357C1.69844 2.9132 1.48607 3.37835 1.37282 4.18573C1.28199 4.83334 1.26166 5.64271 1.25712 6.70138L1.68088 6.34597C2.69257 5.49745 4.21736 5.54614 5.16793 6.4573L8.75934 9.89971C9.11889 10.2444 9.68499 10.2914 10.1011 10.0111L10.3507 9.84301C11.5482 9.03634 13.1683 9.12976 14.2562 10.0683L16.4231 11.9376C16.5117 11.7 16.5785 11.4164 16.6271 11.0697C16.7429 10.245 16.7442 9.15793 16.7442 7.62775C16.7442 6.09748 16.7429 5.01037 16.6271 4.18573C16.5139 3.37835 16.3015 2.9132 15.9473 2.57357C15.5929 2.23396 15.1077 2.03039 14.2654 1.92184C13.405 1.81097 12.2709 1.80968 10.6744 1.80968H7.32555C5.72917 1.80968 4.59503 1.81097 3.73467 1.92184Z" fill="white"/>
</svg>
