<svg width="152" height="43" viewBox="0 0 152 43" fill="none" xmlns="http://www.w3.org/2000/svg">
    <path d="M26.038 35H19.954C19.558 35 19.234 34.904 18.982 34.712C18.742 34.52 18.55 34.292 18.406 34.028L13.15 24.848C13.054 25.112 12.946 25.34 12.826 25.532L7.93 34.028C7.762 34.268 7.564 34.49 7.336 34.694C7.108 34.898 6.814 35 6.454 35H0.766L9.208 21.5L1.09 8.774H7.174C7.57 8.774 7.858 8.828 8.038 8.936C8.23 9.032 8.398 9.2 8.542 9.44L13.762 18.278C13.822 18.122 13.888 17.972 13.96 17.828C14.044 17.684 14.134 17.534 14.23 17.378L18.802 9.53C18.97 9.266 19.144 9.074 19.324 8.954C19.516 8.834 19.75 8.774 20.026 8.774H25.858L17.632 21.248L26.038 35Z" fill="#00D8FA"/>
    <path d="M43.9635 14.102C43.7835 14.39 43.5915 14.606 43.3875 14.75C43.1955 14.894 42.9435 14.966 42.6315 14.966C42.3555 14.966 42.0555 14.882 41.7315 14.714C41.4195 14.534 41.0595 14.336 40.6515 14.12C40.2555 13.904 39.7995 13.712 39.2835 13.544C38.7675 13.364 38.1795 13.274 37.5195 13.274C36.3795 13.274 35.5275 13.52 34.9635 14.012C34.4115 14.492 34.1355 15.146 34.1355 15.974C34.1355 16.502 34.3035 16.94 34.6395 17.288C34.9755 17.636 35.4135 17.936 35.9535 18.188C36.5055 18.44 37.1295 18.674 37.8255 18.89C38.5335 19.094 39.2535 19.328 39.9855 19.592C40.7175 19.844 41.4315 20.144 42.1275 20.492C42.8355 20.84 43.4595 21.284 43.9995 21.824C44.5515 22.364 44.9955 23.024 45.3315 23.804C45.6675 24.572 45.8355 25.502 45.8355 26.594C45.8355 27.806 45.6255 28.94 45.2055 29.996C44.7855 31.052 44.1735 31.976 43.3695 32.768C42.5775 33.548 41.5935 34.166 40.4175 34.622C39.2535 35.066 37.9275 35.288 36.4395 35.288C35.6235 35.288 34.7895 35.204 33.9375 35.036C33.0975 34.868 32.2815 34.634 31.4895 34.334C30.6975 34.022 29.9535 33.656 29.2575 33.236C28.5615 32.816 27.9555 32.348 27.4395 31.832L29.2395 28.988C29.3835 28.784 29.5695 28.616 29.7975 28.484C30.0375 28.34 30.2955 28.268 30.5715 28.268C30.9315 28.268 31.2915 28.382 31.6515 28.61C32.0235 28.838 32.4375 29.09 32.8935 29.366C33.3615 29.642 33.8955 29.894 34.4955 30.122C35.0955 30.35 35.8035 30.464 36.6195 30.464C37.7235 30.464 38.5815 30.224 39.1935 29.744C39.8055 29.252 40.1115 28.478 40.1115 27.422C40.1115 26.81 39.9435 26.312 39.6075 25.928C39.2715 25.544 38.8275 25.226 38.2755 24.974C37.7355 24.722 37.1175 24.5 36.4215 24.308C35.7255 24.116 35.0115 23.906 34.2795 23.678C33.5475 23.438 32.8335 23.15 32.1375 22.814C31.4415 22.466 30.8175 22.016 30.2655 21.464C29.7255 20.9 29.2875 20.204 28.9515 19.376C28.6155 18.536 28.4475 17.504 28.4475 16.28C28.4475 15.296 28.6455 14.336 29.0415 13.4C29.4375 12.464 30.0195 11.63 30.7875 10.898C31.5555 10.166 32.4975 9.584 33.6135 9.152C34.7295 8.708 36.0075 8.486 37.4475 8.486C38.2515 8.486 39.0315 8.552 39.7875 8.684C40.5555 8.804 41.2815 8.99 41.9655 9.242C42.6495 9.482 43.2855 9.776 43.8735 10.124C44.4735 10.46 45.0075 10.844 45.4755 11.276L43.9635 14.102ZM69.3331 13.598H61.9531V35H55.8691V13.598H48.4891V8.774H69.3331V13.598ZM98.6469 21.878C98.6469 23.774 98.3169 25.538 97.6569 27.17C97.0089 28.802 96.0909 30.224 94.9029 31.436C93.7149 32.636 92.2809 33.578 90.6009 34.262C88.9329 34.946 87.0789 35.288 85.0389 35.288C82.9989 35.288 81.1389 34.946 79.4589 34.262C77.7789 33.578 76.3389 32.636 75.1389 31.436C73.9509 30.224 73.0269 28.802 72.3669 27.17C71.7189 25.538 71.3949 23.774 71.3949 21.878C71.3949 19.982 71.7189 18.218 72.3669 16.586C73.0269 14.954 73.9509 13.538 75.1389 12.338C76.3389 11.138 77.7789 10.196 79.4589 9.512C81.1389 8.828 82.9989 8.486 85.0389 8.486C87.0789 8.486 88.9329 8.834 90.6009 9.53C92.2809 10.214 93.7149 11.156 94.9029 12.356C96.0909 13.556 97.0089 14.972 97.6569 16.604C98.3169 18.236 98.6469 19.994 98.6469 21.878ZM92.4189 21.878C92.4189 20.582 92.2509 19.418 91.9149 18.386C91.5789 17.342 91.0929 16.46 90.4569 15.74C89.8329 15.02 89.0649 14.468 88.1529 14.084C87.2409 13.7 86.2029 13.508 85.0389 13.508C83.8629 13.508 82.8129 13.7 81.8889 14.084C80.9769 14.468 80.2029 15.02 79.5669 15.74C78.9429 16.46 78.4629 17.342 78.1269 18.386C77.7909 19.418 77.6229 20.582 77.6229 21.878C77.6229 23.186 77.7909 24.362 78.1269 25.406C78.4629 26.438 78.9429 27.314 79.5669 28.034C80.2029 28.754 80.9769 29.306 81.8889 29.69C82.8129 30.062 83.8629 30.248 85.0389 30.248C86.2029 30.248 87.2409 30.062 88.1529 29.69C89.0649 29.306 89.8329 28.754 90.4569 28.034C91.0929 27.314 91.5789 26.438 91.9149 25.406C92.2509 24.362 92.4189 23.186 92.4189 21.878ZM120.983 28.214C121.127 28.214 121.271 28.244 121.415 28.304C121.559 28.352 121.697 28.442 121.829 28.574L124.241 31.112C123.185 32.492 121.859 33.536 120.263 34.244C118.679 34.94 116.801 35.288 114.629 35.288C112.637 35.288 110.849 34.952 109.265 34.28C107.693 33.596 106.355 32.66 105.251 31.472C104.159 30.272 103.319 28.856 102.731 27.224C102.143 25.58 101.849 23.798 101.849 21.878C101.849 19.922 102.167 18.128 102.803 16.496C103.439 14.852 104.333 13.436 105.485 12.248C106.637 11.06 108.017 10.136 109.625 9.476C111.233 8.816 113.003 8.486 114.935 8.486C115.919 8.486 116.843 8.576 117.707 8.756C118.583 8.924 119.399 9.164 120.155 9.476C120.911 9.776 121.607 10.142 122.243 10.574C122.879 11.006 123.443 11.474 123.935 11.978L121.883 14.732C121.751 14.9 121.595 15.056 121.415 15.2C121.235 15.332 120.983 15.398 120.659 15.398C120.443 15.398 120.239 15.35 120.047 15.254C119.855 15.158 119.651 15.044 119.435 14.912C119.219 14.768 118.979 14.618 118.715 14.462C118.463 14.294 118.157 14.144 117.797 14.012C117.449 13.868 117.035 13.748 116.555 13.652C116.087 13.556 115.535 13.508 114.899 13.508C113.891 13.508 112.967 13.694 112.127 14.066C111.299 14.438 110.579 14.984 109.967 15.704C109.367 16.412 108.899 17.288 108.563 18.332C108.239 19.364 108.077 20.546 108.077 21.878C108.077 23.222 108.257 24.416 108.617 25.46C108.989 26.504 109.487 27.386 110.111 28.106C110.747 28.814 111.485 29.354 112.325 29.726C113.165 30.098 114.065 30.284 115.025 30.284C115.577 30.284 116.081 30.26 116.537 30.212C116.993 30.152 117.419 30.062 117.815 29.942C118.211 29.81 118.583 29.642 118.931 29.438C119.279 29.222 119.633 28.952 119.993 28.628C120.137 28.508 120.293 28.412 120.461 28.34C120.629 28.256 120.803 28.214 120.983 28.214ZM134.061 19.394H135.033C135.933 19.394 136.581 19.112 136.977 18.548L142.881 9.98C143.229 9.524 143.601 9.212 143.997 9.044C144.405 8.864 144.909 8.774 145.509 8.774H150.801L143.025 19.376C142.473 20.108 141.879 20.636 141.243 20.96C141.699 21.128 142.113 21.362 142.485 21.662C142.857 21.962 143.205 22.352 143.529 22.832L151.449 35H146.013C145.665 35 145.365 34.976 145.113 34.928C144.873 34.88 144.663 34.808 144.483 34.712C144.303 34.616 144.147 34.502 144.015 34.37C143.883 34.226 143.757 34.064 143.637 33.884L137.697 24.758C137.481 24.422 137.205 24.188 136.869 24.056C136.545 23.912 136.101 23.84 135.537 23.84H134.061V35H127.977V8.774H134.061V19.394Z" fill="white"/>
</svg>
